G04 #@! TF.GenerationSoftware,KiCad,Pcbnew,(6.0.6)*
G04 #@! TF.CreationDate,2022-07-27T20:36:10+02:00*
G04 #@! TF.ProjectId,smd-challenge,736d642d-6368-4616-9c6c-656e67652e6b,rev?*
G04 #@! TF.SameCoordinates,Original*
G04 #@! TF.FileFunction,Copper,L2,Bot*
G04 #@! TF.FilePolarity,Positive*
%FSLAX46Y46*%
G04 Gerber Fmt 4.6, Leading zero omitted, Abs format (unit mm)*
G04 Created by KiCad (PCBNEW (6.0.6)) date 2022-07-27 20:36:10*
%MOMM*%
%LPD*%
G01*
G04 APERTURE LIST*
G04 #@! TA.AperFunction,SMDPad,CuDef*
%ADD10C,1.500000*%
G04 #@! TD*
G04 #@! TA.AperFunction,SMDPad,CuDef*
%ADD11R,2.600000X3.600000*%
G04 #@! TD*
G04 #@! TA.AperFunction,ViaPad*
%ADD12C,0.800000*%
G04 #@! TD*
G04 #@! TA.AperFunction,Conductor*
%ADD13C,0.250000*%
G04 #@! TD*
G04 APERTURE END LIST*
D10*
X113820285Y-130421182D03*
X110228182Y-130421182D03*
X111995949Y-128596846D03*
D11*
X138811000Y-118999000D03*
X109511000Y-118999000D03*
D10*
X111995949Y-132188949D03*
X115616336Y-132217233D03*
X113792000Y-133985000D03*
D12*
X115062000Y-119888000D03*
X121031000Y-110363000D03*
X105410000Y-119888000D03*
X121031000Y-128397000D03*
X121031000Y-132461000D03*
X131736500Y-132461000D03*
X128524000Y-136144000D03*
X121056400Y-136194800D03*
X132080000Y-110490000D03*
X111379000Y-115189000D03*
X124079000Y-138557000D03*
X131699000Y-117602000D03*
X142621000Y-119888000D03*
X115062000Y-124460000D03*
X121031000Y-123317000D03*
X135636000Y-117602000D03*
X113792000Y-115189000D03*
X133504300Y-128397000D03*
X135128000Y-123317000D03*
X115062000Y-115189000D03*
X112522000Y-115189000D03*
X113792000Y-119888000D03*
X121031000Y-117602000D03*
X111252000Y-124460000D03*
D13*
X129921000Y-110363000D02*
X131191000Y-109093000D01*
X121031000Y-110363000D02*
X129921000Y-110363000D01*
X132715000Y-109093000D02*
X131191000Y-109093000D01*
X114643511Y-114464489D02*
X113246511Y-114464489D01*
X118745000Y-110363000D02*
X114643511Y-114464489D01*
X121031000Y-110363000D02*
X118745000Y-110363000D01*
X113246511Y-114464489D02*
X112522000Y-115189000D01*
X130810000Y-111760000D02*
X132080000Y-110490000D01*
X115062000Y-116332000D02*
X119634000Y-111760000D01*
X119634000Y-111760000D02*
X130810000Y-111760000D01*
X114935000Y-116332000D02*
X115062000Y-116332000D01*
X137033000Y-113411000D02*
X132715000Y-109093000D01*
X134302500Y-125285500D02*
X137033000Y-122555000D01*
X137033000Y-122555000D02*
X137033000Y-113411000D01*
X134302500Y-128714500D02*
X134302500Y-125285500D01*
X131736500Y-131280500D02*
X134302500Y-128714500D01*
X131736500Y-132461000D02*
X131736500Y-131280500D01*
X131779695Y-109765000D02*
X130420175Y-111124520D01*
X130420175Y-111124520D02*
X119126480Y-111124520D01*
X119126480Y-111124520D02*
X115062000Y-115189000D01*
X132380305Y-109765000D02*
X131779695Y-109765000D01*
X136398000Y-122047000D02*
X136398000Y-113782695D01*
X136398000Y-113782695D02*
X132380305Y-109765000D01*
X135128000Y-123317000D02*
X136398000Y-122047000D01*
X135636000Y-114046000D02*
X132080000Y-110490000D01*
X135636000Y-117602000D02*
X135636000Y-114046000D01*
X110228182Y-119716182D02*
X109511000Y-118999000D01*
X110228182Y-130421182D02*
X110228182Y-119716182D01*
X111379000Y-117131000D02*
X109511000Y-118999000D01*
X111379000Y-115189000D02*
X111379000Y-117131000D01*
X139700000Y-119888000D02*
X138811000Y-118999000D01*
X131011500Y-130889800D02*
X133504300Y-128397000D01*
X128614000Y-135419000D02*
X131011500Y-133021500D01*
X123989000Y-135419000D02*
X128614000Y-135419000D01*
X121031000Y-132461000D02*
X123989000Y-135419000D01*
X131011500Y-133021500D02*
X131011500Y-130889800D01*
X131736500Y-133313896D02*
X131736500Y-132461000D01*
X128906396Y-136144000D02*
X131736500Y-133313896D01*
X128524000Y-136144000D02*
X128906396Y-136144000D01*
X119888000Y-134620000D02*
X119253000Y-133985000D01*
X119888000Y-136906000D02*
X119888000Y-134620000D01*
X121412000Y-137541000D02*
X120523000Y-137541000D01*
X120523000Y-137541000D02*
X119888000Y-136906000D01*
X122809000Y-136144000D02*
X121412000Y-137541000D01*
X128524000Y-136144000D02*
X122809000Y-136144000D01*
X119253000Y-133985000D02*
X113792000Y-133985000D01*
X121031000Y-128397000D02*
X120015000Y-128397000D01*
X120015000Y-128397000D02*
X119888000Y-128270000D01*
X119888000Y-128270000D02*
X119888000Y-132969000D01*
X119888000Y-118745000D02*
X119888000Y-128270000D01*
X133504300Y-124940700D02*
X133504300Y-128397000D01*
X135128000Y-123317000D02*
X133504300Y-124940700D01*
X120396000Y-116967000D02*
X121031000Y-117602000D01*
X113792000Y-117983000D02*
X114808000Y-116967000D01*
X113792000Y-119888000D02*
X113792000Y-117983000D01*
X114808000Y-116967000D02*
X120396000Y-116967000D01*
X115616336Y-127808336D02*
X115616336Y-132217233D01*
X113792000Y-121158000D02*
X113792000Y-125984000D01*
X113792000Y-125984000D02*
X115616336Y-127808336D01*
X115062000Y-119888000D02*
X113792000Y-121158000D01*
X121031000Y-118872000D02*
X121793000Y-118110000D01*
X121031000Y-123317000D02*
X121031000Y-118872000D01*
X121793000Y-118110000D02*
X121793000Y-117094000D01*
X121031000Y-116332000D02*
X114935000Y-116332000D01*
X121793000Y-117094000D02*
X121031000Y-116332000D01*
X113792000Y-115189000D02*
X114935000Y-116332000D01*
X135128000Y-123317000D02*
X133604000Y-124841000D01*
X120777000Y-133858000D02*
X120904000Y-133985000D01*
X119888000Y-132969000D02*
X120777000Y-133858000D01*
X121056400Y-136194800D02*
X121056400Y-134137400D01*
X121056400Y-134137400D02*
X120777000Y-133858000D01*
X121031000Y-117602000D02*
X119888000Y-118745000D01*
X113820285Y-127479715D02*
X113820285Y-130421182D01*
X112522000Y-116459000D02*
X112522000Y-126181430D01*
X112522000Y-126181430D02*
X113820285Y-127479715D01*
X113792000Y-115189000D02*
X112522000Y-116459000D01*
X111252000Y-127852897D02*
X111995949Y-128596846D01*
X111252000Y-124460000D02*
X111252000Y-127852897D01*
G04 #@! TA.AperFunction,Conductor*
G36*
X124174060Y-100398574D02*
G01*
X124926469Y-100414992D01*
X124931950Y-100415232D01*
X125775055Y-100470491D01*
X125780523Y-100470970D01*
X126620403Y-100562951D01*
X126625854Y-100563668D01*
X127460958Y-100692204D01*
X127466371Y-100693159D01*
X127887286Y-100776883D01*
X128295050Y-100857992D01*
X128300388Y-100859176D01*
X129121111Y-101060006D01*
X129126420Y-101061429D01*
X129937565Y-101297856D01*
X129942808Y-101299509D01*
X130742892Y-101571100D01*
X130748028Y-101572970D01*
X131535526Y-101879211D01*
X131540585Y-101881307D01*
X131812776Y-102001074D01*
X132313945Y-102221594D01*
X132318927Y-102223917D01*
X133076692Y-102597605D01*
X133081569Y-102600143D01*
X133220706Y-102676476D01*
X133822372Y-103006561D01*
X133827077Y-103009278D01*
X134549436Y-103447617D01*
X134554060Y-103450563D01*
X135256596Y-103919982D01*
X135261065Y-103923111D01*
X135433757Y-104049734D01*
X135942466Y-104422735D01*
X135946827Y-104426082D01*
X136605733Y-104954910D01*
X136609945Y-104958443D01*
X137245201Y-105515547D01*
X137249251Y-105519258D01*
X137464176Y-105725004D01*
X137859586Y-106103527D01*
X137863473Y-106107414D01*
X138447739Y-106717746D01*
X138451453Y-106721799D01*
X139008557Y-107357055D01*
X139012090Y-107361267D01*
X139540918Y-108020173D01*
X139544265Y-108024534D01*
X140043889Y-108705935D01*
X140047018Y-108710404D01*
X140151047Y-108866094D01*
X140516437Y-109412940D01*
X140519383Y-109417564D01*
X140957722Y-110139923D01*
X140960439Y-110144628D01*
X141109270Y-110415911D01*
X141366857Y-110885431D01*
X141369395Y-110890308D01*
X141743083Y-111648073D01*
X141745406Y-111653055D01*
X142071238Y-112393562D01*
X142085689Y-112426405D01*
X142087789Y-112431474D01*
X142363308Y-113139968D01*
X142394025Y-113218957D01*
X142395900Y-113224108D01*
X142613276Y-113864478D01*
X142667491Y-114024192D01*
X142669144Y-114029435D01*
X142905571Y-114840580D01*
X142906993Y-114845885D01*
X143097604Y-115624842D01*
X143107821Y-115666597D01*
X143109008Y-115671950D01*
X143158259Y-115919554D01*
X143273841Y-116500629D01*
X143274796Y-116506042D01*
X143403332Y-117341146D01*
X143404049Y-117346595D01*
X143490787Y-118138595D01*
X143496030Y-118186473D01*
X143496509Y-118191945D01*
X143532758Y-118745000D01*
X143551768Y-119035045D01*
X143552008Y-119040531D01*
X143558784Y-119351056D01*
X143570440Y-119885251D01*
X143570440Y-119890749D01*
X143558677Y-120429852D01*
X143552008Y-120735463D01*
X143551768Y-120740950D01*
X143503814Y-121472594D01*
X143496509Y-121584051D01*
X143496030Y-121589523D01*
X143406338Y-122408500D01*
X143404049Y-122429403D01*
X143403332Y-122434854D01*
X143274796Y-123269958D01*
X143273841Y-123275371D01*
X143201451Y-123639304D01*
X143129755Y-123999749D01*
X143109011Y-124104035D01*
X143107824Y-124109388D01*
X142909311Y-124920643D01*
X142906994Y-124930111D01*
X142905571Y-124935420D01*
X142669144Y-125746565D01*
X142667491Y-125751808D01*
X142403460Y-126529622D01*
X142395905Y-126551877D01*
X142394030Y-126557028D01*
X142091906Y-127333939D01*
X142087793Y-127344516D01*
X142085693Y-127349585D01*
X142006406Y-127529779D01*
X141745406Y-128122945D01*
X141743083Y-128127927D01*
X141369395Y-128885692D01*
X141366857Y-128890569D01*
X141203616Y-129188118D01*
X140960439Y-129631372D01*
X140957722Y-129636077D01*
X140519391Y-130358424D01*
X140516437Y-130363060D01*
X140477601Y-130421182D01*
X140047018Y-131065596D01*
X140043889Y-131070065D01*
X139914650Y-131246325D01*
X139544265Y-131751466D01*
X139540918Y-131755827D01*
X139012090Y-132414733D01*
X139008557Y-132418945D01*
X138827119Y-132625836D01*
X138477326Y-133024699D01*
X138451453Y-133054201D01*
X138447742Y-133058251D01*
X138236025Y-133279413D01*
X137863473Y-133668586D01*
X137859586Y-133672473D01*
X137767821Y-133760319D01*
X137478264Y-134037510D01*
X137249254Y-134256739D01*
X137245205Y-134260449D01*
X137060922Y-134422061D01*
X136609945Y-134817557D01*
X136605733Y-134821090D01*
X135946827Y-135349918D01*
X135942466Y-135353265D01*
X135261065Y-135852889D01*
X135256596Y-135856018D01*
X134895305Y-136097425D01*
X134554060Y-136325437D01*
X134549436Y-136328383D01*
X133827077Y-136766722D01*
X133822372Y-136769439D01*
X133558897Y-136913986D01*
X133081569Y-137175857D01*
X133076692Y-137178395D01*
X132318927Y-137552083D01*
X132313945Y-137554406D01*
X131856375Y-137755742D01*
X131540585Y-137894693D01*
X131535526Y-137896789D01*
X130748028Y-138203030D01*
X130742892Y-138204900D01*
X130087671Y-138427317D01*
X129942808Y-138476491D01*
X129937565Y-138478144D01*
X129126420Y-138714571D01*
X129121115Y-138715993D01*
X128300388Y-138916824D01*
X128295050Y-138918008D01*
X127887286Y-138999117D01*
X127466371Y-139082841D01*
X127460958Y-139083796D01*
X126625854Y-139212332D01*
X126620405Y-139213049D01*
X125780523Y-139305030D01*
X125775055Y-139305509D01*
X124931950Y-139360768D01*
X124926469Y-139361008D01*
X124174060Y-139377426D01*
X124081749Y-139379440D01*
X124076251Y-139379440D01*
X123983940Y-139377426D01*
X123231531Y-139361008D01*
X123226050Y-139360768D01*
X122382945Y-139305509D01*
X122377477Y-139305030D01*
X121537595Y-139213049D01*
X121532146Y-139212332D01*
X120697042Y-139083796D01*
X120691629Y-139082841D01*
X120270714Y-138999117D01*
X119862950Y-138918008D01*
X119857612Y-138916824D01*
X119036885Y-138715993D01*
X119031580Y-138714571D01*
X118220435Y-138478144D01*
X118215192Y-138476491D01*
X118070329Y-138427317D01*
X117415108Y-138204900D01*
X117409972Y-138203030D01*
X116622474Y-137896789D01*
X116617415Y-137894693D01*
X116301625Y-137755742D01*
X115844055Y-137554406D01*
X115839073Y-137552083D01*
X115081308Y-137178395D01*
X115076431Y-137175857D01*
X114599103Y-136913986D01*
X114335628Y-136769439D01*
X114330923Y-136766722D01*
X113608564Y-136328383D01*
X113603940Y-136325437D01*
X113262695Y-136097425D01*
X112901404Y-135856018D01*
X112896935Y-135852889D01*
X112215534Y-135353265D01*
X112211173Y-135349918D01*
X111552267Y-134821090D01*
X111548055Y-134817557D01*
X111097078Y-134422061D01*
X110912795Y-134260449D01*
X110908746Y-134256739D01*
X110679737Y-134037510D01*
X110390179Y-133760319D01*
X110298414Y-133672473D01*
X110294527Y-133668586D01*
X109921975Y-133279413D01*
X109710258Y-133058251D01*
X109706547Y-133054201D01*
X109680675Y-133024699D01*
X109330881Y-132625836D01*
X109181475Y-132455471D01*
X110764986Y-132455471D01*
X110807877Y-132615544D01*
X110811623Y-132625836D01*
X110900005Y-132815370D01*
X110905483Y-132824856D01*
X111025425Y-132996152D01*
X111032479Y-133004559D01*
X111180337Y-133152417D01*
X111188745Y-133159473D01*
X111360037Y-133279413D01*
X111369533Y-133284896D01*
X111559062Y-133373275D01*
X111569354Y-133377021D01*
X111724452Y-133418579D01*
X111738548Y-133418243D01*
X111741949Y-133410301D01*
X111741949Y-132461064D01*
X111737474Y-132445825D01*
X111736084Y-132444620D01*
X111728401Y-132442949D01*
X110779746Y-132442949D01*
X110766215Y-132446922D01*
X110764986Y-132455471D01*
X109181475Y-132455471D01*
X109149443Y-132418945D01*
X109145910Y-132414733D01*
X108617082Y-131755827D01*
X108613735Y-131751466D01*
X108243350Y-131246325D01*
X108114111Y-131070065D01*
X108110982Y-131065596D01*
X107680399Y-130421182D01*
X107641563Y-130363060D01*
X107638609Y-130358424D01*
X107200278Y-129636077D01*
X107197561Y-129631372D01*
X106954384Y-129188118D01*
X106791143Y-128890569D01*
X106788605Y-128885692D01*
X106414917Y-128127927D01*
X106412594Y-128122945D01*
X106151594Y-127529779D01*
X106072307Y-127349585D01*
X106070207Y-127344516D01*
X106066094Y-127333939D01*
X105763970Y-126557028D01*
X105762095Y-126551877D01*
X105754541Y-126529622D01*
X105490509Y-125751808D01*
X105488856Y-125746565D01*
X105252429Y-124935420D01*
X105251006Y-124930111D01*
X105248689Y-124920643D01*
X105050176Y-124109388D01*
X105048989Y-124104035D01*
X105028246Y-123999749D01*
X104956549Y-123639304D01*
X104884159Y-123275371D01*
X104883204Y-123269958D01*
X104754668Y-122434854D01*
X104753951Y-122429403D01*
X104751662Y-122408500D01*
X104661970Y-121589523D01*
X104661491Y-121584051D01*
X104654186Y-121472594D01*
X104613192Y-120847134D01*
X107702500Y-120847134D01*
X107709255Y-120909316D01*
X107760385Y-121045705D01*
X107847739Y-121162261D01*
X107964295Y-121249615D01*
X108100684Y-121300745D01*
X108162866Y-121307500D01*
X109468682Y-121307500D01*
X109536803Y-121327502D01*
X109583296Y-121381158D01*
X109594682Y-121433500D01*
X109594682Y-129262828D01*
X109574680Y-129330949D01*
X109540954Y-129366040D01*
X109479766Y-129408884D01*
X109420655Y-129450274D01*
X109420652Y-129450276D01*
X109416144Y-129453433D01*
X109260433Y-129609144D01*
X109257276Y-129613652D01*
X109257274Y-129613655D01*
X109142116Y-129778118D01*
X109134126Y-129789529D01*
X109131803Y-129794511D01*
X109131800Y-129794516D01*
X109091106Y-129881786D01*
X109041062Y-129989106D01*
X108984067Y-130201811D01*
X108964875Y-130421182D01*
X108984067Y-130640553D01*
X109041062Y-130853258D01*
X109069275Y-130913761D01*
X109131800Y-131047848D01*
X109131803Y-131047853D01*
X109134126Y-131052835D01*
X109137282Y-131057342D01*
X109137283Y-131057344D01*
X109210629Y-131162092D01*
X109260433Y-131233220D01*
X109416144Y-131388931D01*
X109420653Y-131392088D01*
X109420655Y-131392090D01*
X109495423Y-131444443D01*
X109596528Y-131515238D01*
X109796106Y-131608302D01*
X110008811Y-131665297D01*
X110228182Y-131684489D01*
X110447553Y-131665297D01*
X110527789Y-131643797D01*
X110652963Y-131610257D01*
X110723940Y-131611947D01*
X110782736Y-131651741D01*
X110810684Y-131717005D01*
X110807282Y-131764575D01*
X110766319Y-131917452D01*
X110766655Y-131931548D01*
X110774597Y-131934949D01*
X111723834Y-131934949D01*
X111739073Y-131930474D01*
X111740278Y-131929084D01*
X111741949Y-131921401D01*
X111741949Y-130972746D01*
X111737976Y-130959215D01*
X111729427Y-130957986D01*
X111571575Y-131000282D01*
X111500598Y-130998592D01*
X111441803Y-130958798D01*
X111413855Y-130893533D01*
X111417257Y-130845963D01*
X111466439Y-130662416D01*
X111472297Y-130640553D01*
X111491489Y-130421182D01*
X111472297Y-130201811D01*
X111415302Y-129989106D01*
X111412978Y-129984123D01*
X111412974Y-129984111D01*
X111397990Y-129951977D01*
X111387329Y-129881786D01*
X111416310Y-129816973D01*
X111475730Y-129778118D01*
X111546725Y-129777556D01*
X111555284Y-129780330D01*
X111558893Y-129781644D01*
X111563873Y-129783966D01*
X111569176Y-129785387D01*
X111584634Y-129789529D01*
X111776578Y-129840961D01*
X111995949Y-129860153D01*
X112215320Y-129840961D01*
X112428025Y-129783966D01*
X112433007Y-129781643D01*
X112433015Y-129781640D01*
X112498656Y-129751031D01*
X112568847Y-129740370D01*
X112633660Y-129769350D01*
X112672516Y-129828770D01*
X112673079Y-129899765D01*
X112666100Y-129918475D01*
X112635491Y-129984116D01*
X112635488Y-129984124D01*
X112633165Y-129989106D01*
X112576170Y-130201811D01*
X112556978Y-130421182D01*
X112576170Y-130640553D01*
X112633165Y-130853258D01*
X112635489Y-130858242D01*
X112637044Y-130862514D01*
X112641547Y-130933368D01*
X112607030Y-130995409D01*
X112544450Y-131028939D01*
X112473677Y-131023313D01*
X112465392Y-131019804D01*
X112432841Y-131004625D01*
X112422544Y-131000877D01*
X112267446Y-130959319D01*
X112253350Y-130959655D01*
X112249949Y-130967597D01*
X112249949Y-131916834D01*
X112254424Y-131932073D01*
X112255814Y-131933278D01*
X112263497Y-131934949D01*
X113212152Y-131934949D01*
X113225683Y-131930976D01*
X113226912Y-131922427D01*
X113184021Y-131762354D01*
X113178789Y-131747980D01*
X113174286Y-131677126D01*
X113208804Y-131615086D01*
X113271384Y-131581556D01*
X113342157Y-131587182D01*
X113350436Y-131590688D01*
X113388209Y-131608302D01*
X113600914Y-131665297D01*
X113820285Y-131684489D01*
X114039656Y-131665297D01*
X114252361Y-131608302D01*
X114257341Y-131605980D01*
X114257346Y-131605978D01*
X114269993Y-131600080D01*
X114340184Y-131589419D01*
X114404997Y-131618399D01*
X114443854Y-131677818D01*
X114444417Y-131748813D01*
X114437438Y-131767525D01*
X114431540Y-131780172D01*
X114431538Y-131780177D01*
X114429216Y-131785157D01*
X114372221Y-131997862D01*
X114353029Y-132217233D01*
X114372221Y-132436604D01*
X114429216Y-132649309D01*
X114431538Y-132654289D01*
X114432852Y-132657898D01*
X114437358Y-132728751D01*
X114402843Y-132790793D01*
X114340264Y-132824325D01*
X114269490Y-132818702D01*
X114261205Y-132815192D01*
X114229071Y-132800208D01*
X114229059Y-132800204D01*
X114224076Y-132797880D01*
X114011371Y-132740885D01*
X113792000Y-132721693D01*
X113572629Y-132740885D01*
X113359924Y-132797880D01*
X113354942Y-132800203D01*
X113354934Y-132800206D01*
X113341587Y-132806430D01*
X113271395Y-132817091D01*
X113206583Y-132788110D01*
X113167727Y-132728690D01*
X113167164Y-132657696D01*
X113174144Y-132638983D01*
X113180275Y-132625836D01*
X113184021Y-132615544D01*
X113225579Y-132460446D01*
X113225243Y-132446350D01*
X113217301Y-132442949D01*
X112268064Y-132442949D01*
X112252825Y-132447424D01*
X112251620Y-132448814D01*
X112249949Y-132456497D01*
X112249949Y-133405152D01*
X112253922Y-133418683D01*
X112262471Y-133419912D01*
X112422544Y-133377021D01*
X112432836Y-133373275D01*
X112445983Y-133367144D01*
X112516175Y-133356482D01*
X112580988Y-133385461D01*
X112619845Y-133444880D01*
X112620410Y-133515874D01*
X112613430Y-133534587D01*
X112607206Y-133547934D01*
X112607203Y-133547942D01*
X112604880Y-133552924D01*
X112547885Y-133765629D01*
X112528693Y-133985000D01*
X112547885Y-134204371D01*
X112604880Y-134417076D01*
X112607205Y-134422061D01*
X112695618Y-134611666D01*
X112695621Y-134611671D01*
X112697944Y-134616653D01*
X112701100Y-134621160D01*
X112701101Y-134621162D01*
X112790331Y-134748595D01*
X112824251Y-134797038D01*
X112979962Y-134952749D01*
X113160346Y-135079056D01*
X113359924Y-135172120D01*
X113572629Y-135229115D01*
X113792000Y-135248307D01*
X114011371Y-135229115D01*
X114224076Y-135172120D01*
X114423654Y-135079056D01*
X114604038Y-134952749D01*
X114759749Y-134797038D01*
X114847142Y-134672228D01*
X114902598Y-134627901D01*
X114950354Y-134618500D01*
X118938406Y-134618500D01*
X119006527Y-134638502D01*
X119027501Y-134655405D01*
X119217595Y-134845499D01*
X119251621Y-134907811D01*
X119254500Y-134934594D01*
X119254500Y-136827233D01*
X119253973Y-136838416D01*
X119252298Y-136845909D01*
X119252547Y-136853835D01*
X119252547Y-136853836D01*
X119254438Y-136913986D01*
X119254500Y-136917945D01*
X119254500Y-136945856D01*
X119254997Y-136949790D01*
X119254997Y-136949791D01*
X119255005Y-136949856D01*
X119255938Y-136961693D01*
X119257327Y-137005889D01*
X119259732Y-137014166D01*
X119262978Y-137025339D01*
X119266987Y-137044700D01*
X119269526Y-137064797D01*
X119272445Y-137072168D01*
X119272445Y-137072170D01*
X119285804Y-137105912D01*
X119289649Y-137117142D01*
X119301982Y-137159593D01*
X119306015Y-137166412D01*
X119306017Y-137166417D01*
X119312293Y-137177028D01*
X119320988Y-137194776D01*
X119328448Y-137213617D01*
X119333110Y-137220033D01*
X119333110Y-137220034D01*
X119354436Y-137249387D01*
X119360952Y-137259307D01*
X119383458Y-137297362D01*
X119397779Y-137311683D01*
X119410619Y-137326716D01*
X119422528Y-137343107D01*
X119428634Y-137348158D01*
X119456605Y-137371298D01*
X119465384Y-137379288D01*
X120019343Y-137933247D01*
X120026887Y-137941537D01*
X120031000Y-137948018D01*
X120036777Y-137953443D01*
X120080667Y-137994658D01*
X120083509Y-137997413D01*
X120103231Y-138017135D01*
X120106355Y-138019558D01*
X120106359Y-138019562D01*
X120106424Y-138019612D01*
X120115445Y-138027317D01*
X120147679Y-138057586D01*
X120154627Y-138061405D01*
X120154629Y-138061407D01*
X120165432Y-138067346D01*
X120181959Y-138078202D01*
X120191698Y-138085757D01*
X120191700Y-138085758D01*
X120197960Y-138090614D01*
X120238540Y-138108174D01*
X120249188Y-138113391D01*
X120273976Y-138127018D01*
X120287940Y-138134695D01*
X120295616Y-138136666D01*
X120295619Y-138136667D01*
X120307562Y-138139733D01*
X120326267Y-138146137D01*
X120344855Y-138154181D01*
X120352678Y-138155420D01*
X120352688Y-138155423D01*
X120388524Y-138161099D01*
X120400144Y-138163505D01*
X120431959Y-138171673D01*
X120442970Y-138174500D01*
X120463224Y-138174500D01*
X120482934Y-138176051D01*
X120502943Y-138179220D01*
X120510835Y-138178474D01*
X120529580Y-138176702D01*
X120546962Y-138175059D01*
X120558819Y-138174500D01*
X121333233Y-138174500D01*
X121344416Y-138175027D01*
X121351909Y-138176702D01*
X121359835Y-138176453D01*
X121359836Y-138176453D01*
X121419986Y-138174562D01*
X121423945Y-138174500D01*
X121451856Y-138174500D01*
X121455791Y-138174003D01*
X121455856Y-138173995D01*
X121467693Y-138173062D01*
X121499951Y-138172048D01*
X121503970Y-138171922D01*
X121511889Y-138171673D01*
X121531343Y-138166021D01*
X121550700Y-138162013D01*
X121562930Y-138160468D01*
X121562931Y-138160468D01*
X121570797Y-138159474D01*
X121578168Y-138156555D01*
X121578170Y-138156555D01*
X121611912Y-138143196D01*
X121623142Y-138139351D01*
X121657983Y-138129229D01*
X121657984Y-138129229D01*
X121665593Y-138127018D01*
X121672412Y-138122985D01*
X121672417Y-138122983D01*
X121683028Y-138116707D01*
X121700776Y-138108012D01*
X121719617Y-138100552D01*
X121755387Y-138074564D01*
X121765307Y-138068048D01*
X121796535Y-138049580D01*
X121796538Y-138049578D01*
X121803362Y-138045542D01*
X121817683Y-138031221D01*
X121832717Y-138018380D01*
X121834431Y-138017135D01*
X121849107Y-138006472D01*
X121877298Y-137972395D01*
X121885288Y-137963616D01*
X123034499Y-136814405D01*
X123096811Y-136780379D01*
X123123594Y-136777500D01*
X127815800Y-136777500D01*
X127883921Y-136797502D01*
X127903147Y-136813843D01*
X127903420Y-136813540D01*
X127908332Y-136817963D01*
X127912747Y-136822866D01*
X127918758Y-136827233D01*
X128040877Y-136915958D01*
X128067248Y-136935118D01*
X128073276Y-136937802D01*
X128073278Y-136937803D01*
X128226203Y-137005889D01*
X128241712Y-137012794D01*
X128335112Y-137032647D01*
X128422056Y-137051128D01*
X128422061Y-137051128D01*
X128428513Y-137052500D01*
X128619487Y-137052500D01*
X128625939Y-137051128D01*
X128625944Y-137051128D01*
X128712888Y-137032647D01*
X128806288Y-137012794D01*
X128821797Y-137005889D01*
X128974722Y-136937803D01*
X128974724Y-136937802D01*
X128980752Y-136935118D01*
X129007124Y-136915958D01*
X129036157Y-136894864D01*
X129135253Y-136822866D01*
X129173509Y-136780379D01*
X129258619Y-136685854D01*
X129263040Y-136680944D01*
X129264082Y-136679140D01*
X129286454Y-136656053D01*
X129290935Y-136652577D01*
X129297758Y-136648542D01*
X129312079Y-136634221D01*
X129327113Y-136621380D01*
X129337090Y-136614131D01*
X129343503Y-136609472D01*
X129371694Y-136575395D01*
X129379684Y-136566616D01*
X132128747Y-133817553D01*
X132137037Y-133810009D01*
X132143518Y-133805896D01*
X132190159Y-133756228D01*
X132192913Y-133753387D01*
X132212634Y-133733666D01*
X132215112Y-133730471D01*
X132222818Y-133721449D01*
X132247658Y-133694997D01*
X132253086Y-133689217D01*
X132262846Y-133671464D01*
X132273699Y-133654941D01*
X132281253Y-133645202D01*
X132286113Y-133638937D01*
X132303676Y-133598353D01*
X132308883Y-133587723D01*
X132330195Y-133548956D01*
X132332166Y-133541279D01*
X132332168Y-133541274D01*
X132335232Y-133529338D01*
X132341638Y-133510626D01*
X132346534Y-133499313D01*
X132349681Y-133492041D01*
X132356597Y-133448377D01*
X132359004Y-133436756D01*
X132368028Y-133401607D01*
X132368028Y-133401606D01*
X132370000Y-133393926D01*
X132370000Y-133373665D01*
X132371551Y-133353954D01*
X132373479Y-133341781D01*
X132374719Y-133333953D01*
X132370559Y-133289942D01*
X132370000Y-133278085D01*
X132370000Y-133163524D01*
X132390002Y-133095403D01*
X132402358Y-133079221D01*
X132475540Y-132997944D01*
X132571027Y-132832556D01*
X132630042Y-132650928D01*
X132630771Y-132643998D01*
X132649314Y-132467565D01*
X132650004Y-132461000D01*
X132645141Y-132414733D01*
X132630732Y-132277635D01*
X132630732Y-132277633D01*
X132630042Y-132271072D01*
X132571027Y-132089444D01*
X132475540Y-131924056D01*
X132402363Y-131842785D01*
X132371647Y-131778779D01*
X132370000Y-131758476D01*
X132370000Y-131595094D01*
X132390002Y-131526973D01*
X132406905Y-131505999D01*
X133549845Y-130363060D01*
X134694753Y-129218152D01*
X134703039Y-129210612D01*
X134709518Y-129206500D01*
X134756144Y-129156848D01*
X134758898Y-129154007D01*
X134778635Y-129134270D01*
X134781115Y-129131073D01*
X134788820Y-129122051D01*
X134813659Y-129095600D01*
X134819086Y-129089821D01*
X134822905Y-129082875D01*
X134822907Y-129082872D01*
X134828848Y-129072066D01*
X134839699Y-129055547D01*
X134847258Y-129045801D01*
X134852114Y-129039541D01*
X134855259Y-129032272D01*
X134855262Y-129032268D01*
X134869674Y-128998963D01*
X134874891Y-128988313D01*
X134896195Y-128949560D01*
X134901233Y-128929937D01*
X134907637Y-128911234D01*
X134912533Y-128899920D01*
X134912533Y-128899919D01*
X134915681Y-128892645D01*
X134916920Y-128884822D01*
X134916923Y-128884812D01*
X134922599Y-128848976D01*
X134925005Y-128837356D01*
X134934028Y-128802211D01*
X134934028Y-128802210D01*
X134936000Y-128794530D01*
X134936000Y-128774276D01*
X134937551Y-128754565D01*
X134939480Y-128742386D01*
X134940720Y-128734557D01*
X134936559Y-128690538D01*
X134936000Y-128678681D01*
X134936000Y-125600094D01*
X134956002Y-125531973D01*
X134972905Y-125510999D01*
X137425253Y-123058652D01*
X137433539Y-123051112D01*
X137440018Y-123047000D01*
X137486644Y-122997348D01*
X137489398Y-122994507D01*
X137509135Y-122974770D01*
X137511615Y-122971573D01*
X137519320Y-122962551D01*
X137549586Y-122930321D01*
X137553405Y-122923375D01*
X137553407Y-122923372D01*
X137559348Y-122912566D01*
X137570199Y-122896047D01*
X137577758Y-122886301D01*
X137582614Y-122880041D01*
X137585759Y-122872772D01*
X137585762Y-122872768D01*
X137600174Y-122839463D01*
X137605391Y-122828813D01*
X137626695Y-122790060D01*
X137631733Y-122770437D01*
X137638137Y-122751734D01*
X137643033Y-122740420D01*
X137643033Y-122740419D01*
X137646181Y-122733145D01*
X137647420Y-122725322D01*
X137647423Y-122725312D01*
X137653099Y-122689476D01*
X137655505Y-122677856D01*
X137664528Y-122642711D01*
X137664528Y-122642710D01*
X137666500Y-122635030D01*
X137666500Y-122614776D01*
X137668051Y-122595065D01*
X137669980Y-122582886D01*
X137671220Y-122575057D01*
X137667059Y-122531038D01*
X137666500Y-122519181D01*
X137666500Y-121433000D01*
X137686502Y-121364879D01*
X137740158Y-121318386D01*
X137792500Y-121307000D01*
X138538885Y-121307000D01*
X138554124Y-121302525D01*
X138555329Y-121301135D01*
X138557000Y-121293452D01*
X138557000Y-121288884D01*
X139065000Y-121288884D01*
X139069475Y-121304123D01*
X139070865Y-121305328D01*
X139078548Y-121306999D01*
X140155669Y-121306999D01*
X140162490Y-121306629D01*
X140213352Y-121301105D01*
X140228604Y-121297479D01*
X140349054Y-121252324D01*
X140364649Y-121243786D01*
X140466724Y-121167285D01*
X140479285Y-121154724D01*
X140555786Y-121052649D01*
X140564324Y-121037054D01*
X140609478Y-120916606D01*
X140613105Y-120901351D01*
X140618631Y-120850486D01*
X140619000Y-120843672D01*
X140619000Y-119271115D01*
X140614525Y-119255876D01*
X140613135Y-119254671D01*
X140605452Y-119253000D01*
X139083115Y-119253000D01*
X139067876Y-119257475D01*
X139066671Y-119258865D01*
X139065000Y-119266548D01*
X139065000Y-121288884D01*
X138557000Y-121288884D01*
X138557000Y-118726885D01*
X139065000Y-118726885D01*
X139069475Y-118742124D01*
X139070865Y-118743329D01*
X139078548Y-118745000D01*
X140600884Y-118745000D01*
X140616123Y-118740525D01*
X140617328Y-118739135D01*
X140618999Y-118731452D01*
X140618999Y-117154331D01*
X140618629Y-117147510D01*
X140613105Y-117096648D01*
X140609479Y-117081396D01*
X140564324Y-116960946D01*
X140555786Y-116945351D01*
X140479285Y-116843276D01*
X140466724Y-116830715D01*
X140364649Y-116754214D01*
X140349054Y-116745676D01*
X140228606Y-116700522D01*
X140213351Y-116696895D01*
X140162486Y-116691369D01*
X140155672Y-116691000D01*
X139083115Y-116691000D01*
X139067876Y-116695475D01*
X139066671Y-116696865D01*
X139065000Y-116704548D01*
X139065000Y-118726885D01*
X138557000Y-118726885D01*
X138557000Y-116709116D01*
X138552525Y-116693877D01*
X138551135Y-116692672D01*
X138543452Y-116691001D01*
X137792500Y-116691001D01*
X137724379Y-116670999D01*
X137677886Y-116617343D01*
X137666500Y-116565001D01*
X137666500Y-113489767D01*
X137667027Y-113478584D01*
X137668702Y-113471091D01*
X137666562Y-113403014D01*
X137666500Y-113399055D01*
X137666500Y-113371144D01*
X137665995Y-113367144D01*
X137665062Y-113355301D01*
X137663922Y-113319029D01*
X137663673Y-113311110D01*
X137658022Y-113291658D01*
X137654014Y-113272306D01*
X137652467Y-113260063D01*
X137651474Y-113252203D01*
X137639324Y-113221514D01*
X137635200Y-113211097D01*
X137631355Y-113199870D01*
X137630721Y-113197687D01*
X137619018Y-113157407D01*
X137614984Y-113150585D01*
X137614981Y-113150579D01*
X137608706Y-113139968D01*
X137600010Y-113122218D01*
X137595472Y-113110756D01*
X137595469Y-113110751D01*
X137592552Y-113103383D01*
X137566573Y-113067625D01*
X137560057Y-113057707D01*
X137541575Y-113026457D01*
X137537542Y-113019637D01*
X137523218Y-113005313D01*
X137510376Y-112990278D01*
X137498472Y-112973893D01*
X137464406Y-112945711D01*
X137455627Y-112937722D01*
X133218652Y-108700747D01*
X133211112Y-108692461D01*
X133207000Y-108685982D01*
X133157348Y-108639356D01*
X133154507Y-108636602D01*
X133134770Y-108616865D01*
X133131573Y-108614385D01*
X133122551Y-108606680D01*
X133109116Y-108594064D01*
X133090321Y-108576414D01*
X133083375Y-108572595D01*
X133083372Y-108572593D01*
X133072566Y-108566652D01*
X133056047Y-108555801D01*
X133055583Y-108555441D01*
X133040041Y-108543386D01*
X133032772Y-108540241D01*
X133032768Y-108540238D01*
X132999463Y-108525826D01*
X132988813Y-108520609D01*
X132950060Y-108499305D01*
X132930437Y-108494267D01*
X132911734Y-108487863D01*
X132900420Y-108482967D01*
X132900419Y-108482967D01*
X132893145Y-108479819D01*
X132885322Y-108478580D01*
X132885312Y-108478577D01*
X132849476Y-108472901D01*
X132837856Y-108470495D01*
X132802711Y-108461472D01*
X132802710Y-108461472D01*
X132795030Y-108459500D01*
X132774776Y-108459500D01*
X132755065Y-108457949D01*
X132742886Y-108456020D01*
X132735057Y-108454780D01*
X132705786Y-108457547D01*
X132691039Y-108458941D01*
X132679181Y-108459500D01*
X131269767Y-108459500D01*
X131258584Y-108458973D01*
X131251091Y-108457298D01*
X131243165Y-108457547D01*
X131243164Y-108457547D01*
X131183014Y-108459438D01*
X131179055Y-108459500D01*
X131151144Y-108459500D01*
X131147210Y-108459997D01*
X131147209Y-108459997D01*
X131147144Y-108460005D01*
X131135307Y-108460938D01*
X131103490Y-108461938D01*
X131099029Y-108462078D01*
X131091110Y-108462327D01*
X131073454Y-108467456D01*
X131071658Y-108467978D01*
X131052306Y-108471986D01*
X131045235Y-108472880D01*
X131032203Y-108474526D01*
X131024834Y-108477443D01*
X131024832Y-108477444D01*
X130991097Y-108490800D01*
X130979869Y-108494645D01*
X130937407Y-108506982D01*
X130930585Y-108511016D01*
X130930579Y-108511019D01*
X130919968Y-108517294D01*
X130902218Y-108525990D01*
X130890756Y-108530528D01*
X130890751Y-108530531D01*
X130883383Y-108533448D01*
X130865970Y-108546099D01*
X130847625Y-108559427D01*
X130837707Y-108565943D01*
X130826463Y-108572593D01*
X130799637Y-108588458D01*
X130785313Y-108602782D01*
X130770281Y-108615621D01*
X130753893Y-108627528D01*
X130725712Y-108661593D01*
X130717722Y-108670373D01*
X129695500Y-109692595D01*
X129633188Y-109726621D01*
X129606405Y-109729500D01*
X121739200Y-109729500D01*
X121671079Y-109709498D01*
X121651853Y-109693157D01*
X121651580Y-109693460D01*
X121646668Y-109689037D01*
X121642253Y-109684134D01*
X121487752Y-109571882D01*
X121481724Y-109569198D01*
X121481722Y-109569197D01*
X121319319Y-109496891D01*
X121319318Y-109496891D01*
X121313288Y-109494206D01*
X121219887Y-109474353D01*
X121132944Y-109455872D01*
X121132939Y-109455872D01*
X121126487Y-109454500D01*
X120935513Y-109454500D01*
X120929061Y-109455872D01*
X120929056Y-109455872D01*
X120842113Y-109474353D01*
X120748712Y-109494206D01*
X120742682Y-109496891D01*
X120742681Y-109496891D01*
X120580278Y-109569197D01*
X120580276Y-109569198D01*
X120574248Y-109571882D01*
X120419747Y-109684134D01*
X120415332Y-109689037D01*
X120410420Y-109693460D01*
X120409295Y-109692211D01*
X120355986Y-109725051D01*
X120322800Y-109729500D01*
X118823763Y-109729500D01*
X118812579Y-109728973D01*
X118805091Y-109727299D01*
X118797168Y-109727548D01*
X118737033Y-109729438D01*
X118733075Y-109729500D01*
X118705144Y-109729500D01*
X118701229Y-109729995D01*
X118701225Y-109729995D01*
X118701167Y-109730003D01*
X118701138Y-109730006D01*
X118689296Y-109730939D01*
X118645110Y-109732327D01*
X118627744Y-109737372D01*
X118625658Y-109737978D01*
X118606306Y-109741986D01*
X118594068Y-109743532D01*
X118594066Y-109743533D01*
X118586203Y-109744526D01*
X118545086Y-109760806D01*
X118533885Y-109764641D01*
X118491406Y-109776982D01*
X118484587Y-109781015D01*
X118484582Y-109781017D01*
X118473971Y-109787293D01*
X118456221Y-109795990D01*
X118437383Y-109803448D01*
X118430967Y-109808109D01*
X118430966Y-109808110D01*
X118401625Y-109829428D01*
X118391701Y-109835947D01*
X118360460Y-109854422D01*
X118360455Y-109854426D01*
X118353637Y-109858458D01*
X118339313Y-109872782D01*
X118324281Y-109885621D01*
X118307893Y-109897528D01*
X118279712Y-109931593D01*
X118271722Y-109940373D01*
X114418011Y-113794084D01*
X114355699Y-113828110D01*
X114328916Y-113830989D01*
X113325278Y-113830989D01*
X113314095Y-113830462D01*
X113306602Y-113828787D01*
X113298676Y-113829036D01*
X113298675Y-113829036D01*
X113238525Y-113830927D01*
X113234566Y-113830989D01*
X113206655Y-113830989D01*
X113202721Y-113831486D01*
X113202720Y-113831486D01*
X113202655Y-113831494D01*
X113190818Y-113832427D01*
X113159001Y-113833427D01*
X113154540Y-113833567D01*
X113146621Y-113833816D01*
X113128965Y-113838945D01*
X113127169Y-113839467D01*
X113107817Y-113843475D01*
X113100746Y-113844369D01*
X113087714Y-113846015D01*
X113080345Y-113848932D01*
X113080343Y-113848933D01*
X113046608Y-113862289D01*
X113035380Y-113866134D01*
X112992918Y-113878471D01*
X112986096Y-113882505D01*
X112986090Y-113882508D01*
X112975479Y-113888783D01*
X112957729Y-113897479D01*
X112946267Y-113902017D01*
X112946262Y-113902020D01*
X112938894Y-113904937D01*
X112932479Y-113909598D01*
X112903136Y-113930916D01*
X112893218Y-113937432D01*
X112874530Y-113948484D01*
X112855148Y-113959947D01*
X112840824Y-113974271D01*
X112825792Y-113987110D01*
X112809404Y-113999017D01*
X112786426Y-114026793D01*
X112781223Y-114033082D01*
X112773233Y-114041862D01*
X112571500Y-114243595D01*
X112509188Y-114277621D01*
X112482405Y-114280500D01*
X112426513Y-114280500D01*
X112420061Y-114281872D01*
X112420056Y-114281872D01*
X112333113Y-114300353D01*
X112239712Y-114320206D01*
X112233682Y-114322891D01*
X112233681Y-114322891D01*
X112071278Y-114395197D01*
X112071276Y-114395198D01*
X112065248Y-114397882D01*
X112059907Y-114401762D01*
X112059906Y-114401763D01*
X112024561Y-114427443D01*
X111957694Y-114451301D01*
X111888542Y-114435221D01*
X111876439Y-114427443D01*
X111841094Y-114401763D01*
X111841093Y-114401762D01*
X111835752Y-114397882D01*
X111829724Y-114395198D01*
X111829722Y-114395197D01*
X111667319Y-114322891D01*
X111667318Y-114322891D01*
X111661288Y-114320206D01*
X111567887Y-114300353D01*
X111480944Y-114281872D01*
X111480939Y-114281872D01*
X111474487Y-114280500D01*
X111283513Y-114280500D01*
X111277061Y-114281872D01*
X111277056Y-114281872D01*
X111190113Y-114300353D01*
X111096712Y-114320206D01*
X111090682Y-114322891D01*
X111090681Y-114322891D01*
X110928278Y-114395197D01*
X110928276Y-114395198D01*
X110922248Y-114397882D01*
X110767747Y-114510134D01*
X110639960Y-114652056D01*
X110544473Y-114817444D01*
X110485458Y-114999072D01*
X110465496Y-115189000D01*
X110485458Y-115378928D01*
X110544473Y-115560556D01*
X110639960Y-115725944D01*
X110713137Y-115807215D01*
X110743853Y-115871221D01*
X110745500Y-115891524D01*
X110745500Y-116564500D01*
X110725498Y-116632621D01*
X110671842Y-116679114D01*
X110619500Y-116690500D01*
X108162866Y-116690500D01*
X108100684Y-116697255D01*
X107964295Y-116748385D01*
X107847739Y-116835739D01*
X107760385Y-116952295D01*
X107709255Y-117088684D01*
X107702500Y-117150866D01*
X107702500Y-120847134D01*
X104613192Y-120847134D01*
X104606232Y-120740950D01*
X104605992Y-120735463D01*
X104599324Y-120429852D01*
X104587560Y-119890749D01*
X104587560Y-119885251D01*
X104599216Y-119351056D01*
X104605992Y-119040531D01*
X104606232Y-119035045D01*
X104625243Y-118745000D01*
X104661491Y-118191945D01*
X104661970Y-118186473D01*
X104667214Y-118138595D01*
X104753951Y-117346595D01*
X104754668Y-117341146D01*
X104883204Y-116506042D01*
X104884159Y-116500629D01*
X104999741Y-115919554D01*
X105048992Y-115671950D01*
X105050179Y-115666597D01*
X105060397Y-115624842D01*
X105251007Y-114845885D01*
X105252429Y-114840580D01*
X105488856Y-114029435D01*
X105490509Y-114024192D01*
X105544724Y-113864478D01*
X105762100Y-113224108D01*
X105763975Y-113218957D01*
X105794693Y-113139968D01*
X106070211Y-112431474D01*
X106072311Y-112426405D01*
X106086763Y-112393562D01*
X106412594Y-111653055D01*
X106414917Y-111648073D01*
X106788605Y-110890308D01*
X106791143Y-110885431D01*
X107048730Y-110415911D01*
X107197561Y-110144628D01*
X107200278Y-110139923D01*
X107638617Y-109417564D01*
X107641563Y-109412940D01*
X108006953Y-108866094D01*
X108110982Y-108710404D01*
X108114111Y-108705935D01*
X108613735Y-108024534D01*
X108617082Y-108020173D01*
X109145910Y-107361267D01*
X109149443Y-107357055D01*
X109706547Y-106721799D01*
X109710261Y-106717746D01*
X110294527Y-106107414D01*
X110298414Y-106103527D01*
X110693824Y-105725004D01*
X110908749Y-105519258D01*
X110912799Y-105515547D01*
X111548055Y-104958443D01*
X111552267Y-104954910D01*
X112211173Y-104426082D01*
X112215534Y-104422735D01*
X112724243Y-104049734D01*
X112896935Y-103923111D01*
X112901404Y-103919982D01*
X113133796Y-103764703D01*
X121995143Y-103764703D01*
X122032668Y-104049734D01*
X122108529Y-104327036D01*
X122110213Y-104330984D01*
X122150039Y-104424353D01*
X122221323Y-104591476D01*
X122368961Y-104838161D01*
X122548713Y-105062528D01*
X122757251Y-105260423D01*
X122990717Y-105428186D01*
X122994512Y-105430195D01*
X122994513Y-105430196D01*
X123016269Y-105441715D01*
X123244792Y-105562712D01*
X123514773Y-105661511D01*
X123795664Y-105722755D01*
X123824241Y-105725004D01*
X124018682Y-105740307D01*
X124018691Y-105740307D01*
X124021139Y-105740500D01*
X124176671Y-105740500D01*
X124178807Y-105740354D01*
X124178818Y-105740354D01*
X124386948Y-105726165D01*
X124386954Y-105726164D01*
X124391225Y-105725873D01*
X124395420Y-105725004D01*
X124395422Y-105725004D01*
X124531983Y-105696724D01*
X124672742Y-105667574D01*
X124943743Y-105571607D01*
X125199212Y-105439750D01*
X125202713Y-105437289D01*
X125202717Y-105437287D01*
X125316817Y-105357096D01*
X125434423Y-105274441D01*
X125645022Y-105078740D01*
X125827113Y-104856268D01*
X125977327Y-104611142D01*
X126092883Y-104347898D01*
X126171644Y-104071406D01*
X126212151Y-103786784D01*
X126212245Y-103768951D01*
X126213635Y-103503583D01*
X126213635Y-103503576D01*
X126213657Y-103499297D01*
X126176132Y-103214266D01*
X126100271Y-102936964D01*
X125987477Y-102672524D01*
X125839839Y-102425839D01*
X125660087Y-102201472D01*
X125451549Y-102003577D01*
X125218083Y-101835814D01*
X125196243Y-101824250D01*
X125173054Y-101811972D01*
X124964008Y-101701288D01*
X124694027Y-101602489D01*
X124413136Y-101541245D01*
X124382085Y-101538801D01*
X124190118Y-101523693D01*
X124190109Y-101523693D01*
X124187661Y-101523500D01*
X124032129Y-101523500D01*
X124029993Y-101523646D01*
X124029982Y-101523646D01*
X123821852Y-101537835D01*
X123821846Y-101537836D01*
X123817575Y-101538127D01*
X123813380Y-101538996D01*
X123813378Y-101538996D01*
X123676816Y-101567277D01*
X123536058Y-101596426D01*
X123265057Y-101692393D01*
X123009588Y-101824250D01*
X123006087Y-101826711D01*
X123006083Y-101826713D01*
X122995994Y-101833804D01*
X122774377Y-101989559D01*
X122563778Y-102185260D01*
X122381687Y-102407732D01*
X122231473Y-102652858D01*
X122115917Y-102916102D01*
X122037156Y-103192594D01*
X122034072Y-103214266D01*
X122000660Y-103449036D01*
X121996649Y-103477216D01*
X121996627Y-103481505D01*
X121996626Y-103481512D01*
X121995165Y-103760417D01*
X121995143Y-103764703D01*
X113133796Y-103764703D01*
X113603940Y-103450563D01*
X113608564Y-103447617D01*
X114330923Y-103009278D01*
X114335628Y-103006561D01*
X114937294Y-102676476D01*
X115076431Y-102600143D01*
X115081308Y-102597605D01*
X115839073Y-102223917D01*
X115844055Y-102221594D01*
X116345224Y-102001074D01*
X116617415Y-101881307D01*
X116622474Y-101879211D01*
X117409972Y-101572970D01*
X117415108Y-101571100D01*
X118215192Y-101299509D01*
X118220435Y-101297856D01*
X119031580Y-101061429D01*
X119036889Y-101060006D01*
X119857612Y-100859176D01*
X119862950Y-100857992D01*
X120270714Y-100776883D01*
X120691629Y-100693159D01*
X120697042Y-100692204D01*
X121532146Y-100563668D01*
X121537597Y-100562951D01*
X122377477Y-100470970D01*
X122382945Y-100470491D01*
X123226050Y-100415232D01*
X123231531Y-100414992D01*
X123983940Y-100398574D01*
X124076251Y-100396560D01*
X124081749Y-100396560D01*
X124174060Y-100398574D01*
G37*
G04 #@! TD.AperFunction*
G04 #@! TA.AperFunction,Conductor*
G36*
X132124032Y-111446038D02*
G01*
X132169095Y-111474999D01*
X134965595Y-114271499D01*
X134999621Y-114333811D01*
X135002500Y-114360594D01*
X135002500Y-116899476D01*
X134982498Y-116967597D01*
X134970142Y-116983779D01*
X134896960Y-117065056D01*
X134801473Y-117230444D01*
X134742458Y-117412072D01*
X134741768Y-117418633D01*
X134741768Y-117418635D01*
X134733555Y-117496780D01*
X134722496Y-117602000D01*
X134742458Y-117791928D01*
X134801473Y-117973556D01*
X134896960Y-118138944D01*
X134901378Y-118143851D01*
X134901379Y-118143852D01*
X135020325Y-118275955D01*
X135024747Y-118280866D01*
X135056697Y-118304079D01*
X135171425Y-118387434D01*
X135179248Y-118393118D01*
X135185276Y-118395802D01*
X135185278Y-118395803D01*
X135347681Y-118468109D01*
X135353712Y-118470794D01*
X135422056Y-118485321D01*
X135534056Y-118509128D01*
X135534061Y-118509128D01*
X135540513Y-118510500D01*
X135638500Y-118510500D01*
X135706621Y-118530502D01*
X135753114Y-118584158D01*
X135764500Y-118636500D01*
X135764500Y-121732405D01*
X135744498Y-121800526D01*
X135727595Y-121821500D01*
X135177500Y-122371595D01*
X135115188Y-122405621D01*
X135088405Y-122408500D01*
X135032513Y-122408500D01*
X135026061Y-122409872D01*
X135026056Y-122409872D01*
X134939112Y-122428353D01*
X134845712Y-122448206D01*
X134839682Y-122450891D01*
X134839681Y-122450891D01*
X134677278Y-122523197D01*
X134677276Y-122523198D01*
X134671248Y-122525882D01*
X134516747Y-122638134D01*
X134512326Y-122643044D01*
X134512325Y-122643045D01*
X134406268Y-122760834D01*
X134388960Y-122780056D01*
X134293473Y-122945444D01*
X134234458Y-123127072D01*
X134233768Y-123133633D01*
X134233768Y-123133635D01*
X134217093Y-123292292D01*
X134190080Y-123357949D01*
X134180878Y-123368217D01*
X133112047Y-124437048D01*
X133103761Y-124444588D01*
X133097282Y-124448700D01*
X133091857Y-124454477D01*
X133050657Y-124498351D01*
X133047902Y-124501193D01*
X133028165Y-124520930D01*
X133025685Y-124524127D01*
X133017982Y-124533147D01*
X132987714Y-124565379D01*
X132983895Y-124572325D01*
X132983893Y-124572328D01*
X132977952Y-124583134D01*
X132967101Y-124599653D01*
X132954686Y-124615659D01*
X132951541Y-124622928D01*
X132951538Y-124622932D01*
X132937126Y-124656237D01*
X132931909Y-124666887D01*
X132910605Y-124705640D01*
X132908634Y-124713315D01*
X132908634Y-124713316D01*
X132905567Y-124725262D01*
X132899163Y-124743966D01*
X132891119Y-124762555D01*
X132889880Y-124770378D01*
X132889877Y-124770388D01*
X132884201Y-124806224D01*
X132881795Y-124817844D01*
X132870800Y-124860670D01*
X132870800Y-124880924D01*
X132869249Y-124900634D01*
X132866080Y-124920643D01*
X132866826Y-124928535D01*
X132870241Y-124964661D01*
X132870800Y-124976519D01*
X132870800Y-127694476D01*
X132850798Y-127762597D01*
X132838442Y-127778779D01*
X132765260Y-127860056D01*
X132669773Y-128025444D01*
X132610758Y-128207072D01*
X132610068Y-128213633D01*
X132610068Y-128213635D01*
X132593393Y-128372293D01*
X132566380Y-128437950D01*
X132557178Y-128448218D01*
X131555121Y-129450274D01*
X130619247Y-130386148D01*
X130610961Y-130393688D01*
X130604482Y-130397800D01*
X130599057Y-130403577D01*
X130557857Y-130447451D01*
X130555102Y-130450293D01*
X130535365Y-130470030D01*
X130532885Y-130473227D01*
X130525182Y-130482247D01*
X130494914Y-130514479D01*
X130491095Y-130521425D01*
X130491093Y-130521428D01*
X130485152Y-130532234D01*
X130474301Y-130548753D01*
X130461886Y-130564759D01*
X130458741Y-130572028D01*
X130458738Y-130572032D01*
X130444326Y-130605337D01*
X130439109Y-130615987D01*
X130417805Y-130654740D01*
X130415834Y-130662415D01*
X130415834Y-130662416D01*
X130412767Y-130674362D01*
X130406363Y-130693066D01*
X130398319Y-130711655D01*
X130397080Y-130719478D01*
X130397077Y-130719488D01*
X130391401Y-130755324D01*
X130388995Y-130766944D01*
X130378000Y-130809770D01*
X130378000Y-130830024D01*
X130376449Y-130849734D01*
X130373280Y-130869743D01*
X130374026Y-130877635D01*
X130377441Y-130913761D01*
X130378000Y-130925619D01*
X130378000Y-132706906D01*
X130357998Y-132775027D01*
X130341095Y-132796001D01*
X128388500Y-134748595D01*
X128326188Y-134782621D01*
X128299405Y-134785500D01*
X124303594Y-134785500D01*
X124235473Y-134765498D01*
X124214499Y-134748595D01*
X121978122Y-132512217D01*
X121944096Y-132449905D01*
X121941907Y-132436292D01*
X121925232Y-132277635D01*
X121925232Y-132277633D01*
X121924542Y-132271072D01*
X121865527Y-132089444D01*
X121770040Y-131924056D01*
X121642253Y-131782134D01*
X121507857Y-131684489D01*
X121493094Y-131673763D01*
X121493093Y-131673762D01*
X121487752Y-131669882D01*
X121481724Y-131667198D01*
X121481722Y-131667197D01*
X121319319Y-131594891D01*
X121319318Y-131594891D01*
X121313288Y-131592206D01*
X121219887Y-131572353D01*
X121132944Y-131553872D01*
X121132939Y-131553872D01*
X121126487Y-131552500D01*
X120935513Y-131552500D01*
X120929061Y-131553872D01*
X120929056Y-131553872D01*
X120842113Y-131572353D01*
X120748712Y-131592206D01*
X120742682Y-131594891D01*
X120742681Y-131594891D01*
X120719725Y-131605112D01*
X120709364Y-131609725D01*
X120698749Y-131614451D01*
X120628382Y-131623885D01*
X120564085Y-131593779D01*
X120526271Y-131533690D01*
X120521500Y-131499344D01*
X120521500Y-129358656D01*
X120541502Y-129290535D01*
X120595158Y-129244042D01*
X120665432Y-129233938D01*
X120698748Y-129243549D01*
X120748712Y-129265794D01*
X120842112Y-129285647D01*
X120929056Y-129304128D01*
X120929061Y-129304128D01*
X120935513Y-129305500D01*
X121126487Y-129305500D01*
X121132939Y-129304128D01*
X121132944Y-129304128D01*
X121219888Y-129285647D01*
X121313288Y-129265794D01*
X121362144Y-129244042D01*
X121481722Y-129190803D01*
X121481724Y-129190802D01*
X121487752Y-129188118D01*
X121642253Y-129075866D01*
X121770040Y-128933944D01*
X121865527Y-128768556D01*
X121924542Y-128586928D01*
X121944504Y-128397000D01*
X121941907Y-128372293D01*
X121925232Y-128213635D01*
X121925232Y-128213633D01*
X121924542Y-128207072D01*
X121865527Y-128025444D01*
X121770040Y-127860056D01*
X121702287Y-127784808D01*
X121646675Y-127723045D01*
X121646674Y-127723044D01*
X121642253Y-127718134D01*
X121487752Y-127605882D01*
X121481724Y-127603198D01*
X121481722Y-127603197D01*
X121319319Y-127530891D01*
X121319318Y-127530891D01*
X121313288Y-127528206D01*
X121183973Y-127500719D01*
X121132944Y-127489872D01*
X121132939Y-127489872D01*
X121126487Y-127488500D01*
X120935513Y-127488500D01*
X120929061Y-127489872D01*
X120929056Y-127489872D01*
X120878027Y-127500719D01*
X120748712Y-127528206D01*
X120742682Y-127530891D01*
X120742681Y-127530891D01*
X120698749Y-127550451D01*
X120628382Y-127559885D01*
X120564085Y-127529779D01*
X120526271Y-127469690D01*
X120521500Y-127435344D01*
X120521500Y-124278656D01*
X120541502Y-124210535D01*
X120595158Y-124164042D01*
X120665432Y-124153938D01*
X120698748Y-124163549D01*
X120748712Y-124185794D01*
X120842112Y-124205647D01*
X120929056Y-124224128D01*
X120929061Y-124224128D01*
X120935513Y-124225500D01*
X121126487Y-124225500D01*
X121132939Y-124224128D01*
X121132944Y-124224128D01*
X121219888Y-124205647D01*
X121313288Y-124185794D01*
X121362144Y-124164042D01*
X121481722Y-124110803D01*
X121481724Y-124110802D01*
X121487752Y-124108118D01*
X121642253Y-123995866D01*
X121770040Y-123853944D01*
X121865527Y-123688556D01*
X121924542Y-123506928D01*
X121929625Y-123458571D01*
X121943814Y-123323565D01*
X121944504Y-123317000D01*
X121924542Y-123127072D01*
X121865527Y-122945444D01*
X121770040Y-122780056D01*
X121696863Y-122698785D01*
X121666147Y-122634779D01*
X121664500Y-122614476D01*
X121664500Y-119186595D01*
X121684502Y-119118474D01*
X121701405Y-119097499D01*
X122185258Y-118613647D01*
X122193537Y-118606113D01*
X122200018Y-118602000D01*
X122246644Y-118552348D01*
X122249398Y-118549507D01*
X122269135Y-118529770D01*
X122271615Y-118526573D01*
X122279320Y-118517551D01*
X122304159Y-118491100D01*
X122309586Y-118485321D01*
X122313405Y-118478375D01*
X122313407Y-118478372D01*
X122319348Y-118467566D01*
X122330199Y-118451047D01*
X122337758Y-118441301D01*
X122342614Y-118435041D01*
X122345759Y-118427772D01*
X122345762Y-118427768D01*
X122360174Y-118394463D01*
X122365391Y-118383813D01*
X122386695Y-118345060D01*
X122391733Y-118325437D01*
X122398137Y-118306734D01*
X122403033Y-118295420D01*
X122403033Y-118295419D01*
X122406181Y-118288145D01*
X122407420Y-118280322D01*
X122407423Y-118280312D01*
X122413099Y-118244476D01*
X122415505Y-118232856D01*
X122424528Y-118197711D01*
X122424528Y-118197710D01*
X122426500Y-118190030D01*
X122426500Y-118169776D01*
X122428051Y-118150065D01*
X122429980Y-118137886D01*
X122431220Y-118130057D01*
X122427059Y-118086038D01*
X122426500Y-118074181D01*
X122426500Y-117172768D01*
X122427027Y-117161585D01*
X122428702Y-117154092D01*
X122426562Y-117086001D01*
X122426500Y-117082044D01*
X122426500Y-117054144D01*
X122425996Y-117050153D01*
X122425063Y-117038311D01*
X122423923Y-117002036D01*
X122423674Y-116994111D01*
X122421462Y-116986497D01*
X122421461Y-116986492D01*
X122418023Y-116974659D01*
X122414012Y-116955295D01*
X122412467Y-116943064D01*
X122411474Y-116935203D01*
X122408557Y-116927836D01*
X122408556Y-116927831D01*
X122395198Y-116894092D01*
X122391354Y-116882865D01*
X122381230Y-116848022D01*
X122379018Y-116840407D01*
X122368707Y-116822972D01*
X122360012Y-116805224D01*
X122352552Y-116786383D01*
X122343261Y-116773594D01*
X122326564Y-116750613D01*
X122320048Y-116740693D01*
X122301580Y-116709465D01*
X122301578Y-116709462D01*
X122297542Y-116702638D01*
X122283221Y-116688317D01*
X122270380Y-116673283D01*
X122263132Y-116663307D01*
X122258472Y-116656893D01*
X122224407Y-116628712D01*
X122215626Y-116620722D01*
X121534647Y-115939742D01*
X121527113Y-115931463D01*
X121523000Y-115924982D01*
X121473348Y-115878356D01*
X121470507Y-115875602D01*
X121450770Y-115855865D01*
X121447573Y-115853385D01*
X121438551Y-115845680D01*
X121406321Y-115815414D01*
X121399375Y-115811595D01*
X121399372Y-115811593D01*
X121388566Y-115805652D01*
X121372047Y-115794801D01*
X121371583Y-115794441D01*
X121356041Y-115782386D01*
X121348772Y-115779241D01*
X121348768Y-115779238D01*
X121315463Y-115764826D01*
X121304813Y-115759609D01*
X121266060Y-115738305D01*
X121246437Y-115733267D01*
X121227734Y-115726863D01*
X121216420Y-115721967D01*
X121216419Y-115721967D01*
X121209145Y-115718819D01*
X121201322Y-115717580D01*
X121201312Y-115717577D01*
X121165476Y-115711901D01*
X121153856Y-115709495D01*
X121118711Y-115700472D01*
X121118710Y-115700472D01*
X121111030Y-115698500D01*
X121090776Y-115698500D01*
X121071065Y-115696949D01*
X121058886Y-115695020D01*
X121051057Y-115693780D01*
X121043165Y-115694526D01*
X121007039Y-115697941D01*
X120995181Y-115698500D01*
X116895594Y-115698500D01*
X116827473Y-115678498D01*
X116780980Y-115624842D01*
X116770876Y-115554568D01*
X116800370Y-115489988D01*
X116806499Y-115483405D01*
X119859499Y-112430405D01*
X119921811Y-112396379D01*
X119948594Y-112393500D01*
X130731233Y-112393500D01*
X130742416Y-112394027D01*
X130749909Y-112395702D01*
X130757835Y-112395453D01*
X130757836Y-112395453D01*
X130817986Y-112393562D01*
X130821945Y-112393500D01*
X130849856Y-112393500D01*
X130853791Y-112393003D01*
X130853856Y-112392995D01*
X130865693Y-112392062D01*
X130897951Y-112391048D01*
X130901970Y-112390922D01*
X130909889Y-112390673D01*
X130929343Y-112385021D01*
X130948700Y-112381013D01*
X130960930Y-112379468D01*
X130960931Y-112379468D01*
X130968797Y-112378474D01*
X130976168Y-112375555D01*
X130976170Y-112375555D01*
X131009912Y-112362196D01*
X131021142Y-112358351D01*
X131055983Y-112348229D01*
X131055984Y-112348229D01*
X131063593Y-112346018D01*
X131070412Y-112341985D01*
X131070417Y-112341983D01*
X131081028Y-112335707D01*
X131098776Y-112327012D01*
X131117617Y-112319552D01*
X131153387Y-112293564D01*
X131163307Y-112287048D01*
X131194535Y-112268580D01*
X131194538Y-112268578D01*
X131201362Y-112264542D01*
X131215683Y-112250221D01*
X131230717Y-112237380D01*
X131240694Y-112230131D01*
X131247107Y-112225472D01*
X131275298Y-112191395D01*
X131283288Y-112182616D01*
X131990905Y-111474999D01*
X132053217Y-111440973D01*
X132124032Y-111446038D01*
G37*
G04 #@! TD.AperFunction*
G04 #@! TA.AperFunction,Conductor*
G36*
X119900526Y-117620502D02*
G01*
X119947019Y-117674158D01*
X119957123Y-117744432D01*
X119927629Y-117809012D01*
X119921504Y-117815591D01*
X119495742Y-118241353D01*
X119487463Y-118248887D01*
X119480982Y-118253000D01*
X119451168Y-118284749D01*
X119434357Y-118302651D01*
X119431602Y-118305493D01*
X119411865Y-118325230D01*
X119409385Y-118328427D01*
X119401682Y-118337447D01*
X119371414Y-118369679D01*
X119367595Y-118376625D01*
X119367593Y-118376628D01*
X119361652Y-118387434D01*
X119350801Y-118403953D01*
X119338386Y-118419959D01*
X119335241Y-118427228D01*
X119335238Y-118427232D01*
X119320826Y-118460537D01*
X119315609Y-118471187D01*
X119294305Y-118509940D01*
X119292334Y-118517615D01*
X119292334Y-118517616D01*
X119289267Y-118529562D01*
X119282863Y-118548266D01*
X119274819Y-118566855D01*
X119273580Y-118574678D01*
X119273577Y-118574688D01*
X119267901Y-118610524D01*
X119265495Y-118622144D01*
X119256472Y-118657289D01*
X119254500Y-118664970D01*
X119254500Y-118685224D01*
X119252949Y-118704934D01*
X119249780Y-118724943D01*
X119250526Y-118732835D01*
X119253941Y-118768961D01*
X119254500Y-118780819D01*
X119254500Y-128191233D01*
X119253973Y-128202416D01*
X119252298Y-128209909D01*
X119252547Y-128217835D01*
X119252547Y-128217836D01*
X119254438Y-128277986D01*
X119254500Y-128281945D01*
X119254500Y-132890233D01*
X119253973Y-132901416D01*
X119252298Y-132908909D01*
X119252547Y-132916835D01*
X119252547Y-132916836D01*
X119254438Y-132976986D01*
X119254500Y-132980945D01*
X119254500Y-133008856D01*
X119254997Y-133012790D01*
X119254997Y-133012791D01*
X119255005Y-133012856D01*
X119255938Y-133024693D01*
X119257327Y-133068889D01*
X119262978Y-133088339D01*
X119266987Y-133107700D01*
X119269526Y-133127797D01*
X119272445Y-133135168D01*
X119272445Y-133135170D01*
X119285804Y-133168912D01*
X119289648Y-133180140D01*
X119292613Y-133190345D01*
X119292412Y-133261342D01*
X119253859Y-133320958D01*
X119189194Y-133350268D01*
X119171617Y-133351500D01*
X116566046Y-133351500D01*
X116497925Y-133331498D01*
X116451432Y-133277842D01*
X116441328Y-133207568D01*
X116470822Y-133142988D01*
X116476951Y-133136405D01*
X116584085Y-133029271D01*
X116587287Y-133024699D01*
X116707235Y-132853395D01*
X116707236Y-132853393D01*
X116710392Y-132848886D01*
X116712715Y-132843904D01*
X116712718Y-132843899D01*
X116766440Y-132728690D01*
X116803456Y-132649309D01*
X116860451Y-132436604D01*
X116879643Y-132217233D01*
X116860451Y-131997862D01*
X116803456Y-131785157D01*
X116753403Y-131677818D01*
X116712718Y-131590567D01*
X116712715Y-131590562D01*
X116710392Y-131585580D01*
X116661138Y-131515238D01*
X116587244Y-131409706D01*
X116587242Y-131409703D01*
X116584085Y-131405195D01*
X116428374Y-131249484D01*
X116423866Y-131246327D01*
X116423863Y-131246325D01*
X116370470Y-131208939D01*
X116303564Y-131162091D01*
X116259237Y-131106635D01*
X116249836Y-131058879D01*
X116249836Y-127887104D01*
X116250363Y-127875921D01*
X116252038Y-127868428D01*
X116249898Y-127800337D01*
X116249836Y-127796380D01*
X116249836Y-127768480D01*
X116249332Y-127764489D01*
X116248399Y-127752647D01*
X116248337Y-127750655D01*
X116247010Y-127708447D01*
X116244798Y-127700833D01*
X116244797Y-127700828D01*
X116241359Y-127688995D01*
X116237348Y-127669631D01*
X116235803Y-127657400D01*
X116234810Y-127649539D01*
X116231893Y-127642172D01*
X116231892Y-127642167D01*
X116218534Y-127608428D01*
X116214690Y-127597201D01*
X116204566Y-127562358D01*
X116202354Y-127554743D01*
X116192043Y-127537308D01*
X116183348Y-127519560D01*
X116175888Y-127500719D01*
X116153345Y-127469690D01*
X116149900Y-127464949D01*
X116143384Y-127455029D01*
X116124916Y-127423801D01*
X116124914Y-127423798D01*
X116120878Y-127416974D01*
X116106557Y-127402653D01*
X116093716Y-127387619D01*
X116086467Y-127377642D01*
X116081808Y-127371229D01*
X116047731Y-127343038D01*
X116038952Y-127335048D01*
X114462405Y-125758500D01*
X114428379Y-125696188D01*
X114425500Y-125669405D01*
X114425500Y-121472594D01*
X114445502Y-121404473D01*
X114462405Y-121383499D01*
X115012499Y-120833405D01*
X115074811Y-120799379D01*
X115101594Y-120796500D01*
X115157487Y-120796500D01*
X115163939Y-120795128D01*
X115163944Y-120795128D01*
X115250887Y-120776647D01*
X115344288Y-120756794D01*
X115350319Y-120754109D01*
X115512722Y-120681803D01*
X115512724Y-120681802D01*
X115518752Y-120679118D01*
X115673253Y-120566866D01*
X115801040Y-120424944D01*
X115896527Y-120259556D01*
X115955542Y-120077928D01*
X115975504Y-119888000D01*
X115955542Y-119698072D01*
X115896527Y-119516444D01*
X115801040Y-119351056D01*
X115716780Y-119257475D01*
X115677675Y-119214045D01*
X115677674Y-119214044D01*
X115673253Y-119209134D01*
X115518752Y-119096882D01*
X115512724Y-119094198D01*
X115512722Y-119094197D01*
X115350319Y-119021891D01*
X115350318Y-119021891D01*
X115344288Y-119019206D01*
X115250888Y-118999353D01*
X115163944Y-118980872D01*
X115163939Y-118980872D01*
X115157487Y-118979500D01*
X114966513Y-118979500D01*
X114960061Y-118980872D01*
X114960056Y-118980872D01*
X114873112Y-118999353D01*
X114779712Y-119019206D01*
X114773682Y-119021891D01*
X114773681Y-119021891D01*
X114630006Y-119085859D01*
X114605248Y-119096882D01*
X114604323Y-119094804D01*
X114545512Y-119109076D01*
X114478419Y-119085859D01*
X114434528Y-119030055D01*
X114425500Y-118983218D01*
X114425500Y-118297595D01*
X114445502Y-118229474D01*
X114462405Y-118208499D01*
X115033501Y-117637404D01*
X115095813Y-117603379D01*
X115122596Y-117600500D01*
X119832405Y-117600500D01*
X119900526Y-117620502D01*
G37*
G04 #@! TD.AperFunction*
M02*
