G04 #@! TF.GenerationSoftware,KiCad,Pcbnew,(6.0.6)*
G04 #@! TF.CreationDate,2022-07-27T20:36:10+02:00*
G04 #@! TF.ProjectId,smd-challenge,736d642d-6368-4616-9c6c-656e67652e6b,rev?*
G04 #@! TF.SameCoordinates,Original*
G04 #@! TF.FileFunction,Legend,Top*
G04 #@! TF.FilePolarity,Positive*
%FSLAX46Y46*%
G04 Gerber Fmt 4.6, Leading zero omitted, Abs format (unit mm)*
G04 Created by KiCad (PCBNEW (6.0.6)) date 2022-07-27 20:36:10*
%MOMM*%
%LPD*%
G01*
G04 APERTURE LIST*
G04 Aperture macros list*
%AMRoundRect*
0 Rectangle with rounded corners*
0 $1 Rounding radius*
0 $2 $3 $4 $5 $6 $7 $8 $9 X,Y pos of 4 corners*
0 Add a 4 corners polygon primitive as box body*
4,1,4,$2,$3,$4,$5,$6,$7,$8,$9,$2,$3,0*
0 Add four circle primitives for the rounded corners*
1,1,$1+$1,$2,$3*
1,1,$1+$1,$4,$5*
1,1,$1+$1,$6,$7*
1,1,$1+$1,$8,$9*
0 Add four rect primitives between the rounded corners*
20,1,$1+$1,$2,$3,$4,$5,0*
20,1,$1+$1,$4,$5,$6,$7,0*
20,1,$1+$1,$6,$7,$8,$9,0*
20,1,$1+$1,$8,$9,$2,$3,0*%
G04 Aperture macros list end*
%ADD10C,0.300000*%
%ADD11C,0.150000*%
%ADD12C,0.120000*%
%ADD13C,0.100000*%
%ADD14RoundRect,0.250000X-0.350000X-0.450000X0.350000X-0.450000X0.350000X0.450000X-0.350000X0.450000X0*%
%ADD15RoundRect,0.250000X-0.400000X-1.075000X0.400000X-1.075000X0.400000X1.075000X-0.400000X1.075000X0*%
%ADD16RoundRect,0.250001X-0.462499X-1.074999X0.462499X-1.074999X0.462499X1.074999X-0.462499X1.074999X0*%
%ADD17RoundRect,0.250001X0.462499X1.074999X-0.462499X1.074999X-0.462499X-1.074999X0.462499X-1.074999X0*%
%ADD18RoundRect,0.100000X0.217500X0.100000X-0.217500X0.100000X-0.217500X-0.100000X0.217500X-0.100000X0*%
%ADD19RoundRect,0.237500X-0.287500X-0.237500X0.287500X-0.237500X0.287500X0.237500X-0.287500X0.237500X0*%
%ADD20RoundRect,0.150000X0.150000X-0.825000X0.150000X0.825000X-0.150000X0.825000X-0.150000X-0.825000X0*%
%ADD21RoundRect,0.160000X0.222500X0.160000X-0.222500X0.160000X-0.222500X-0.160000X0.222500X-0.160000X0*%
%ADD22RoundRect,0.250000X-0.325000X-0.450000X0.325000X-0.450000X0.325000X0.450000X-0.325000X0.450000X0*%
%ADD23RoundRect,0.250000X-0.337500X-0.475000X0.337500X-0.475000X0.337500X0.475000X-0.337500X0.475000X0*%
%ADD24RoundRect,0.100000X-0.217500X-0.100000X0.217500X-0.100000X0.217500X0.100000X-0.217500X0.100000X0*%
%ADD25C,3.200000*%
%ADD26RoundRect,0.250001X-0.462499X-0.624999X0.462499X-0.624999X0.462499X0.624999X-0.462499X0.624999X0*%
%ADD27RoundRect,0.250000X0.325000X0.450000X-0.325000X0.450000X-0.325000X-0.450000X0.325000X-0.450000X0*%
%ADD28RoundRect,0.250001X0.462499X0.624999X-0.462499X0.624999X-0.462499X-0.624999X0.462499X-0.624999X0*%
%ADD29RoundRect,0.237500X0.287500X0.237500X-0.287500X0.237500X-0.287500X-0.237500X0.287500X-0.237500X0*%
%ADD30RoundRect,0.160000X-0.197500X-0.160000X0.197500X-0.160000X0.197500X0.160000X-0.197500X0.160000X0*%
%ADD31RoundRect,0.160000X-0.222500X-0.160000X0.222500X-0.160000X0.222500X0.160000X-0.222500X0.160000X0*%
%ADD32RoundRect,0.250000X-0.400000X-0.625000X0.400000X-0.625000X0.400000X0.625000X-0.400000X0.625000X0*%
%ADD33RoundRect,0.237500X-0.250000X-0.237500X0.250000X-0.237500X0.250000X0.237500X-0.250000X0.237500X0*%
G04 APERTURE END LIST*
D10*
X110966571Y-128861428D02*
X111038000Y-128790000D01*
X111180857Y-128718571D01*
X111538000Y-128718571D01*
X111680857Y-128790000D01*
X111752285Y-128861428D01*
X111823714Y-129004285D01*
X111823714Y-129147142D01*
X111752285Y-129361428D01*
X110895142Y-130218571D01*
X111823714Y-130218571D01*
X112752285Y-128718571D02*
X112895142Y-128718571D01*
X113038000Y-128790000D01*
X113109428Y-128861428D01*
X113180857Y-129004285D01*
X113252285Y-129290000D01*
X113252285Y-129647142D01*
X113180857Y-129932857D01*
X113109428Y-130075714D01*
X113038000Y-130147142D01*
X112895142Y-130218571D01*
X112752285Y-130218571D01*
X112609428Y-130147142D01*
X112538000Y-130075714D01*
X112466571Y-129932857D01*
X112395142Y-129647142D01*
X112395142Y-129290000D01*
X112466571Y-129004285D01*
X112538000Y-128861428D01*
X112609428Y-128790000D01*
X112752285Y-128718571D01*
X113823714Y-128861428D02*
X113895142Y-128790000D01*
X114038000Y-128718571D01*
X114395142Y-128718571D01*
X114538000Y-128790000D01*
X114609428Y-128861428D01*
X114680857Y-129004285D01*
X114680857Y-129147142D01*
X114609428Y-129361428D01*
X113752285Y-130218571D01*
X114680857Y-130218571D01*
X115252285Y-128861428D02*
X115323714Y-128790000D01*
X115466571Y-128718571D01*
X115823714Y-128718571D01*
X115966571Y-128790000D01*
X116038000Y-128861428D01*
X116109428Y-129004285D01*
X116109428Y-129147142D01*
X116038000Y-129361428D01*
X115180857Y-130218571D01*
X116109428Y-130218571D01*
X111565857Y-107730642D02*
X111780142Y-107802071D01*
X112137285Y-107802071D01*
X112280142Y-107730642D01*
X112351571Y-107659214D01*
X112423000Y-107516357D01*
X112423000Y-107373500D01*
X112351571Y-107230642D01*
X112280142Y-107159214D01*
X112137285Y-107087785D01*
X111851571Y-107016357D01*
X111708714Y-106944928D01*
X111637285Y-106873500D01*
X111565857Y-106730642D01*
X111565857Y-106587785D01*
X111637285Y-106444928D01*
X111708714Y-106373500D01*
X111851571Y-106302071D01*
X112208714Y-106302071D01*
X112423000Y-106373500D01*
X113065857Y-107802071D02*
X113065857Y-106302071D01*
X113565857Y-107373500D01*
X114065857Y-106302071D01*
X114065857Y-107802071D01*
X114780142Y-107802071D02*
X114780142Y-106302071D01*
X115137285Y-106302071D01*
X115351571Y-106373500D01*
X115494428Y-106516357D01*
X115565857Y-106659214D01*
X115637285Y-106944928D01*
X115637285Y-107159214D01*
X115565857Y-107444928D01*
X115494428Y-107587785D01*
X115351571Y-107730642D01*
X115137285Y-107802071D01*
X114780142Y-107802071D01*
X109744428Y-110145642D02*
X109601571Y-110217071D01*
X109315857Y-110217071D01*
X109173000Y-110145642D01*
X109101571Y-110074214D01*
X109030142Y-109931357D01*
X109030142Y-109502785D01*
X109101571Y-109359928D01*
X109173000Y-109288500D01*
X109315857Y-109217071D01*
X109601571Y-109217071D01*
X109744428Y-109288500D01*
X110387285Y-110217071D02*
X110387285Y-108717071D01*
X111030142Y-110217071D02*
X111030142Y-109431357D01*
X110958714Y-109288500D01*
X110815857Y-109217071D01*
X110601571Y-109217071D01*
X110458714Y-109288500D01*
X110387285Y-109359928D01*
X112387285Y-110217071D02*
X112387285Y-109431357D01*
X112315857Y-109288500D01*
X112173000Y-109217071D01*
X111887285Y-109217071D01*
X111744428Y-109288500D01*
X112387285Y-110145642D02*
X112244428Y-110217071D01*
X111887285Y-110217071D01*
X111744428Y-110145642D01*
X111673000Y-110002785D01*
X111673000Y-109859928D01*
X111744428Y-109717071D01*
X111887285Y-109645642D01*
X112244428Y-109645642D01*
X112387285Y-109574214D01*
X113315857Y-110217071D02*
X113173000Y-110145642D01*
X113101571Y-110002785D01*
X113101571Y-108717071D01*
X114101571Y-110217071D02*
X113958714Y-110145642D01*
X113887285Y-110002785D01*
X113887285Y-108717071D01*
X115244428Y-110145642D02*
X115101571Y-110217071D01*
X114815857Y-110217071D01*
X114673000Y-110145642D01*
X114601571Y-110002785D01*
X114601571Y-109431357D01*
X114673000Y-109288500D01*
X114815857Y-109217071D01*
X115101571Y-109217071D01*
X115244428Y-109288500D01*
X115315857Y-109431357D01*
X115315857Y-109574214D01*
X114601571Y-109717071D01*
X115958714Y-109217071D02*
X115958714Y-110217071D01*
X115958714Y-109359928D02*
X116030142Y-109288500D01*
X116173000Y-109217071D01*
X116387285Y-109217071D01*
X116530142Y-109288500D01*
X116601571Y-109431357D01*
X116601571Y-110217071D01*
X117958714Y-109217071D02*
X117958714Y-110431357D01*
X117887285Y-110574214D01*
X117815857Y-110645642D01*
X117673000Y-110717071D01*
X117458714Y-110717071D01*
X117315857Y-110645642D01*
X117958714Y-110145642D02*
X117815857Y-110217071D01*
X117530142Y-110217071D01*
X117387285Y-110145642D01*
X117315857Y-110074214D01*
X117244428Y-109931357D01*
X117244428Y-109502785D01*
X117315857Y-109359928D01*
X117387285Y-109288500D01*
X117530142Y-109217071D01*
X117815857Y-109217071D01*
X117958714Y-109288500D01*
X119244428Y-110145642D02*
X119101571Y-110217071D01*
X118815857Y-110217071D01*
X118673000Y-110145642D01*
X118601571Y-110002785D01*
X118601571Y-109431357D01*
X118673000Y-109288500D01*
X118815857Y-109217071D01*
X119101571Y-109217071D01*
X119244428Y-109288500D01*
X119315857Y-109431357D01*
X119315857Y-109574214D01*
X118601571Y-109717071D01*
D11*
X126031809Y-134199380D02*
X126127047Y-134199380D01*
X126222285Y-134247000D01*
X126269904Y-134294619D01*
X126317523Y-134389857D01*
X126365142Y-134580333D01*
X126365142Y-134818428D01*
X126317523Y-135008904D01*
X126269904Y-135104142D01*
X126222285Y-135151761D01*
X126127047Y-135199380D01*
X126031809Y-135199380D01*
X125936571Y-135151761D01*
X125888952Y-135104142D01*
X125841333Y-135008904D01*
X125793714Y-134818428D01*
X125793714Y-134580333D01*
X125841333Y-134389857D01*
X125888952Y-134294619D01*
X125936571Y-134247000D01*
X126031809Y-134199380D01*
X126746095Y-134294619D02*
X126793714Y-134247000D01*
X126888952Y-134199380D01*
X127127047Y-134199380D01*
X127222285Y-134247000D01*
X127269904Y-134294619D01*
X127317523Y-134389857D01*
X127317523Y-134485095D01*
X127269904Y-134627952D01*
X126698476Y-135199380D01*
X127317523Y-135199380D01*
X127936571Y-134199380D02*
X128031809Y-134199380D01*
X128127047Y-134247000D01*
X128174666Y-134294619D01*
X128222285Y-134389857D01*
X128269904Y-134580333D01*
X128269904Y-134818428D01*
X128222285Y-135008904D01*
X128174666Y-135104142D01*
X128127047Y-135151761D01*
X128031809Y-135199380D01*
X127936571Y-135199380D01*
X127841333Y-135151761D01*
X127793714Y-135104142D01*
X127746095Y-135008904D01*
X127698476Y-134818428D01*
X127698476Y-134580333D01*
X127746095Y-134389857D01*
X127793714Y-134294619D01*
X127841333Y-134247000D01*
X127936571Y-134199380D01*
X129222285Y-135199380D02*
X128650857Y-135199380D01*
X128936571Y-135199380D02*
X128936571Y-134199380D01*
X128841333Y-134342238D01*
X128746095Y-134437476D01*
X128650857Y-134485095D01*
X128444809Y-130516380D02*
X128540047Y-130516380D01*
X128635285Y-130564000D01*
X128682904Y-130611619D01*
X128730523Y-130706857D01*
X128778142Y-130897333D01*
X128778142Y-131135428D01*
X128730523Y-131325904D01*
X128682904Y-131421142D01*
X128635285Y-131468761D01*
X128540047Y-131516380D01*
X128444809Y-131516380D01*
X128349571Y-131468761D01*
X128301952Y-131421142D01*
X128254333Y-131325904D01*
X128206714Y-131135428D01*
X128206714Y-130897333D01*
X128254333Y-130706857D01*
X128301952Y-130611619D01*
X128349571Y-130564000D01*
X128444809Y-130516380D01*
X129635285Y-130849714D02*
X129635285Y-131516380D01*
X129397190Y-130468761D02*
X129159095Y-131183047D01*
X129778142Y-131183047D01*
X130349571Y-130516380D02*
X130444809Y-130516380D01*
X130540047Y-130564000D01*
X130587666Y-130611619D01*
X130635285Y-130706857D01*
X130682904Y-130897333D01*
X130682904Y-131135428D01*
X130635285Y-131325904D01*
X130587666Y-131421142D01*
X130540047Y-131468761D01*
X130444809Y-131516380D01*
X130349571Y-131516380D01*
X130254333Y-131468761D01*
X130206714Y-131421142D01*
X130159095Y-131325904D01*
X130111476Y-131135428D01*
X130111476Y-130897333D01*
X130159095Y-130706857D01*
X130206714Y-130611619D01*
X130254333Y-130564000D01*
X130349571Y-130516380D01*
X131063857Y-130611619D02*
X131111476Y-130564000D01*
X131206714Y-130516380D01*
X131444809Y-130516380D01*
X131540047Y-130564000D01*
X131587666Y-130611619D01*
X131635285Y-130706857D01*
X131635285Y-130802095D01*
X131587666Y-130944952D01*
X131016238Y-131516380D01*
X131635285Y-131516380D01*
X129079809Y-126198380D02*
X129175047Y-126198380D01*
X129270285Y-126246000D01*
X129317904Y-126293619D01*
X129365523Y-126388857D01*
X129413142Y-126579333D01*
X129413142Y-126817428D01*
X129365523Y-127007904D01*
X129317904Y-127103142D01*
X129270285Y-127150761D01*
X129175047Y-127198380D01*
X129079809Y-127198380D01*
X128984571Y-127150761D01*
X128936952Y-127103142D01*
X128889333Y-127007904D01*
X128841714Y-126817428D01*
X128841714Y-126579333D01*
X128889333Y-126388857D01*
X128936952Y-126293619D01*
X128984571Y-126246000D01*
X129079809Y-126198380D01*
X130270285Y-126198380D02*
X130079809Y-126198380D01*
X129984571Y-126246000D01*
X129936952Y-126293619D01*
X129841714Y-126436476D01*
X129794095Y-126626952D01*
X129794095Y-127007904D01*
X129841714Y-127103142D01*
X129889333Y-127150761D01*
X129984571Y-127198380D01*
X130175047Y-127198380D01*
X130270285Y-127150761D01*
X130317904Y-127103142D01*
X130365523Y-127007904D01*
X130365523Y-126769809D01*
X130317904Y-126674571D01*
X130270285Y-126626952D01*
X130175047Y-126579333D01*
X129984571Y-126579333D01*
X129889333Y-126626952D01*
X129841714Y-126674571D01*
X129794095Y-126769809D01*
X130984571Y-126198380D02*
X131079809Y-126198380D01*
X131175047Y-126246000D01*
X131222666Y-126293619D01*
X131270285Y-126388857D01*
X131317904Y-126579333D01*
X131317904Y-126817428D01*
X131270285Y-127007904D01*
X131222666Y-127103142D01*
X131175047Y-127150761D01*
X131079809Y-127198380D01*
X130984571Y-127198380D01*
X130889333Y-127150761D01*
X130841714Y-127103142D01*
X130794095Y-127007904D01*
X130746476Y-126817428D01*
X130746476Y-126579333D01*
X130794095Y-126388857D01*
X130841714Y-126293619D01*
X130889333Y-126246000D01*
X130984571Y-126198380D01*
X131651238Y-126198380D02*
X132270285Y-126198380D01*
X131936952Y-126579333D01*
X132079809Y-126579333D01*
X132175047Y-126626952D01*
X132222666Y-126674571D01*
X132270285Y-126769809D01*
X132270285Y-127007904D01*
X132222666Y-127103142D01*
X132175047Y-127150761D01*
X132079809Y-127198380D01*
X131794095Y-127198380D01*
X131698857Y-127150761D01*
X131651238Y-127103142D01*
X129714809Y-120864380D02*
X129810047Y-120864380D01*
X129905285Y-120912000D01*
X129952904Y-120959619D01*
X130000523Y-121054857D01*
X130048142Y-121245333D01*
X130048142Y-121483428D01*
X130000523Y-121673904D01*
X129952904Y-121769142D01*
X129905285Y-121816761D01*
X129810047Y-121864380D01*
X129714809Y-121864380D01*
X129619571Y-121816761D01*
X129571952Y-121769142D01*
X129524333Y-121673904D01*
X129476714Y-121483428D01*
X129476714Y-121245333D01*
X129524333Y-121054857D01*
X129571952Y-120959619D01*
X129619571Y-120912000D01*
X129714809Y-120864380D01*
X130619571Y-121292952D02*
X130524333Y-121245333D01*
X130476714Y-121197714D01*
X130429095Y-121102476D01*
X130429095Y-121054857D01*
X130476714Y-120959619D01*
X130524333Y-120912000D01*
X130619571Y-120864380D01*
X130810047Y-120864380D01*
X130905285Y-120912000D01*
X130952904Y-120959619D01*
X131000523Y-121054857D01*
X131000523Y-121102476D01*
X130952904Y-121197714D01*
X130905285Y-121245333D01*
X130810047Y-121292952D01*
X130619571Y-121292952D01*
X130524333Y-121340571D01*
X130476714Y-121388190D01*
X130429095Y-121483428D01*
X130429095Y-121673904D01*
X130476714Y-121769142D01*
X130524333Y-121816761D01*
X130619571Y-121864380D01*
X130810047Y-121864380D01*
X130905285Y-121816761D01*
X130952904Y-121769142D01*
X131000523Y-121673904D01*
X131000523Y-121483428D01*
X130952904Y-121388190D01*
X130905285Y-121340571D01*
X130810047Y-121292952D01*
X131619571Y-120864380D02*
X131714809Y-120864380D01*
X131810047Y-120912000D01*
X131857666Y-120959619D01*
X131905285Y-121054857D01*
X131952904Y-121245333D01*
X131952904Y-121483428D01*
X131905285Y-121673904D01*
X131857666Y-121769142D01*
X131810047Y-121816761D01*
X131714809Y-121864380D01*
X131619571Y-121864380D01*
X131524333Y-121816761D01*
X131476714Y-121769142D01*
X131429095Y-121673904D01*
X131381476Y-121483428D01*
X131381476Y-121245333D01*
X131429095Y-121054857D01*
X131476714Y-120959619D01*
X131524333Y-120912000D01*
X131619571Y-120864380D01*
X132810047Y-120864380D02*
X132619571Y-120864380D01*
X132524333Y-120912000D01*
X132476714Y-120959619D01*
X132381476Y-121102476D01*
X132333857Y-121292952D01*
X132333857Y-121673904D01*
X132381476Y-121769142D01*
X132429095Y-121816761D01*
X132524333Y-121864380D01*
X132714809Y-121864380D01*
X132810047Y-121816761D01*
X132857666Y-121769142D01*
X132905285Y-121673904D01*
X132905285Y-121435809D01*
X132857666Y-121340571D01*
X132810047Y-121292952D01*
X132714809Y-121245333D01*
X132524333Y-121245333D01*
X132429095Y-121292952D01*
X132381476Y-121340571D01*
X132333857Y-121435809D01*
X130302142Y-115895380D02*
X129730714Y-115895380D01*
X130016428Y-115895380D02*
X130016428Y-114895380D01*
X129921190Y-115038238D01*
X129825952Y-115133476D01*
X129730714Y-115181095D01*
X130683095Y-114990619D02*
X130730714Y-114943000D01*
X130825952Y-114895380D01*
X131064047Y-114895380D01*
X131159285Y-114943000D01*
X131206904Y-114990619D01*
X131254523Y-115085857D01*
X131254523Y-115181095D01*
X131206904Y-115323952D01*
X130635476Y-115895380D01*
X131254523Y-115895380D01*
X131873571Y-114895380D02*
X131968809Y-114895380D01*
X132064047Y-114943000D01*
X132111666Y-114990619D01*
X132159285Y-115085857D01*
X132206904Y-115276333D01*
X132206904Y-115514428D01*
X132159285Y-115704904D01*
X132111666Y-115800142D01*
X132064047Y-115847761D01*
X131968809Y-115895380D01*
X131873571Y-115895380D01*
X131778333Y-115847761D01*
X131730714Y-115800142D01*
X131683095Y-115704904D01*
X131635476Y-115514428D01*
X131635476Y-115276333D01*
X131683095Y-115085857D01*
X131730714Y-114990619D01*
X131778333Y-114943000D01*
X131873571Y-114895380D01*
X133064047Y-114895380D02*
X132873571Y-114895380D01*
X132778333Y-114943000D01*
X132730714Y-114990619D01*
X132635476Y-115133476D01*
X132587857Y-115323952D01*
X132587857Y-115704904D01*
X132635476Y-115800142D01*
X132683095Y-115847761D01*
X132778333Y-115895380D01*
X132968809Y-115895380D01*
X133064047Y-115847761D01*
X133111666Y-115800142D01*
X133159285Y-115704904D01*
X133159285Y-115466809D01*
X133111666Y-115371571D01*
X133064047Y-115323952D01*
X132968809Y-115276333D01*
X132778333Y-115276333D01*
X132683095Y-115323952D01*
X132635476Y-115371571D01*
X132587857Y-115466809D01*
X130429142Y-108402380D02*
X129857714Y-108402380D01*
X130143428Y-108402380D02*
X130143428Y-107402380D01*
X130048190Y-107545238D01*
X129952952Y-107640476D01*
X129857714Y-107688095D01*
X130810095Y-107497619D02*
X130857714Y-107450000D01*
X130952952Y-107402380D01*
X131191047Y-107402380D01*
X131286285Y-107450000D01*
X131333904Y-107497619D01*
X131381523Y-107592857D01*
X131381523Y-107688095D01*
X131333904Y-107830952D01*
X130762476Y-108402380D01*
X131381523Y-108402380D01*
X132333904Y-108402380D02*
X131762476Y-108402380D01*
X132048190Y-108402380D02*
X132048190Y-107402380D01*
X131952952Y-107545238D01*
X131857714Y-107640476D01*
X131762476Y-107688095D01*
X132952952Y-107402380D02*
X133048190Y-107402380D01*
X133143428Y-107450000D01*
X133191047Y-107497619D01*
X133238666Y-107592857D01*
X133286285Y-107783333D01*
X133286285Y-108021428D01*
X133238666Y-108211904D01*
X133191047Y-108307142D01*
X133143428Y-108354761D01*
X133048190Y-108402380D01*
X132952952Y-108402380D01*
X132857714Y-108354761D01*
X132810095Y-108307142D01*
X132762476Y-108211904D01*
X132714857Y-108021428D01*
X132714857Y-107783333D01*
X132762476Y-107592857D01*
X132810095Y-107497619D01*
X132857714Y-107450000D01*
X132952952Y-107402380D01*
D12*
X130963936Y-122582000D02*
X131418064Y-122582000D01*
X130963936Y-124052000D02*
X131418064Y-124052000D01*
X131356263Y-111845000D02*
X132803737Y-111845000D01*
X131356263Y-109135000D02*
X132803737Y-109135000D01*
X121655500Y-110937000D02*
X121655500Y-114107000D01*
X121655500Y-114107000D02*
X125715500Y-114107000D01*
X125715500Y-110937000D02*
X121655500Y-110937000D01*
X126575500Y-110043000D02*
X126575500Y-106873000D01*
X126575500Y-106873000D02*
X122515500Y-106873000D01*
X122515500Y-110043000D02*
X126575500Y-110043000D01*
D13*
X125163300Y-135255000D02*
G75*
G03*
X125163300Y-135255000I-50000J0D01*
G01*
D12*
X122419000Y-129059000D02*
X122419000Y-130529000D01*
X124879000Y-129059000D02*
X122419000Y-129059000D01*
X122419000Y-130529000D02*
X124879000Y-130529000D01*
X110597000Y-119888000D02*
X110597000Y-123338000D01*
X115717000Y-119888000D02*
X115717000Y-117938000D01*
X115717000Y-119888000D02*
X115717000Y-121838000D01*
X110597000Y-119888000D02*
X110597000Y-117938000D01*
D13*
X125408000Y-131572000D02*
G75*
G03*
X125408000Y-131572000I-50000J0D01*
G01*
D12*
X125070000Y-123754000D02*
X122210000Y-123754000D01*
X122210000Y-123754000D02*
X122210000Y-125674000D01*
X122210000Y-125674000D02*
X125070000Y-125674000D01*
X112768748Y-112295000D02*
X113291252Y-112295000D01*
X112768748Y-113765000D02*
X113291252Y-113765000D01*
X121655500Y-120261000D02*
X125715500Y-120261000D01*
X121655500Y-117991000D02*
X121655500Y-120261000D01*
X125715500Y-117991000D02*
X121655500Y-117991000D01*
X125930000Y-122880000D02*
X125930000Y-120960000D01*
X125930000Y-120960000D02*
X123070000Y-120960000D01*
X123070000Y-122880000D02*
X125930000Y-122880000D01*
X126575500Y-117213000D02*
X126575500Y-114943000D01*
X122515500Y-117213000D02*
X126575500Y-117213000D01*
X126575500Y-114943000D02*
X122515500Y-114943000D01*
X125753000Y-127862000D02*
X125753000Y-126392000D01*
X123293000Y-127862000D02*
X125753000Y-127862000D01*
X125753000Y-126392000D02*
X123293000Y-126392000D01*
X129282879Y-132081000D02*
X129618121Y-132081000D01*
X129282879Y-132841000D02*
X129618121Y-132841000D01*
D13*
X122875700Y-133350000D02*
G75*
G03*
X122875700Y-133350000I-50000J0D01*
G01*
X123093300Y-137033000D02*
G75*
G03*
X123093300Y-137033000I-50000J0D01*
G01*
D12*
X130971936Y-116692000D02*
X132426064Y-116692000D01*
X130971936Y-118512000D02*
X132426064Y-118512000D01*
X129896776Y-128919500D02*
X130406224Y-128919500D01*
X129896776Y-127874500D02*
X130406224Y-127874500D01*
%LPC*%
D14*
X130191000Y-123317000D03*
X132191000Y-123317000D03*
D15*
X130530000Y-110490000D03*
X133630000Y-110490000D03*
D16*
X122628000Y-112522000D03*
X125603000Y-112522000D03*
D17*
X125603000Y-108458000D03*
X122628000Y-108458000D03*
D18*
X124485800Y-135255000D03*
X123670800Y-135255000D03*
D19*
X123204000Y-129794000D03*
X124954000Y-129794000D03*
D20*
X111252000Y-122363000D03*
X112522000Y-122363000D03*
X113792000Y-122363000D03*
X115062000Y-122363000D03*
X115062000Y-117413000D03*
X113792000Y-117413000D03*
X112522000Y-117413000D03*
X111252000Y-117413000D03*
D21*
X123520500Y-131572000D03*
X124665500Y-131572000D03*
D22*
X123045000Y-124714000D03*
X125095000Y-124714000D03*
D23*
X111992500Y-113030000D03*
X114067500Y-113030000D03*
D24*
X127381000Y-136144000D03*
X126566000Y-136144000D03*
D25*
X124104400Y-103632000D03*
D26*
X122628000Y-119126000D03*
X125603000Y-119126000D03*
D27*
X125095000Y-121920000D03*
X123045000Y-121920000D03*
D28*
X122628000Y-116078000D03*
X125603000Y-116078000D03*
D29*
X124968000Y-127127000D03*
X123218000Y-127127000D03*
D30*
X128853000Y-132461000D03*
X130048000Y-132461000D03*
D31*
X123518200Y-133350000D03*
X124663200Y-133350000D03*
D24*
X123670800Y-137033000D03*
X124485800Y-137033000D03*
D32*
X130149000Y-117602000D03*
X133249000Y-117602000D03*
D33*
X129239000Y-128397000D03*
X131064000Y-128397000D03*
M02*
