M48
; DRILL file {KiCad (6.0.6)} date Wed Jul 27 20:36:12 2022
; FORMAT={-:-/ absolute / metric / decimal}
; #@! TF.CreationDate,2022-07-27T20:36:12+02:00
; #@! TF.GenerationSoftware,Kicad,Pcbnew,(6.0.6)
; #@! TF.FileFunction,Plated,1,2,PTH
FMAT,2
METRIC
; #@! TA.AperFunction,Plated,PTH,ViaDrill
T1C0.400
%
G90
G05
T1
X105.41Y-119.888
X111.252Y-124.46
X111.379Y-115.189
X112.522Y-115.189
X113.792Y-115.189
X113.792Y-119.888
X115.062Y-115.189
X115.062Y-119.888
X115.062Y-124.46
X121.031Y-110.363
X121.031Y-117.602
X121.031Y-123.317
X121.031Y-128.397
X121.031Y-132.461
X121.056Y-136.195
X124.079Y-138.557
X128.524Y-136.144
X131.699Y-117.602
X131.737Y-132.461
X132.08Y-110.49
X133.504Y-128.397
X135.128Y-123.317
X135.636Y-117.602
X142.621Y-119.888
T0
M30
