G04 #@! TF.GenerationSoftware,KiCad,Pcbnew,(6.0.6)*
G04 #@! TF.CreationDate,2022-07-27T20:36:10+02:00*
G04 #@! TF.ProjectId,smd-challenge,736d642d-6368-4616-9c6c-656e67652e6b,rev?*
G04 #@! TF.SameCoordinates,Original*
G04 #@! TF.FileFunction,Soldermask,Top*
G04 #@! TF.FilePolarity,Negative*
%FSLAX46Y46*%
G04 Gerber Fmt 4.6, Leading zero omitted, Abs format (unit mm)*
G04 Created by KiCad (PCBNEW (6.0.6)) date 2022-07-27 20:36:10*
%MOMM*%
%LPD*%
G01*
G04 APERTURE LIST*
G04 Aperture macros list*
%AMRoundRect*
0 Rectangle with rounded corners*
0 $1 Rounding radius*
0 $2 $3 $4 $5 $6 $7 $8 $9 X,Y pos of 4 corners*
0 Add a 4 corners polygon primitive as box body*
4,1,4,$2,$3,$4,$5,$6,$7,$8,$9,$2,$3,0*
0 Add four circle primitives for the rounded corners*
1,1,$1+$1,$2,$3*
1,1,$1+$1,$4,$5*
1,1,$1+$1,$6,$7*
1,1,$1+$1,$8,$9*
0 Add four rect primitives between the rounded corners*
20,1,$1+$1,$2,$3,$4,$5,0*
20,1,$1+$1,$4,$5,$6,$7,0*
20,1,$1+$1,$6,$7,$8,$9,0*
20,1,$1+$1,$8,$9,$2,$3,0*%
G04 Aperture macros list end*
%ADD10RoundRect,0.250000X-0.350000X-0.450000X0.350000X-0.450000X0.350000X0.450000X-0.350000X0.450000X0*%
%ADD11RoundRect,0.250000X-0.400000X-1.075000X0.400000X-1.075000X0.400000X1.075000X-0.400000X1.075000X0*%
%ADD12RoundRect,0.250001X-0.462499X-1.074999X0.462499X-1.074999X0.462499X1.074999X-0.462499X1.074999X0*%
%ADD13RoundRect,0.250001X0.462499X1.074999X-0.462499X1.074999X-0.462499X-1.074999X0.462499X-1.074999X0*%
%ADD14RoundRect,0.100000X0.217500X0.100000X-0.217500X0.100000X-0.217500X-0.100000X0.217500X-0.100000X0*%
%ADD15RoundRect,0.237500X-0.287500X-0.237500X0.287500X-0.237500X0.287500X0.237500X-0.287500X0.237500X0*%
%ADD16RoundRect,0.150000X0.150000X-0.825000X0.150000X0.825000X-0.150000X0.825000X-0.150000X-0.825000X0*%
%ADD17RoundRect,0.160000X0.222500X0.160000X-0.222500X0.160000X-0.222500X-0.160000X0.222500X-0.160000X0*%
%ADD18RoundRect,0.250000X-0.325000X-0.450000X0.325000X-0.450000X0.325000X0.450000X-0.325000X0.450000X0*%
%ADD19RoundRect,0.250000X-0.337500X-0.475000X0.337500X-0.475000X0.337500X0.475000X-0.337500X0.475000X0*%
%ADD20RoundRect,0.100000X-0.217500X-0.100000X0.217500X-0.100000X0.217500X0.100000X-0.217500X0.100000X0*%
%ADD21C,3.200000*%
%ADD22RoundRect,0.250001X-0.462499X-0.624999X0.462499X-0.624999X0.462499X0.624999X-0.462499X0.624999X0*%
%ADD23RoundRect,0.250000X0.325000X0.450000X-0.325000X0.450000X-0.325000X-0.450000X0.325000X-0.450000X0*%
%ADD24RoundRect,0.250001X0.462499X0.624999X-0.462499X0.624999X-0.462499X-0.624999X0.462499X-0.624999X0*%
%ADD25RoundRect,0.237500X0.287500X0.237500X-0.287500X0.237500X-0.287500X-0.237500X0.287500X-0.237500X0*%
%ADD26RoundRect,0.160000X-0.197500X-0.160000X0.197500X-0.160000X0.197500X0.160000X-0.197500X0.160000X0*%
%ADD27RoundRect,0.160000X-0.222500X-0.160000X0.222500X-0.160000X0.222500X0.160000X-0.222500X0.160000X0*%
%ADD28RoundRect,0.250000X-0.400000X-0.625000X0.400000X-0.625000X0.400000X0.625000X-0.400000X0.625000X0*%
%ADD29RoundRect,0.237500X-0.250000X-0.237500X0.250000X-0.237500X0.250000X0.237500X-0.250000X0.237500X0*%
G04 APERTURE END LIST*
D10*
X130191000Y-123317000D03*
X132191000Y-123317000D03*
D11*
X130530000Y-110490000D03*
X133630000Y-110490000D03*
D12*
X122628000Y-112522000D03*
X125603000Y-112522000D03*
D13*
X125603000Y-108458000D03*
X122628000Y-108458000D03*
D14*
X124485800Y-135255000D03*
X123670800Y-135255000D03*
D15*
X123204000Y-129794000D03*
X124954000Y-129794000D03*
D16*
X111252000Y-122363000D03*
X112522000Y-122363000D03*
X113792000Y-122363000D03*
X115062000Y-122363000D03*
X115062000Y-117413000D03*
X113792000Y-117413000D03*
X112522000Y-117413000D03*
X111252000Y-117413000D03*
D17*
X123520500Y-131572000D03*
X124665500Y-131572000D03*
D18*
X123045000Y-124714000D03*
X125095000Y-124714000D03*
D19*
X111992500Y-113030000D03*
X114067500Y-113030000D03*
D20*
X127381000Y-136144000D03*
X126566000Y-136144000D03*
D21*
X124104400Y-103632000D03*
D22*
X122628000Y-119126000D03*
X125603000Y-119126000D03*
D23*
X125095000Y-121920000D03*
X123045000Y-121920000D03*
D24*
X122628000Y-116078000D03*
X125603000Y-116078000D03*
D25*
X124968000Y-127127000D03*
X123218000Y-127127000D03*
D26*
X128853000Y-132461000D03*
X130048000Y-132461000D03*
D27*
X123518200Y-133350000D03*
X124663200Y-133350000D03*
D20*
X123670800Y-137033000D03*
X124485800Y-137033000D03*
D28*
X130149000Y-117602000D03*
X133249000Y-117602000D03*
D29*
X129239000Y-128397000D03*
X131064000Y-128397000D03*
M02*
