G04 #@! TF.GenerationSoftware,KiCad,Pcbnew,(6.0.6)*
G04 #@! TF.CreationDate,2022-07-27T20:36:10+02:00*
G04 #@! TF.ProjectId,smd-challenge,736d642d-6368-4616-9c6c-656e67652e6b,rev?*
G04 #@! TF.SameCoordinates,Original*
G04 #@! TF.FileFunction,Legend,Bot*
G04 #@! TF.FilePolarity,Positive*
%FSLAX46Y46*%
G04 Gerber Fmt 4.6, Leading zero omitted, Abs format (unit mm)*
G04 Created by KiCad (PCBNEW (6.0.6)) date 2022-07-27 20:36:10*
%MOMM*%
%LPD*%
G01*
G04 APERTURE LIST*
%ADD10C,0.150000*%
%ADD11C,0.300000*%
%ADD12C,0.120000*%
%ADD13C,3.200000*%
%ADD14C,1.500000*%
%ADD15R,2.600000X3.600000*%
G04 APERTURE END LIST*
D10*
X128698047Y-119340380D02*
X128698047Y-120054666D01*
X128745666Y-120197523D01*
X128840904Y-120292761D01*
X128983761Y-120340380D01*
X129079000Y-120340380D01*
X127745666Y-120340380D02*
X128221857Y-120340380D01*
X128221857Y-119340380D01*
X126840904Y-120245142D02*
X126888523Y-120292761D01*
X127031380Y-120340380D01*
X127126619Y-120340380D01*
X127269476Y-120292761D01*
X127364714Y-120197523D01*
X127412333Y-120102285D01*
X127459952Y-119911809D01*
X127459952Y-119768952D01*
X127412333Y-119578476D01*
X127364714Y-119483238D01*
X127269476Y-119388000D01*
X127126619Y-119340380D01*
X127031380Y-119340380D01*
X126888523Y-119388000D01*
X126840904Y-119435619D01*
X126126619Y-119340380D02*
X126126619Y-120054666D01*
X126174238Y-120197523D01*
X126269476Y-120292761D01*
X126412333Y-120340380D01*
X126507571Y-120340380D01*
X125174238Y-120340380D02*
X125650428Y-120340380D01*
X125650428Y-119340380D01*
X124269476Y-120245142D02*
X124317095Y-120292761D01*
X124459952Y-120340380D01*
X124555190Y-120340380D01*
X124698047Y-120292761D01*
X124793285Y-120197523D01*
X124840904Y-120102285D01*
X124888523Y-119911809D01*
X124888523Y-119768952D01*
X124840904Y-119578476D01*
X124793285Y-119483238D01*
X124698047Y-119388000D01*
X124555190Y-119340380D01*
X124459952Y-119340380D01*
X124317095Y-119388000D01*
X124269476Y-119435619D01*
X123555190Y-119340380D02*
X123555190Y-120054666D01*
X123602809Y-120197523D01*
X123698047Y-120292761D01*
X123840904Y-120340380D01*
X123936142Y-120340380D01*
X122602809Y-120340380D02*
X123079000Y-120340380D01*
X123079000Y-119340380D01*
X121698047Y-120245142D02*
X121745666Y-120292761D01*
X121888523Y-120340380D01*
X121983761Y-120340380D01*
X122126619Y-120292761D01*
X122221857Y-120197523D01*
X122269476Y-120102285D01*
X122317095Y-119911809D01*
X122317095Y-119768952D01*
X122269476Y-119578476D01*
X122221857Y-119483238D01*
X122126619Y-119388000D01*
X121983761Y-119340380D01*
X121888523Y-119340380D01*
X121745666Y-119388000D01*
X121698047Y-119435619D01*
X120983761Y-119340380D02*
X120983761Y-120054666D01*
X121031380Y-120197523D01*
X121126619Y-120292761D01*
X121269476Y-120340380D01*
X121364714Y-120340380D01*
X120031380Y-120340380D02*
X120507571Y-120340380D01*
X120507571Y-119340380D01*
X119126619Y-120245142D02*
X119174238Y-120292761D01*
X119317095Y-120340380D01*
X119412333Y-120340380D01*
X119555190Y-120292761D01*
X119650428Y-120197523D01*
X119698047Y-120102285D01*
X119745666Y-119911809D01*
X119745666Y-119768952D01*
X119698047Y-119578476D01*
X119650428Y-119483238D01*
X119555190Y-119388000D01*
X119412333Y-119340380D01*
X119317095Y-119340380D01*
X119174238Y-119388000D01*
X119126619Y-119435619D01*
D11*
X108394571Y-129012142D02*
X109537428Y-129012142D01*
X108966000Y-129583571D02*
X108966000Y-128440714D01*
D12*
X114770284Y-130421182D02*
G75*
G03*
X114770284Y-130421182I-949999J0D01*
G01*
X111178181Y-130421182D02*
G75*
G03*
X111178181Y-130421182I-949999J0D01*
G01*
X112945948Y-128596846D02*
G75*
G03*
X112945948Y-128596846I-949999J0D01*
G01*
X109611000Y-122849000D02*
X109611000Y-121299000D01*
X135511000Y-127349000D02*
X135511000Y-122849000D01*
X114611000Y-110649000D02*
X112811000Y-112449000D01*
X135511000Y-122849000D02*
X138711000Y-122849000D01*
X112811000Y-122849000D02*
X109611000Y-122849000D01*
X135511000Y-110649000D02*
X135511000Y-115149000D01*
X112161000Y-112999000D02*
X110161000Y-112999000D01*
X138711000Y-115149000D02*
X138711000Y-116699000D01*
X109611000Y-115149000D02*
X109611000Y-116699000D01*
X135511000Y-115149000D02*
X138711000Y-115149000D01*
X112811000Y-115149000D02*
X109611000Y-115149000D01*
X138711000Y-122849000D02*
X138711000Y-121299000D01*
X135511000Y-110649000D02*
X114611000Y-110649000D01*
X111161000Y-113999000D02*
X111161000Y-111999000D01*
X112811000Y-127349000D02*
X135511000Y-127349000D01*
X112811000Y-112449000D02*
X112811000Y-115149000D01*
X112811000Y-127349000D02*
X112811000Y-122849000D01*
X112945948Y-132188949D02*
G75*
G03*
X112945948Y-132188949I-949999J0D01*
G01*
X116566335Y-132217233D02*
G75*
G03*
X116566335Y-132217233I-949999J0D01*
G01*
X114741999Y-133985000D02*
G75*
G03*
X114741999Y-133985000I-949999J0D01*
G01*
%LPC*%
D13*
X124104400Y-103632000D03*
D14*
X113820285Y-130421182D03*
X110228182Y-130421182D03*
X111995949Y-128596846D03*
D15*
X138811000Y-118999000D03*
X109511000Y-118999000D03*
D14*
X111995949Y-132188949D03*
X115616336Y-132217233D03*
X113792000Y-133985000D03*
M02*
