G04 #@! TF.GenerationSoftware,KiCad,Pcbnew,(6.0.6)*
G04 #@! TF.CreationDate,2022-07-27T20:36:10+02:00*
G04 #@! TF.ProjectId,smd-challenge,736d642d-6368-4616-9c6c-656e67652e6b,rev?*
G04 #@! TF.SameCoordinates,Original*
G04 #@! TF.FileFunction,Copper,L1,Top*
G04 #@! TF.FilePolarity,Positive*
%FSLAX46Y46*%
G04 Gerber Fmt 4.6, Leading zero omitted, Abs format (unit mm)*
G04 Created by KiCad (PCBNEW (6.0.6)) date 2022-07-27 20:36:10*
%MOMM*%
%LPD*%
G01*
G04 APERTURE LIST*
G04 Aperture macros list*
%AMRoundRect*
0 Rectangle with rounded corners*
0 $1 Rounding radius*
0 $2 $3 $4 $5 $6 $7 $8 $9 X,Y pos of 4 corners*
0 Add a 4 corners polygon primitive as box body*
4,1,4,$2,$3,$4,$5,$6,$7,$8,$9,$2,$3,0*
0 Add four circle primitives for the rounded corners*
1,1,$1+$1,$2,$3*
1,1,$1+$1,$4,$5*
1,1,$1+$1,$6,$7*
1,1,$1+$1,$8,$9*
0 Add four rect primitives between the rounded corners*
20,1,$1+$1,$2,$3,$4,$5,0*
20,1,$1+$1,$4,$5,$6,$7,0*
20,1,$1+$1,$6,$7,$8,$9,0*
20,1,$1+$1,$8,$9,$2,$3,0*%
G04 Aperture macros list end*
G04 #@! TA.AperFunction,SMDPad,CuDef*
%ADD10RoundRect,0.250000X-0.350000X-0.450000X0.350000X-0.450000X0.350000X0.450000X-0.350000X0.450000X0*%
G04 #@! TD*
G04 #@! TA.AperFunction,SMDPad,CuDef*
%ADD11RoundRect,0.250000X-0.400000X-1.075000X0.400000X-1.075000X0.400000X1.075000X-0.400000X1.075000X0*%
G04 #@! TD*
G04 #@! TA.AperFunction,SMDPad,CuDef*
%ADD12RoundRect,0.250001X-0.462499X-1.074999X0.462499X-1.074999X0.462499X1.074999X-0.462499X1.074999X0*%
G04 #@! TD*
G04 #@! TA.AperFunction,SMDPad,CuDef*
%ADD13RoundRect,0.250001X0.462499X1.074999X-0.462499X1.074999X-0.462499X-1.074999X0.462499X-1.074999X0*%
G04 #@! TD*
G04 #@! TA.AperFunction,SMDPad,CuDef*
%ADD14RoundRect,0.100000X0.217500X0.100000X-0.217500X0.100000X-0.217500X-0.100000X0.217500X-0.100000X0*%
G04 #@! TD*
G04 #@! TA.AperFunction,SMDPad,CuDef*
%ADD15RoundRect,0.237500X-0.287500X-0.237500X0.287500X-0.237500X0.287500X0.237500X-0.287500X0.237500X0*%
G04 #@! TD*
G04 #@! TA.AperFunction,SMDPad,CuDef*
%ADD16RoundRect,0.150000X0.150000X-0.825000X0.150000X0.825000X-0.150000X0.825000X-0.150000X-0.825000X0*%
G04 #@! TD*
G04 #@! TA.AperFunction,SMDPad,CuDef*
%ADD17RoundRect,0.160000X0.222500X0.160000X-0.222500X0.160000X-0.222500X-0.160000X0.222500X-0.160000X0*%
G04 #@! TD*
G04 #@! TA.AperFunction,SMDPad,CuDef*
%ADD18RoundRect,0.250000X-0.325000X-0.450000X0.325000X-0.450000X0.325000X0.450000X-0.325000X0.450000X0*%
G04 #@! TD*
G04 #@! TA.AperFunction,SMDPad,CuDef*
%ADD19RoundRect,0.250000X-0.337500X-0.475000X0.337500X-0.475000X0.337500X0.475000X-0.337500X0.475000X0*%
G04 #@! TD*
G04 #@! TA.AperFunction,SMDPad,CuDef*
%ADD20RoundRect,0.100000X-0.217500X-0.100000X0.217500X-0.100000X0.217500X0.100000X-0.217500X0.100000X0*%
G04 #@! TD*
G04 #@! TA.AperFunction,SMDPad,CuDef*
%ADD21RoundRect,0.250001X-0.462499X-0.624999X0.462499X-0.624999X0.462499X0.624999X-0.462499X0.624999X0*%
G04 #@! TD*
G04 #@! TA.AperFunction,SMDPad,CuDef*
%ADD22RoundRect,0.250000X0.325000X0.450000X-0.325000X0.450000X-0.325000X-0.450000X0.325000X-0.450000X0*%
G04 #@! TD*
G04 #@! TA.AperFunction,SMDPad,CuDef*
%ADD23RoundRect,0.250001X0.462499X0.624999X-0.462499X0.624999X-0.462499X-0.624999X0.462499X-0.624999X0*%
G04 #@! TD*
G04 #@! TA.AperFunction,SMDPad,CuDef*
%ADD24RoundRect,0.237500X0.287500X0.237500X-0.287500X0.237500X-0.287500X-0.237500X0.287500X-0.237500X0*%
G04 #@! TD*
G04 #@! TA.AperFunction,SMDPad,CuDef*
%ADD25RoundRect,0.160000X-0.197500X-0.160000X0.197500X-0.160000X0.197500X0.160000X-0.197500X0.160000X0*%
G04 #@! TD*
G04 #@! TA.AperFunction,SMDPad,CuDef*
%ADD26RoundRect,0.160000X-0.222500X-0.160000X0.222500X-0.160000X0.222500X0.160000X-0.222500X0.160000X0*%
G04 #@! TD*
G04 #@! TA.AperFunction,SMDPad,CuDef*
%ADD27RoundRect,0.250000X-0.400000X-0.625000X0.400000X-0.625000X0.400000X0.625000X-0.400000X0.625000X0*%
G04 #@! TD*
G04 #@! TA.AperFunction,SMDPad,CuDef*
%ADD28RoundRect,0.237500X-0.250000X-0.237500X0.250000X-0.237500X0.250000X0.237500X-0.250000X0.237500X0*%
G04 #@! TD*
G04 #@! TA.AperFunction,ViaPad*
%ADD29C,0.800000*%
G04 #@! TD*
G04 #@! TA.AperFunction,Conductor*
%ADD30C,0.250000*%
G04 #@! TD*
G04 APERTURE END LIST*
D10*
X130191000Y-123317000D03*
X132191000Y-123317000D03*
D11*
X130530000Y-110490000D03*
X133630000Y-110490000D03*
D12*
X122628000Y-112522000D03*
X125603000Y-112522000D03*
D13*
X125603000Y-108458000D03*
X122628000Y-108458000D03*
D14*
X124485800Y-135255000D03*
X123670800Y-135255000D03*
D15*
X123204000Y-129794000D03*
X124954000Y-129794000D03*
D16*
X111252000Y-122363000D03*
X112522000Y-122363000D03*
X113792000Y-122363000D03*
X115062000Y-122363000D03*
X115062000Y-117413000D03*
X113792000Y-117413000D03*
X112522000Y-117413000D03*
X111252000Y-117413000D03*
D17*
X123520500Y-131572000D03*
X124665500Y-131572000D03*
D18*
X123045000Y-124714000D03*
X125095000Y-124714000D03*
D19*
X111992500Y-113030000D03*
X114067500Y-113030000D03*
D20*
X127381000Y-136144000D03*
X126566000Y-136144000D03*
D21*
X122628000Y-119126000D03*
X125603000Y-119126000D03*
D22*
X125095000Y-121920000D03*
X123045000Y-121920000D03*
D23*
X122628000Y-116078000D03*
X125603000Y-116078000D03*
D24*
X124968000Y-127127000D03*
X123218000Y-127127000D03*
D25*
X128853000Y-132461000D03*
X130048000Y-132461000D03*
D26*
X123518200Y-133350000D03*
X124663200Y-133350000D03*
D20*
X123670800Y-137033000D03*
X124485800Y-137033000D03*
D27*
X130149000Y-117602000D03*
X133249000Y-117602000D03*
D28*
X129239000Y-128397000D03*
X131064000Y-128397000D03*
D29*
X115062000Y-119888000D03*
X121031000Y-110363000D03*
X105410000Y-119888000D03*
X121031000Y-128397000D03*
X121031000Y-132461000D03*
X131736500Y-132461000D03*
X128524000Y-136144000D03*
X121056400Y-136194800D03*
X132080000Y-110490000D03*
X111379000Y-115189000D03*
X124079000Y-138557000D03*
X131699000Y-117602000D03*
X142621000Y-119888000D03*
X115062000Y-124460000D03*
X121031000Y-123317000D03*
X135636000Y-117602000D03*
X113792000Y-115189000D03*
X133504300Y-128397000D03*
X135128000Y-123317000D03*
X115062000Y-115189000D03*
X112522000Y-115189000D03*
X113792000Y-119888000D03*
X121031000Y-117602000D03*
X111252000Y-124460000D03*
D30*
X133249000Y-117602000D02*
X135636000Y-117602000D01*
X127381000Y-136144000D02*
X128524000Y-136144000D01*
X126566000Y-136144000D02*
X124510800Y-136144000D01*
X124510800Y-136144000D02*
X124485800Y-136169000D01*
X112522000Y-121986249D02*
X112522000Y-122363000D01*
X113792000Y-119888000D02*
X113792000Y-120716249D01*
X113792000Y-120716249D02*
X112522000Y-121986249D01*
X115062000Y-119888000D02*
X115062000Y-117413000D01*
X121121500Y-110453500D02*
X121031000Y-110363000D01*
X122718500Y-110453500D02*
X121121500Y-110453500D01*
X122718500Y-110453500D02*
X122718500Y-112268000D01*
X122718500Y-108458000D02*
X122718500Y-110453500D01*
X121083600Y-136167600D02*
X123670800Y-136167600D01*
X121056400Y-136194800D02*
X121083600Y-136167600D01*
X131064000Y-128397000D02*
X133504300Y-128397000D01*
X124993400Y-128371600D02*
X124968000Y-128397000D01*
X129213600Y-128371600D02*
X124993400Y-128371600D01*
X129239000Y-128397000D02*
X129213600Y-128371600D01*
X130048000Y-132461000D02*
X131736500Y-132461000D01*
X128827600Y-132435600D02*
X124714000Y-132435600D01*
X128853000Y-132461000D02*
X128827600Y-132435600D01*
X121031000Y-117602000D02*
X122574000Y-117602000D01*
X122574000Y-117602000D02*
X122628000Y-117548000D01*
X122628000Y-117548000D02*
X122628000Y-119126000D01*
X122628000Y-116078000D02*
X122628000Y-117548000D01*
X125603000Y-117602000D02*
X125603000Y-119126000D01*
X125603000Y-116078000D02*
X125603000Y-117602000D01*
X130149000Y-117602000D02*
X125603000Y-117602000D01*
X125095000Y-123317000D02*
X125095000Y-124714000D01*
X130191000Y-123317000D02*
X125095000Y-123317000D01*
X125095000Y-121920000D02*
X125095000Y-123317000D01*
X121079800Y-132412200D02*
X123518200Y-132412200D01*
X121031000Y-132461000D02*
X121079800Y-132412200D01*
X121049000Y-123299000D02*
X121031000Y-123317000D01*
X123045000Y-123299000D02*
X121049000Y-123299000D01*
X123045000Y-123299000D02*
X123045000Y-124714000D01*
X123045000Y-121920000D02*
X123045000Y-123299000D01*
X132191000Y-123317000D02*
X135128000Y-123317000D01*
X121059000Y-128369000D02*
X121031000Y-128397000D01*
X123218000Y-128369000D02*
X121059000Y-128369000D01*
X123218000Y-128369000D02*
X123218000Y-127254000D01*
X123218000Y-129540000D02*
X123218000Y-128369000D01*
X124968000Y-128397000D02*
X124968000Y-129540000D01*
X124968000Y-127254000D02*
X124968000Y-128397000D01*
X123518200Y-132412200D02*
X123518200Y-131574300D01*
X123518200Y-133350000D02*
X123518200Y-132412200D01*
X123518200Y-131574300D02*
X123520500Y-131572000D01*
X124663200Y-132486400D02*
X124663200Y-131574300D01*
X124663200Y-133350000D02*
X124663200Y-132486400D01*
X124663200Y-131574300D02*
X124665500Y-131572000D01*
X124485800Y-136169000D02*
X124485800Y-135255000D01*
X124485800Y-137033000D02*
X124485800Y-136169000D01*
X123670800Y-136167600D02*
X123670800Y-137033000D01*
X123670800Y-135255000D02*
X123670800Y-136167600D01*
X124665500Y-132285500D02*
X124665500Y-131572000D01*
X132080000Y-110490000D02*
X133630000Y-110490000D01*
X130530000Y-110490000D02*
X125730000Y-110490000D01*
X125693500Y-110199500D02*
X125693500Y-112268000D01*
X125693500Y-108458000D02*
X125693500Y-110199500D01*
X111379000Y-117286000D02*
X111252000Y-117413000D01*
X111379000Y-113643500D02*
X111992500Y-113030000D01*
X111379000Y-115189000D02*
X111379000Y-117286000D01*
X111379000Y-115189000D02*
X111379000Y-113643500D01*
X113792000Y-115189000D02*
X113792000Y-117413000D01*
X115062000Y-115189000D02*
X115062000Y-117413000D01*
X112522000Y-115189000D02*
X112522000Y-117413000D01*
X111252000Y-122363000D02*
X111252000Y-124460000D01*
G04 #@! TA.AperFunction,Conductor*
G36*
X124174060Y-100398574D02*
G01*
X124926469Y-100414992D01*
X124931950Y-100415232D01*
X125775055Y-100470491D01*
X125780523Y-100470970D01*
X126620403Y-100562951D01*
X126625854Y-100563668D01*
X127460958Y-100692204D01*
X127466371Y-100693159D01*
X127887286Y-100776883D01*
X128295050Y-100857992D01*
X128300388Y-100859176D01*
X129121111Y-101060006D01*
X129126420Y-101061429D01*
X129937565Y-101297856D01*
X129942808Y-101299509D01*
X130742892Y-101571100D01*
X130748028Y-101572970D01*
X131535526Y-101879211D01*
X131540585Y-101881307D01*
X131812776Y-102001074D01*
X132313945Y-102221594D01*
X132318927Y-102223917D01*
X133076692Y-102597605D01*
X133081569Y-102600143D01*
X133220706Y-102676476D01*
X133822372Y-103006561D01*
X133827077Y-103009278D01*
X134549436Y-103447617D01*
X134554060Y-103450563D01*
X135256596Y-103919982D01*
X135261065Y-103923111D01*
X135433757Y-104049734D01*
X135942466Y-104422735D01*
X135946827Y-104426082D01*
X136605733Y-104954910D01*
X136609945Y-104958443D01*
X137245201Y-105515547D01*
X137249251Y-105519258D01*
X137464176Y-105725004D01*
X137859586Y-106103527D01*
X137863473Y-106107414D01*
X138419820Y-106688581D01*
X138447739Y-106717746D01*
X138451449Y-106721795D01*
X138616235Y-106909697D01*
X139008557Y-107357055D01*
X139012090Y-107361267D01*
X139540918Y-108020173D01*
X139544265Y-108024534D01*
X140043889Y-108705935D01*
X140047018Y-108710404D01*
X140301360Y-109091054D01*
X140516437Y-109412940D01*
X140519383Y-109417564D01*
X140957722Y-110139923D01*
X140960439Y-110144628D01*
X141091116Y-110382821D01*
X141366857Y-110885431D01*
X141369395Y-110890308D01*
X141743083Y-111648073D01*
X141745406Y-111653055D01*
X141931415Y-112075792D01*
X142074132Y-112400139D01*
X142085689Y-112426405D01*
X142087789Y-112431474D01*
X142390675Y-113210342D01*
X142394025Y-113218957D01*
X142395900Y-113224108D01*
X142548405Y-113673375D01*
X142667491Y-114024192D01*
X142669144Y-114029435D01*
X142905571Y-114840580D01*
X142906993Y-114845885D01*
X143081873Y-115560556D01*
X143107821Y-115666597D01*
X143109008Y-115671950D01*
X143167111Y-115964056D01*
X143273841Y-116500629D01*
X143274796Y-116506042D01*
X143403332Y-117341146D01*
X143404049Y-117346595D01*
X143495892Y-118185209D01*
X143496030Y-118186473D01*
X143496509Y-118191945D01*
X143548499Y-118985163D01*
X143551768Y-119035045D01*
X143552008Y-119040531D01*
X143558677Y-119346153D01*
X143570440Y-119885251D01*
X143570440Y-119890749D01*
X143552524Y-120711837D01*
X143552008Y-120735463D01*
X143551768Y-120740950D01*
X143503886Y-121471498D01*
X143496509Y-121584051D01*
X143496030Y-121589523D01*
X143409001Y-122384185D01*
X143404049Y-122429403D01*
X143403332Y-122434852D01*
X143391659Y-122510694D01*
X143274796Y-123269958D01*
X143273841Y-123275371D01*
X143209248Y-123600104D01*
X143110179Y-124098165D01*
X143109011Y-124104035D01*
X143107824Y-124109388D01*
X142975555Y-124649928D01*
X142906994Y-124930111D01*
X142905572Y-124935415D01*
X142791696Y-125326109D01*
X142669144Y-125746565D01*
X142667491Y-125751808D01*
X142633584Y-125851694D01*
X142440006Y-126421960D01*
X142395905Y-126551877D01*
X142394030Y-126557028D01*
X142259086Y-126904037D01*
X142087793Y-127344516D01*
X142085693Y-127349585D01*
X142012113Y-127516809D01*
X141745406Y-128122945D01*
X141743083Y-128127927D01*
X141369395Y-128885692D01*
X141366857Y-128890569D01*
X141176309Y-129237893D01*
X140960439Y-129631372D01*
X140957722Y-129636077D01*
X140519391Y-130358424D01*
X140516437Y-130363060D01*
X140425578Y-130499040D01*
X140047018Y-131065596D01*
X140043889Y-131070065D01*
X139834455Y-131355697D01*
X139544265Y-131751466D01*
X139540918Y-131755827D01*
X139012090Y-132414733D01*
X139008557Y-132418945D01*
X138810869Y-132644365D01*
X138455006Y-133050150D01*
X138451453Y-133054201D01*
X138447742Y-133058251D01*
X138259584Y-133254803D01*
X137863473Y-133668586D01*
X137859586Y-133672473D01*
X137602043Y-133919017D01*
X137330985Y-134178499D01*
X137249254Y-134256739D01*
X137245201Y-134260453D01*
X136609945Y-134817557D01*
X136605733Y-134821090D01*
X135946827Y-135349918D01*
X135942466Y-135353265D01*
X135802689Y-135455754D01*
X135261065Y-135852889D01*
X135256596Y-135856018D01*
X134825600Y-136144000D01*
X134554060Y-136325437D01*
X134549436Y-136328383D01*
X133827077Y-136766722D01*
X133822372Y-136769439D01*
X133527453Y-136931237D01*
X133081569Y-137175857D01*
X133076692Y-137178395D01*
X132318927Y-137552083D01*
X132313945Y-137554406D01*
X131931519Y-137722678D01*
X131540585Y-137894693D01*
X131535526Y-137896789D01*
X130748028Y-138203030D01*
X130742892Y-138204900D01*
X130087671Y-138427317D01*
X129942808Y-138476491D01*
X129937565Y-138478144D01*
X129126420Y-138714571D01*
X129121115Y-138715993D01*
X128300388Y-138916824D01*
X128295050Y-138918008D01*
X127887286Y-138999117D01*
X127466371Y-139082841D01*
X127460958Y-139083796D01*
X126625854Y-139212332D01*
X126620405Y-139213049D01*
X125780523Y-139305030D01*
X125775055Y-139305509D01*
X124931950Y-139360768D01*
X124926469Y-139361008D01*
X124174060Y-139377426D01*
X124081749Y-139379440D01*
X124076251Y-139379440D01*
X123983940Y-139377426D01*
X123231531Y-139361008D01*
X123226050Y-139360768D01*
X122382945Y-139305509D01*
X122377477Y-139305030D01*
X121537595Y-139213049D01*
X121532146Y-139212332D01*
X120697042Y-139083796D01*
X120691629Y-139082841D01*
X120270714Y-138999117D01*
X119862950Y-138918008D01*
X119857612Y-138916824D01*
X119036885Y-138715993D01*
X119031580Y-138714571D01*
X118220435Y-138478144D01*
X118215192Y-138476491D01*
X118070329Y-138427317D01*
X117415108Y-138204900D01*
X117409972Y-138203030D01*
X116622474Y-137896789D01*
X116617415Y-137894693D01*
X116226481Y-137722678D01*
X115844055Y-137554406D01*
X115839073Y-137552083D01*
X115081308Y-137178395D01*
X115076431Y-137175857D01*
X114630547Y-136931237D01*
X114335628Y-136769439D01*
X114330923Y-136766722D01*
X113608564Y-136328383D01*
X113603940Y-136325437D01*
X113408428Y-136194800D01*
X120142896Y-136194800D01*
X120143586Y-136201365D01*
X120158179Y-136340206D01*
X120162858Y-136384728D01*
X120221873Y-136566356D01*
X120317360Y-136731744D01*
X120321778Y-136736651D01*
X120321779Y-136736652D01*
X120417345Y-136842789D01*
X120445147Y-136873666D01*
X120599648Y-136985918D01*
X120605676Y-136988602D01*
X120605678Y-136988603D01*
X120749194Y-137052500D01*
X120774112Y-137063594D01*
X120867513Y-137083447D01*
X120954456Y-137101928D01*
X120954461Y-137101928D01*
X120960913Y-137103300D01*
X121151887Y-137103300D01*
X121158339Y-137101928D01*
X121158344Y-137101928D01*
X121245287Y-137083447D01*
X121338688Y-137063594D01*
X121363606Y-137052500D01*
X121507122Y-136988603D01*
X121507124Y-136988602D01*
X121513152Y-136985918D01*
X121667653Y-136873666D01*
X121687196Y-136851962D01*
X121695455Y-136842789D01*
X121755901Y-136805550D01*
X121789091Y-136801100D01*
X122718800Y-136801100D01*
X122786921Y-136821102D01*
X122833414Y-136874758D01*
X122844800Y-136927099D01*
X122844801Y-137172884D01*
X122860462Y-137291850D01*
X122921776Y-137439876D01*
X122926802Y-137446426D01*
X123014285Y-137560434D01*
X123019313Y-137566987D01*
X123025863Y-137572013D01*
X123025866Y-137572016D01*
X123082869Y-137615756D01*
X123146425Y-137664524D01*
X123294450Y-137725838D01*
X123302638Y-137726916D01*
X123409321Y-137740961D01*
X123413415Y-137741500D01*
X123670768Y-137741500D01*
X123928184Y-137741499D01*
X123932269Y-137740961D01*
X123932273Y-137740961D01*
X124001793Y-137731809D01*
X124047150Y-137725838D01*
X124048900Y-137725113D01*
X124107702Y-137725114D01*
X124109450Y-137725838D01*
X124117634Y-137726915D01*
X124117636Y-137726916D01*
X124224328Y-137740962D01*
X124228415Y-137741500D01*
X124485768Y-137741500D01*
X124743184Y-137741499D01*
X124747269Y-137740961D01*
X124747273Y-137740961D01*
X124853963Y-137726916D01*
X124853965Y-137726916D01*
X124862150Y-137725838D01*
X124936163Y-137695181D01*
X125002548Y-137667684D01*
X125002550Y-137667683D01*
X125010176Y-137664524D01*
X125137287Y-137566987D01*
X125142314Y-137560436D01*
X125142316Y-137560434D01*
X125186055Y-137503431D01*
X125234824Y-137439875D01*
X125296138Y-137291850D01*
X125311800Y-137172885D01*
X125311799Y-136903500D01*
X125331801Y-136835380D01*
X125385456Y-136788887D01*
X125437799Y-136777500D01*
X126021332Y-136777500D01*
X126069550Y-136787091D01*
X126189650Y-136836838D01*
X126197838Y-136837916D01*
X126304521Y-136851961D01*
X126308615Y-136852500D01*
X126565968Y-136852500D01*
X126823384Y-136852499D01*
X126827469Y-136851961D01*
X126827473Y-136851961D01*
X126897144Y-136842789D01*
X126942350Y-136836838D01*
X126944100Y-136836113D01*
X127002902Y-136836114D01*
X127004650Y-136836838D01*
X127012834Y-136837915D01*
X127012836Y-136837916D01*
X127119528Y-136851962D01*
X127123615Y-136852500D01*
X127380968Y-136852500D01*
X127638384Y-136852499D01*
X127642469Y-136851961D01*
X127642473Y-136851961D01*
X127749163Y-136837916D01*
X127749165Y-136837916D01*
X127757350Y-136836838D01*
X127769525Y-136831795D01*
X127803379Y-136817773D01*
X127873969Y-136810184D01*
X127925657Y-136832246D01*
X128056211Y-136927099D01*
X128067248Y-136935118D01*
X128073276Y-136937802D01*
X128073278Y-136937803D01*
X128235681Y-137010109D01*
X128241712Y-137012794D01*
X128335112Y-137032647D01*
X128422056Y-137051128D01*
X128422061Y-137051128D01*
X128428513Y-137052500D01*
X128619487Y-137052500D01*
X128625939Y-137051128D01*
X128625944Y-137051128D01*
X128712888Y-137032647D01*
X128806288Y-137012794D01*
X128812319Y-137010109D01*
X128974722Y-136937803D01*
X128974724Y-136937802D01*
X128980752Y-136935118D01*
X129135253Y-136822866D01*
X129146672Y-136810184D01*
X129258621Y-136685852D01*
X129258622Y-136685851D01*
X129263040Y-136680944D01*
X129358527Y-136515556D01*
X129417542Y-136333928D01*
X129418435Y-136325437D01*
X129436814Y-136150565D01*
X129437504Y-136144000D01*
X129422881Y-136004872D01*
X129418232Y-135960635D01*
X129418232Y-135960633D01*
X129417542Y-135954072D01*
X129358527Y-135772444D01*
X129263040Y-135607056D01*
X129180994Y-135515934D01*
X129139675Y-135470045D01*
X129139674Y-135470044D01*
X129135253Y-135465134D01*
X128980752Y-135352882D01*
X128974724Y-135350198D01*
X128974722Y-135350197D01*
X128812319Y-135277891D01*
X128812318Y-135277891D01*
X128806288Y-135275206D01*
X128712888Y-135255353D01*
X128625944Y-135236872D01*
X128625939Y-135236872D01*
X128619487Y-135235500D01*
X128428513Y-135235500D01*
X128422061Y-135236872D01*
X128422056Y-135236872D01*
X128335112Y-135255353D01*
X128241712Y-135275206D01*
X128235682Y-135277891D01*
X128235681Y-135277891D01*
X128073278Y-135350197D01*
X128073276Y-135350198D01*
X128067248Y-135352882D01*
X128061907Y-135356762D01*
X128061906Y-135356763D01*
X127925657Y-135455754D01*
X127858789Y-135479613D01*
X127803379Y-135470227D01*
X127764983Y-135454323D01*
X127764978Y-135454322D01*
X127757350Y-135451162D01*
X127648579Y-135436842D01*
X127642472Y-135436038D01*
X127642471Y-135436038D01*
X127638385Y-135435500D01*
X127381032Y-135435500D01*
X127123616Y-135435501D01*
X127119531Y-135436039D01*
X127119527Y-135436039D01*
X127050007Y-135445191D01*
X127004650Y-135451162D01*
X127002900Y-135451887D01*
X126944098Y-135451886D01*
X126942350Y-135451162D01*
X126934166Y-135450085D01*
X126934164Y-135450084D01*
X126827472Y-135436038D01*
X126827471Y-135436038D01*
X126823385Y-135435500D01*
X126566032Y-135435500D01*
X126308616Y-135435501D01*
X126304531Y-135436039D01*
X126304527Y-135436039D01*
X126197837Y-135450084D01*
X126197835Y-135450084D01*
X126189650Y-135451162D01*
X126069550Y-135500909D01*
X126021332Y-135510500D01*
X125437800Y-135510500D01*
X125369679Y-135490498D01*
X125323186Y-135436842D01*
X125311800Y-135384500D01*
X125311799Y-135119239D01*
X125311799Y-135115116D01*
X125296138Y-134996150D01*
X125234824Y-134848124D01*
X125214080Y-134821090D01*
X125142314Y-134727564D01*
X125142313Y-134727563D01*
X125137287Y-134721013D01*
X125130736Y-134715986D01*
X125130734Y-134715984D01*
X125073731Y-134672245D01*
X125010175Y-134623476D01*
X124862150Y-134562162D01*
X124853962Y-134561084D01*
X124747272Y-134547038D01*
X124747271Y-134547038D01*
X124743185Y-134546500D01*
X124485832Y-134546500D01*
X124228416Y-134546501D01*
X124224331Y-134547039D01*
X124224327Y-134547039D01*
X124154807Y-134556191D01*
X124109450Y-134562162D01*
X124107700Y-134562887D01*
X124048898Y-134562886D01*
X124047150Y-134562162D01*
X124038966Y-134561085D01*
X124038964Y-134561084D01*
X123932272Y-134547038D01*
X123932271Y-134547038D01*
X123928185Y-134546500D01*
X123670832Y-134546500D01*
X123413416Y-134546501D01*
X123409331Y-134547039D01*
X123409327Y-134547039D01*
X123302637Y-134561084D01*
X123302635Y-134561084D01*
X123294450Y-134562162D01*
X123220437Y-134592819D01*
X123154052Y-134620316D01*
X123154050Y-134620317D01*
X123146424Y-134623476D01*
X123019313Y-134721013D01*
X123014287Y-134727563D01*
X123014284Y-134727566D01*
X122970544Y-134784569D01*
X122921776Y-134848125D01*
X122860462Y-134996150D01*
X122844800Y-135115115D01*
X122844801Y-135394884D01*
X122845338Y-135398966D01*
X122845397Y-135399861D01*
X122829892Y-135469144D01*
X122779391Y-135519046D01*
X122719667Y-135534100D01*
X121733596Y-135534100D01*
X121665475Y-135514098D01*
X121659535Y-135510036D01*
X121518494Y-135407563D01*
X121518493Y-135407562D01*
X121513152Y-135403682D01*
X121507124Y-135400998D01*
X121507122Y-135400997D01*
X121344719Y-135328691D01*
X121344718Y-135328691D01*
X121338688Y-135326006D01*
X121245288Y-135306153D01*
X121158344Y-135287672D01*
X121158339Y-135287672D01*
X121151887Y-135286300D01*
X120960913Y-135286300D01*
X120954461Y-135287672D01*
X120954456Y-135287672D01*
X120867512Y-135306153D01*
X120774112Y-135326006D01*
X120768082Y-135328691D01*
X120768081Y-135328691D01*
X120605678Y-135400997D01*
X120605676Y-135400998D01*
X120599648Y-135403682D01*
X120445147Y-135515934D01*
X120440726Y-135520844D01*
X120440725Y-135520845D01*
X120367412Y-135602268D01*
X120317360Y-135657856D01*
X120221873Y-135823244D01*
X120162858Y-136004872D01*
X120142896Y-136194800D01*
X113408428Y-136194800D01*
X113332400Y-136144000D01*
X112901404Y-135856018D01*
X112896935Y-135852889D01*
X112355311Y-135455754D01*
X112215534Y-135353265D01*
X112211173Y-135349918D01*
X111552267Y-134821090D01*
X111548055Y-134817557D01*
X110912799Y-134260453D01*
X110908746Y-134256739D01*
X110827016Y-134178499D01*
X110555957Y-133919017D01*
X110298414Y-133672473D01*
X110294527Y-133668586D01*
X109898416Y-133254803D01*
X109710258Y-133058251D01*
X109706547Y-133054201D01*
X109702995Y-133050150D01*
X109347131Y-132644365D01*
X109186324Y-132461000D01*
X120117496Y-132461000D01*
X120137458Y-132650928D01*
X120196473Y-132832556D01*
X120291960Y-132997944D01*
X120296378Y-133002851D01*
X120296379Y-133002852D01*
X120408144Y-133126980D01*
X120419747Y-133139866D01*
X120574248Y-133252118D01*
X120580276Y-133254802D01*
X120580278Y-133254803D01*
X120742681Y-133327109D01*
X120748712Y-133329794D01*
X120842113Y-133349647D01*
X120929056Y-133368128D01*
X120929061Y-133368128D01*
X120935513Y-133369500D01*
X121126487Y-133369500D01*
X121132939Y-133368128D01*
X121132944Y-133368128D01*
X121219887Y-133349647D01*
X121313288Y-133329794D01*
X121319319Y-133327109D01*
X121481722Y-133254803D01*
X121481724Y-133254802D01*
X121487752Y-133252118D01*
X121642253Y-133139866D01*
X121689504Y-133087388D01*
X121749947Y-133050150D01*
X121783138Y-133045700D01*
X122501200Y-133045700D01*
X122569321Y-133065702D01*
X122615814Y-133119358D01*
X122627200Y-133171700D01*
X122627201Y-133563436D01*
X122627464Y-133566295D01*
X122627464Y-133566303D01*
X122630567Y-133600076D01*
X122633566Y-133632719D01*
X122681952Y-133787118D01*
X122765770Y-133925518D01*
X122880182Y-134039930D01*
X123018582Y-134123748D01*
X123025829Y-134126019D01*
X123025831Y-134126020D01*
X123087985Y-134145498D01*
X123172981Y-134172134D01*
X123242263Y-134178500D01*
X123245161Y-134178500D01*
X123518915Y-134178499D01*
X123794136Y-134178499D01*
X123796995Y-134178236D01*
X123797003Y-134178236D01*
X123830776Y-134175133D01*
X123863419Y-134172134D01*
X123869804Y-134170133D01*
X124010569Y-134126020D01*
X124010571Y-134126019D01*
X124017818Y-134123748D01*
X124025427Y-134119140D01*
X124026347Y-134118896D01*
X124031242Y-134116686D01*
X124031610Y-134117502D01*
X124094056Y-134100960D01*
X124149860Y-134117345D01*
X124150158Y-134116686D01*
X124154885Y-134118820D01*
X124155973Y-134119140D01*
X124163582Y-134123748D01*
X124170829Y-134126019D01*
X124170831Y-134126020D01*
X124232985Y-134145498D01*
X124317981Y-134172134D01*
X124387263Y-134178500D01*
X124390161Y-134178500D01*
X124663915Y-134178499D01*
X124939136Y-134178499D01*
X124941995Y-134178236D01*
X124942003Y-134178236D01*
X124975776Y-134175133D01*
X125008419Y-134172134D01*
X125014804Y-134170133D01*
X125155569Y-134126020D01*
X125155571Y-134126019D01*
X125162818Y-134123748D01*
X125301218Y-134039930D01*
X125415630Y-133925518D01*
X125499448Y-133787118D01*
X125547834Y-133632719D01*
X125554200Y-133563437D01*
X125554199Y-133195100D01*
X125574201Y-133126980D01*
X125627856Y-133080487D01*
X125680199Y-133069100D01*
X128105962Y-133069100D01*
X128174083Y-133089102D01*
X128195057Y-133106005D01*
X128239982Y-133150930D01*
X128378382Y-133234748D01*
X128385629Y-133237019D01*
X128385631Y-133237020D01*
X128421425Y-133248237D01*
X128532781Y-133283134D01*
X128602063Y-133289500D01*
X128604961Y-133289500D01*
X128853651Y-133289499D01*
X129103936Y-133289499D01*
X129106795Y-133289236D01*
X129106803Y-133289236D01*
X129140576Y-133286133D01*
X129173219Y-133283134D01*
X129272191Y-133252118D01*
X129320369Y-133237020D01*
X129320371Y-133237019D01*
X129327618Y-133234748D01*
X129334114Y-133230814D01*
X129334116Y-133230813D01*
X129385229Y-133199858D01*
X129453859Y-133181679D01*
X129515771Y-133199858D01*
X129566884Y-133230813D01*
X129566886Y-133230814D01*
X129573382Y-133234748D01*
X129580629Y-133237019D01*
X129580631Y-133237020D01*
X129616425Y-133248237D01*
X129727781Y-133283134D01*
X129797063Y-133289500D01*
X129799961Y-133289500D01*
X130048651Y-133289499D01*
X130298936Y-133289499D01*
X130301795Y-133289236D01*
X130301803Y-133289236D01*
X130335576Y-133286133D01*
X130368219Y-133283134D01*
X130467191Y-133252118D01*
X130515369Y-133237020D01*
X130515371Y-133237019D01*
X130522618Y-133234748D01*
X130661018Y-133150930D01*
X130680543Y-133131405D01*
X130742855Y-133097379D01*
X130769638Y-133094500D01*
X131028300Y-133094500D01*
X131096421Y-133114502D01*
X131115647Y-133130843D01*
X131115920Y-133130540D01*
X131120832Y-133134963D01*
X131125247Y-133139866D01*
X131133076Y-133145554D01*
X131207819Y-133199858D01*
X131279748Y-133252118D01*
X131285776Y-133254802D01*
X131285778Y-133254803D01*
X131448181Y-133327109D01*
X131454212Y-133329794D01*
X131547613Y-133349647D01*
X131634556Y-133368128D01*
X131634561Y-133368128D01*
X131641013Y-133369500D01*
X131831987Y-133369500D01*
X131838439Y-133368128D01*
X131838444Y-133368128D01*
X131925387Y-133349647D01*
X132018788Y-133329794D01*
X132024819Y-133327109D01*
X132187222Y-133254803D01*
X132187224Y-133254802D01*
X132193252Y-133252118D01*
X132347753Y-133139866D01*
X132359356Y-133126980D01*
X132471121Y-133002852D01*
X132471122Y-133002851D01*
X132475540Y-132997944D01*
X132571027Y-132832556D01*
X132630042Y-132650928D01*
X132650004Y-132461000D01*
X132645141Y-132414733D01*
X132630732Y-132277635D01*
X132630732Y-132277633D01*
X132630042Y-132271072D01*
X132571027Y-132089444D01*
X132475540Y-131924056D01*
X132365731Y-131802100D01*
X132352175Y-131787045D01*
X132352174Y-131787044D01*
X132347753Y-131782134D01*
X132214033Y-131684980D01*
X132198594Y-131673763D01*
X132198593Y-131673762D01*
X132193252Y-131669882D01*
X132187224Y-131667198D01*
X132187222Y-131667197D01*
X132024819Y-131594891D01*
X132024818Y-131594891D01*
X132018788Y-131592206D01*
X131925387Y-131572353D01*
X131838444Y-131553872D01*
X131838439Y-131553872D01*
X131831987Y-131552500D01*
X131641013Y-131552500D01*
X131634561Y-131553872D01*
X131634556Y-131553872D01*
X131547613Y-131572353D01*
X131454212Y-131592206D01*
X131448182Y-131594891D01*
X131448181Y-131594891D01*
X131285778Y-131667197D01*
X131285776Y-131667198D01*
X131279748Y-131669882D01*
X131274407Y-131673762D01*
X131274406Y-131673763D01*
X131199147Y-131728442D01*
X131125247Y-131782134D01*
X131120832Y-131787037D01*
X131115920Y-131791460D01*
X131114795Y-131790211D01*
X131061486Y-131823051D01*
X131028300Y-131827500D01*
X130769638Y-131827500D01*
X130701517Y-131807498D01*
X130680543Y-131790595D01*
X130661018Y-131771070D01*
X130522618Y-131687252D01*
X130515371Y-131684981D01*
X130515369Y-131684980D01*
X130416741Y-131654072D01*
X130368219Y-131638866D01*
X130298937Y-131632500D01*
X130296039Y-131632500D01*
X130047349Y-131632501D01*
X129797064Y-131632501D01*
X129794205Y-131632764D01*
X129794197Y-131632764D01*
X129760424Y-131635867D01*
X129727781Y-131638866D01*
X129721403Y-131640865D01*
X129721402Y-131640865D01*
X129580631Y-131684980D01*
X129580629Y-131684981D01*
X129573382Y-131687252D01*
X129566886Y-131691186D01*
X129566884Y-131691187D01*
X129515771Y-131722142D01*
X129447141Y-131740321D01*
X129385229Y-131722142D01*
X129334116Y-131691187D01*
X129334114Y-131691186D01*
X129327618Y-131687252D01*
X129320371Y-131684981D01*
X129320369Y-131684980D01*
X129221741Y-131654072D01*
X129173219Y-131638866D01*
X129103937Y-131632500D01*
X129101039Y-131632500D01*
X128852349Y-131632501D01*
X128602064Y-131632501D01*
X128599205Y-131632764D01*
X128599197Y-131632764D01*
X128565424Y-131635867D01*
X128532781Y-131638866D01*
X128526403Y-131640865D01*
X128526402Y-131640865D01*
X128385631Y-131684980D01*
X128385629Y-131684981D01*
X128378382Y-131687252D01*
X128371885Y-131691187D01*
X128267118Y-131754636D01*
X128239982Y-131771070D01*
X128235581Y-131775471D01*
X128170177Y-131801546D01*
X128158379Y-131802100D01*
X125682500Y-131802100D01*
X125614379Y-131782098D01*
X125567886Y-131728442D01*
X125556500Y-131676100D01*
X125556499Y-131361447D01*
X125556499Y-131358564D01*
X125556234Y-131355672D01*
X125550745Y-131295935D01*
X125550134Y-131289281D01*
X125501748Y-131134882D01*
X125417930Y-130996482D01*
X125384041Y-130962593D01*
X125350015Y-130900281D01*
X125355080Y-130829466D01*
X125397627Y-130772630D01*
X125433259Y-130753975D01*
X125553154Y-130713974D01*
X125553156Y-130713973D01*
X125560107Y-130711654D01*
X125708031Y-130620116D01*
X125713204Y-130614934D01*
X125825758Y-130502184D01*
X125825762Y-130502179D01*
X125830929Y-130497003D01*
X125913493Y-130363060D01*
X125918369Y-130355150D01*
X125918370Y-130355148D01*
X125922209Y-130348920D01*
X125976974Y-130183809D01*
X125987500Y-130081072D01*
X125987500Y-129506928D01*
X125976707Y-129402907D01*
X125969232Y-129380500D01*
X125923972Y-129244841D01*
X125921654Y-129237893D01*
X125896598Y-129197403D01*
X125877760Y-129128951D01*
X125898921Y-129061181D01*
X125953362Y-129015610D01*
X126003742Y-129005100D01*
X128270818Y-129005100D01*
X128338939Y-129025102D01*
X128377961Y-129064796D01*
X128400384Y-129101031D01*
X128405566Y-129106204D01*
X128518316Y-129218758D01*
X128518321Y-129218762D01*
X128523497Y-129223929D01*
X128529727Y-129227769D01*
X128529728Y-129227770D01*
X128546151Y-129237893D01*
X128671580Y-129315209D01*
X128836691Y-129369974D01*
X128843527Y-129370674D01*
X128843530Y-129370675D01*
X128895026Y-129375951D01*
X128939428Y-129380500D01*
X129538572Y-129380500D01*
X129541818Y-129380163D01*
X129541822Y-129380163D01*
X129635735Y-129370419D01*
X129635739Y-129370418D01*
X129642593Y-129369707D01*
X129649129Y-129367526D01*
X129649131Y-129367526D01*
X129781895Y-129323232D01*
X129807607Y-129314654D01*
X129955531Y-129223116D01*
X129994342Y-129184237D01*
X130062247Y-129116214D01*
X130124530Y-129082135D01*
X130195350Y-129087138D01*
X130240437Y-129116059D01*
X130343312Y-129218754D01*
X130343317Y-129218758D01*
X130348497Y-129223929D01*
X130354727Y-129227769D01*
X130354728Y-129227770D01*
X130371151Y-129237893D01*
X130496580Y-129315209D01*
X130661691Y-129369974D01*
X130668527Y-129370674D01*
X130668530Y-129370675D01*
X130720026Y-129375951D01*
X130764428Y-129380500D01*
X131363572Y-129380500D01*
X131366818Y-129380163D01*
X131366822Y-129380163D01*
X131460735Y-129370419D01*
X131460739Y-129370418D01*
X131467593Y-129369707D01*
X131474129Y-129367526D01*
X131474131Y-129367526D01*
X131606895Y-129323232D01*
X131632607Y-129314654D01*
X131780531Y-129223116D01*
X131819342Y-129184237D01*
X131898258Y-129105184D01*
X131898262Y-129105179D01*
X131903429Y-129100003D01*
X131909357Y-129090386D01*
X131911386Y-129088559D01*
X131911807Y-129088027D01*
X131911898Y-129088099D01*
X131962128Y-129042892D01*
X132016618Y-129030500D01*
X132796100Y-129030500D01*
X132864221Y-129050502D01*
X132883447Y-129066843D01*
X132883720Y-129066540D01*
X132888632Y-129070963D01*
X132893047Y-129075866D01*
X132901676Y-129082135D01*
X132934804Y-129106204D01*
X133047548Y-129188118D01*
X133053576Y-129190802D01*
X133053578Y-129190803D01*
X133215981Y-129263109D01*
X133222012Y-129265794D01*
X133315412Y-129285647D01*
X133402356Y-129304128D01*
X133402361Y-129304128D01*
X133408813Y-129305500D01*
X133599787Y-129305500D01*
X133606239Y-129304128D01*
X133606244Y-129304128D01*
X133693188Y-129285647D01*
X133786588Y-129265794D01*
X133792619Y-129263109D01*
X133955022Y-129190803D01*
X133955024Y-129190802D01*
X133961052Y-129188118D01*
X134115553Y-129075866D01*
X134125519Y-129064798D01*
X134238921Y-128938852D01*
X134238922Y-128938851D01*
X134243340Y-128933944D01*
X134338827Y-128768556D01*
X134397842Y-128586928D01*
X134417804Y-128397000D01*
X134397842Y-128207072D01*
X134338827Y-128025444D01*
X134243340Y-127860056D01*
X134133531Y-127738100D01*
X134119975Y-127723045D01*
X134119974Y-127723044D01*
X134115553Y-127718134D01*
X133961052Y-127605882D01*
X133955024Y-127603198D01*
X133955022Y-127603197D01*
X133792619Y-127530891D01*
X133792618Y-127530891D01*
X133786588Y-127528206D01*
X133693187Y-127508353D01*
X133606244Y-127489872D01*
X133606239Y-127489872D01*
X133599787Y-127488500D01*
X133408813Y-127488500D01*
X133402361Y-127489872D01*
X133402356Y-127489872D01*
X133315413Y-127508353D01*
X133222012Y-127528206D01*
X133215982Y-127530891D01*
X133215981Y-127530891D01*
X133053578Y-127603197D01*
X133053576Y-127603198D01*
X133047548Y-127605882D01*
X133042207Y-127609762D01*
X133042206Y-127609763D01*
X132926999Y-127693466D01*
X132893047Y-127718134D01*
X132888632Y-127723037D01*
X132883720Y-127727460D01*
X132882595Y-127726211D01*
X132829286Y-127759051D01*
X132796100Y-127763500D01*
X132016464Y-127763500D01*
X131948343Y-127743498D01*
X131909321Y-127703804D01*
X131902616Y-127692969D01*
X131887562Y-127677941D01*
X131784684Y-127575242D01*
X131784679Y-127575238D01*
X131779503Y-127570071D01*
X131703679Y-127523332D01*
X131637650Y-127482631D01*
X131637648Y-127482630D01*
X131631420Y-127478791D01*
X131466309Y-127424026D01*
X131459473Y-127423326D01*
X131459470Y-127423325D01*
X131407974Y-127418049D01*
X131363572Y-127413500D01*
X130764428Y-127413500D01*
X130761182Y-127413837D01*
X130761178Y-127413837D01*
X130667265Y-127423581D01*
X130667261Y-127423582D01*
X130660407Y-127424293D01*
X130653871Y-127426474D01*
X130653869Y-127426474D01*
X130521105Y-127470768D01*
X130495393Y-127479346D01*
X130347469Y-127570884D01*
X130342296Y-127576066D01*
X130240753Y-127677786D01*
X130178470Y-127711865D01*
X130107650Y-127706862D01*
X130062563Y-127677941D01*
X129959688Y-127575246D01*
X129959683Y-127575242D01*
X129954503Y-127570071D01*
X129878679Y-127523332D01*
X129812650Y-127482631D01*
X129812648Y-127482630D01*
X129806420Y-127478791D01*
X129641309Y-127424026D01*
X129634473Y-127423326D01*
X129634470Y-127423325D01*
X129582974Y-127418049D01*
X129538572Y-127413500D01*
X128939428Y-127413500D01*
X128936182Y-127413837D01*
X128936178Y-127413837D01*
X128842265Y-127423581D01*
X128842261Y-127423582D01*
X128835407Y-127424293D01*
X128828871Y-127426474D01*
X128828869Y-127426474D01*
X128696105Y-127470768D01*
X128670393Y-127479346D01*
X128522469Y-127570884D01*
X128399571Y-127693997D01*
X128399039Y-127693466D01*
X128345737Y-127731255D01*
X128304774Y-127738100D01*
X126092117Y-127738100D01*
X126023996Y-127718098D01*
X125977503Y-127664442D01*
X125967399Y-127594168D01*
X125972522Y-127572439D01*
X125990974Y-127516809D01*
X125993875Y-127488500D01*
X126001172Y-127417271D01*
X126001500Y-127414072D01*
X126001500Y-126839928D01*
X125990707Y-126735907D01*
X125935654Y-126570893D01*
X125844116Y-126422969D01*
X125787915Y-126366866D01*
X125726184Y-126305242D01*
X125726179Y-126305238D01*
X125721003Y-126300071D01*
X125572920Y-126208791D01*
X125447129Y-126167068D01*
X125388769Y-126126637D01*
X125361532Y-126061073D01*
X125374065Y-125991192D01*
X125422390Y-125939180D01*
X125473792Y-125922148D01*
X125484589Y-125921028D01*
X125569308Y-125912238D01*
X125569312Y-125912237D01*
X125576166Y-125911526D01*
X125582702Y-125909345D01*
X125582704Y-125909345D01*
X125714806Y-125865272D01*
X125743946Y-125855550D01*
X125894348Y-125762478D01*
X126019305Y-125637303D01*
X126112115Y-125486738D01*
X126151788Y-125367128D01*
X126165632Y-125325389D01*
X126165632Y-125325387D01*
X126167797Y-125318861D01*
X126178500Y-125214400D01*
X126178500Y-124213600D01*
X126175337Y-124183109D01*
X126168237Y-124114685D01*
X126168237Y-124114684D01*
X126167526Y-124107834D01*
X126165772Y-124102576D01*
X126170907Y-124032286D01*
X126213541Y-123975516D01*
X126280099Y-123950807D01*
X126288895Y-123950500D01*
X129011803Y-123950500D01*
X129079924Y-123970502D01*
X129126417Y-124024158D01*
X129131326Y-124036623D01*
X129144608Y-124076432D01*
X129149450Y-124090946D01*
X129153301Y-124097170D01*
X129153302Y-124097171D01*
X129161738Y-124110803D01*
X129242522Y-124241348D01*
X129367697Y-124366305D01*
X129373927Y-124370145D01*
X129373928Y-124370146D01*
X129511090Y-124454694D01*
X129518262Y-124459115D01*
X129598005Y-124485564D01*
X129679611Y-124512632D01*
X129679613Y-124512632D01*
X129686139Y-124514797D01*
X129692975Y-124515497D01*
X129692978Y-124515498D01*
X129736031Y-124519909D01*
X129790600Y-124525500D01*
X130591400Y-124525500D01*
X130594646Y-124525163D01*
X130594650Y-124525163D01*
X130690308Y-124515238D01*
X130690312Y-124515237D01*
X130697166Y-124514526D01*
X130703702Y-124512345D01*
X130703704Y-124512345D01*
X130840922Y-124466565D01*
X130864946Y-124458550D01*
X131015348Y-124365478D01*
X131101784Y-124278891D01*
X131164066Y-124244812D01*
X131234886Y-124249815D01*
X131279976Y-124278736D01*
X131367697Y-124366305D01*
X131373927Y-124370145D01*
X131373928Y-124370146D01*
X131511090Y-124454694D01*
X131518262Y-124459115D01*
X131598005Y-124485564D01*
X131679611Y-124512632D01*
X131679613Y-124512632D01*
X131686139Y-124514797D01*
X131692975Y-124515497D01*
X131692978Y-124515498D01*
X131736031Y-124519909D01*
X131790600Y-124525500D01*
X132591400Y-124525500D01*
X132594646Y-124525163D01*
X132594650Y-124525163D01*
X132690308Y-124515238D01*
X132690312Y-124515237D01*
X132697166Y-124514526D01*
X132703702Y-124512345D01*
X132703704Y-124512345D01*
X132840922Y-124466565D01*
X132864946Y-124458550D01*
X133015348Y-124365478D01*
X133140305Y-124240303D01*
X133149430Y-124225500D01*
X133229275Y-124095968D01*
X133229276Y-124095966D01*
X133233115Y-124089738D01*
X133250663Y-124036832D01*
X133291094Y-123978473D01*
X133356658Y-123951236D01*
X133370256Y-123950500D01*
X134419800Y-123950500D01*
X134487921Y-123970502D01*
X134507147Y-123986843D01*
X134507420Y-123986540D01*
X134512332Y-123990963D01*
X134516747Y-123995866D01*
X134525524Y-124002243D01*
X134652820Y-124094729D01*
X134671248Y-124108118D01*
X134677276Y-124110802D01*
X134677278Y-124110803D01*
X134839681Y-124183109D01*
X134845712Y-124185794D01*
X134939112Y-124205647D01*
X135026056Y-124224128D01*
X135026061Y-124224128D01*
X135032513Y-124225500D01*
X135223487Y-124225500D01*
X135229939Y-124224128D01*
X135229944Y-124224128D01*
X135316888Y-124205647D01*
X135410288Y-124185794D01*
X135416319Y-124183109D01*
X135578722Y-124110803D01*
X135578724Y-124110802D01*
X135584752Y-124108118D01*
X135603181Y-124094729D01*
X135689125Y-124032286D01*
X135739253Y-123995866D01*
X135867040Y-123853944D01*
X135946399Y-123716491D01*
X135959223Y-123694279D01*
X135959224Y-123694278D01*
X135962527Y-123688556D01*
X136021542Y-123506928D01*
X136041504Y-123317000D01*
X136038176Y-123285333D01*
X136022232Y-123133635D01*
X136022232Y-123133633D01*
X136021542Y-123127072D01*
X135962527Y-122945444D01*
X135867040Y-122780056D01*
X135763894Y-122665500D01*
X135743675Y-122643045D01*
X135743674Y-122643044D01*
X135739253Y-122638134D01*
X135584752Y-122525882D01*
X135578724Y-122523198D01*
X135578722Y-122523197D01*
X135416319Y-122450891D01*
X135416318Y-122450891D01*
X135410288Y-122448206D01*
X135294762Y-122423650D01*
X135229944Y-122409872D01*
X135229939Y-122409872D01*
X135223487Y-122408500D01*
X135032513Y-122408500D01*
X135026061Y-122409872D01*
X135026056Y-122409872D01*
X134961238Y-122423650D01*
X134845712Y-122448206D01*
X134839682Y-122450891D01*
X134839681Y-122450891D01*
X134677278Y-122523197D01*
X134677276Y-122523198D01*
X134671248Y-122525882D01*
X134516747Y-122638134D01*
X134512332Y-122643037D01*
X134507420Y-122647460D01*
X134506295Y-122646211D01*
X134452986Y-122679051D01*
X134419800Y-122683500D01*
X133370197Y-122683500D01*
X133302076Y-122663498D01*
X133255583Y-122609842D01*
X133250674Y-122597377D01*
X133234867Y-122549998D01*
X133234866Y-122549996D01*
X133232550Y-122543054D01*
X133139478Y-122392652D01*
X133014303Y-122267695D01*
X132961262Y-122235000D01*
X132869968Y-122178725D01*
X132869966Y-122178724D01*
X132863738Y-122174885D01*
X132703254Y-122121655D01*
X132702389Y-122121368D01*
X132702387Y-122121368D01*
X132695861Y-122119203D01*
X132689025Y-122118503D01*
X132689022Y-122118502D01*
X132645969Y-122114091D01*
X132591400Y-122108500D01*
X131790600Y-122108500D01*
X131787354Y-122108837D01*
X131787350Y-122108837D01*
X131691692Y-122118762D01*
X131691688Y-122118763D01*
X131684834Y-122119474D01*
X131678298Y-122121655D01*
X131678296Y-122121655D01*
X131546194Y-122165728D01*
X131517054Y-122175450D01*
X131366652Y-122268522D01*
X131361479Y-122273704D01*
X131280216Y-122355109D01*
X131217934Y-122389188D01*
X131147114Y-122384185D01*
X131102025Y-122355264D01*
X131019483Y-122272866D01*
X131014303Y-122267695D01*
X130961262Y-122235000D01*
X130869968Y-122178725D01*
X130869966Y-122178724D01*
X130863738Y-122174885D01*
X130703254Y-122121655D01*
X130702389Y-122121368D01*
X130702387Y-122121368D01*
X130695861Y-122119203D01*
X130689025Y-122118503D01*
X130689022Y-122118502D01*
X130645969Y-122114091D01*
X130591400Y-122108500D01*
X129790600Y-122108500D01*
X129787354Y-122108837D01*
X129787350Y-122108837D01*
X129691692Y-122118762D01*
X129691688Y-122118763D01*
X129684834Y-122119474D01*
X129678298Y-122121655D01*
X129678296Y-122121655D01*
X129546194Y-122165728D01*
X129517054Y-122175450D01*
X129366652Y-122268522D01*
X129241695Y-122393697D01*
X129237855Y-122399927D01*
X129237854Y-122399928D01*
X129160040Y-122526166D01*
X129148885Y-122544262D01*
X129135771Y-122583801D01*
X129131337Y-122597168D01*
X129090906Y-122655527D01*
X129025342Y-122682764D01*
X129011744Y-122683500D01*
X126288897Y-122683500D01*
X126220776Y-122663498D01*
X126174283Y-122609842D01*
X126164179Y-122539568D01*
X126165654Y-122531322D01*
X126167797Y-122524861D01*
X126178500Y-122420400D01*
X126178500Y-121419600D01*
X126167526Y-121313834D01*
X126156976Y-121282210D01*
X126113868Y-121153002D01*
X126111550Y-121146054D01*
X126018478Y-120995652D01*
X125893303Y-120870695D01*
X125772937Y-120796500D01*
X125748968Y-120781725D01*
X125748966Y-120781724D01*
X125742738Y-120777885D01*
X125674022Y-120755093D01*
X125615662Y-120714662D01*
X125588425Y-120649098D01*
X125600958Y-120579217D01*
X125649283Y-120527205D01*
X125713689Y-120509500D01*
X126115900Y-120509500D01*
X126119146Y-120509163D01*
X126119150Y-120509163D01*
X126214807Y-120499238D01*
X126214811Y-120499237D01*
X126221665Y-120498526D01*
X126228201Y-120496345D01*
X126228203Y-120496345D01*
X126360305Y-120452272D01*
X126389445Y-120442550D01*
X126539848Y-120349478D01*
X126664805Y-120224303D01*
X126668646Y-120218072D01*
X126753775Y-120079968D01*
X126753776Y-120079966D01*
X126757615Y-120073738D01*
X126813297Y-119905861D01*
X126814455Y-119894565D01*
X126823672Y-119804598D01*
X126824000Y-119801400D01*
X126824000Y-118450600D01*
X126816104Y-118374503D01*
X126828968Y-118304683D01*
X126877539Y-118252901D01*
X126941431Y-118235500D01*
X128872550Y-118235500D01*
X128940671Y-118255502D01*
X128987164Y-118309158D01*
X128997877Y-118348496D01*
X128998342Y-118352978D01*
X129000629Y-118375021D01*
X129001474Y-118383166D01*
X129003655Y-118389702D01*
X129003655Y-118389704D01*
X129022905Y-118447402D01*
X129057450Y-118550946D01*
X129150522Y-118701348D01*
X129275697Y-118826305D01*
X129281927Y-118830145D01*
X129281928Y-118830146D01*
X129419090Y-118914694D01*
X129426262Y-118919115D01*
X129506005Y-118945564D01*
X129587611Y-118972632D01*
X129587613Y-118972632D01*
X129594139Y-118974797D01*
X129600975Y-118975497D01*
X129600978Y-118975498D01*
X129640040Y-118979500D01*
X129698600Y-118985500D01*
X130599400Y-118985500D01*
X130602646Y-118985163D01*
X130602650Y-118985163D01*
X130698308Y-118975238D01*
X130698312Y-118975237D01*
X130705166Y-118974526D01*
X130711702Y-118972345D01*
X130711704Y-118972345D01*
X130843806Y-118928272D01*
X130872946Y-118918550D01*
X131023348Y-118825478D01*
X131148305Y-118700303D01*
X131152146Y-118694072D01*
X131237275Y-118555968D01*
X131237276Y-118555966D01*
X131241115Y-118549738D01*
X131296797Y-118381861D01*
X131300216Y-118348497D01*
X131304246Y-118309158D01*
X131307500Y-118277400D01*
X132090500Y-118277400D01*
X132090837Y-118280646D01*
X132090837Y-118280650D01*
X132100629Y-118375021D01*
X132101474Y-118383166D01*
X132103655Y-118389702D01*
X132103655Y-118389704D01*
X132122905Y-118447402D01*
X132157450Y-118550946D01*
X132250522Y-118701348D01*
X132375697Y-118826305D01*
X132381927Y-118830145D01*
X132381928Y-118830146D01*
X132519090Y-118914694D01*
X132526262Y-118919115D01*
X132606005Y-118945564D01*
X132687611Y-118972632D01*
X132687613Y-118972632D01*
X132694139Y-118974797D01*
X132700975Y-118975497D01*
X132700978Y-118975498D01*
X132740040Y-118979500D01*
X132798600Y-118985500D01*
X133699400Y-118985500D01*
X133702646Y-118985163D01*
X133702650Y-118985163D01*
X133798308Y-118975238D01*
X133798312Y-118975237D01*
X133805166Y-118974526D01*
X133811702Y-118972345D01*
X133811704Y-118972345D01*
X133943806Y-118928272D01*
X133972946Y-118918550D01*
X134123348Y-118825478D01*
X134248305Y-118700303D01*
X134252146Y-118694072D01*
X134337275Y-118555968D01*
X134337276Y-118555966D01*
X134341115Y-118549738D01*
X134396797Y-118381861D01*
X134400199Y-118348658D01*
X134427040Y-118282930D01*
X134485155Y-118242148D01*
X134525543Y-118235500D01*
X134927800Y-118235500D01*
X134995921Y-118255502D01*
X135015147Y-118271843D01*
X135015420Y-118271540D01*
X135020332Y-118275963D01*
X135024747Y-118280866D01*
X135046329Y-118296546D01*
X135154340Y-118375021D01*
X135179248Y-118393118D01*
X135185276Y-118395802D01*
X135185278Y-118395803D01*
X135347681Y-118468109D01*
X135353712Y-118470794D01*
X135437609Y-118488627D01*
X135534056Y-118509128D01*
X135534061Y-118509128D01*
X135540513Y-118510500D01*
X135731487Y-118510500D01*
X135737939Y-118509128D01*
X135737944Y-118509128D01*
X135834391Y-118488627D01*
X135918288Y-118470794D01*
X135924319Y-118468109D01*
X136086722Y-118395803D01*
X136086724Y-118395802D01*
X136092752Y-118393118D01*
X136247253Y-118280866D01*
X136251675Y-118275955D01*
X136370621Y-118143852D01*
X136370622Y-118143851D01*
X136375040Y-118138944D01*
X136470527Y-117973556D01*
X136529542Y-117791928D01*
X136533050Y-117758556D01*
X136548814Y-117608565D01*
X136549504Y-117602000D01*
X136546759Y-117575886D01*
X136530232Y-117418635D01*
X136530232Y-117418633D01*
X136529542Y-117412072D01*
X136470527Y-117230444D01*
X136375040Y-117065056D01*
X136345248Y-117031968D01*
X136251675Y-116928045D01*
X136251674Y-116928044D01*
X136247253Y-116923134D01*
X136092752Y-116810882D01*
X136086724Y-116808198D01*
X136086722Y-116808197D01*
X135924319Y-116735891D01*
X135924318Y-116735891D01*
X135918288Y-116733206D01*
X135819190Y-116712142D01*
X135737944Y-116694872D01*
X135737939Y-116694872D01*
X135731487Y-116693500D01*
X135540513Y-116693500D01*
X135534061Y-116694872D01*
X135534056Y-116694872D01*
X135452810Y-116712142D01*
X135353712Y-116733206D01*
X135347682Y-116735891D01*
X135347681Y-116735891D01*
X135185278Y-116808197D01*
X135185276Y-116808198D01*
X135179248Y-116810882D01*
X135173907Y-116814762D01*
X135173906Y-116814763D01*
X135118054Y-116855342D01*
X135024747Y-116923134D01*
X135020332Y-116928037D01*
X135015420Y-116932460D01*
X135014295Y-116931211D01*
X134960986Y-116964051D01*
X134927800Y-116968500D01*
X134525450Y-116968500D01*
X134457329Y-116948498D01*
X134410836Y-116894842D01*
X134400123Y-116855503D01*
X134399792Y-116852307D01*
X134397442Y-116829658D01*
X134397238Y-116827692D01*
X134397237Y-116827688D01*
X134396526Y-116820834D01*
X134375113Y-116756650D01*
X134342868Y-116660002D01*
X134340550Y-116653054D01*
X134247478Y-116502652D01*
X134122303Y-116377695D01*
X134038220Y-116325865D01*
X133977968Y-116288725D01*
X133977966Y-116288724D01*
X133971738Y-116284885D01*
X133811254Y-116231655D01*
X133810389Y-116231368D01*
X133810387Y-116231368D01*
X133803861Y-116229203D01*
X133797025Y-116228503D01*
X133797022Y-116228502D01*
X133753969Y-116224091D01*
X133699400Y-116218500D01*
X132798600Y-116218500D01*
X132795354Y-116218837D01*
X132795350Y-116218837D01*
X132699692Y-116228762D01*
X132699688Y-116228763D01*
X132692834Y-116229474D01*
X132686298Y-116231655D01*
X132686296Y-116231655D01*
X132554194Y-116275728D01*
X132525054Y-116285450D01*
X132374652Y-116378522D01*
X132249695Y-116503697D01*
X132156885Y-116654262D01*
X132101203Y-116822139D01*
X132100503Y-116828975D01*
X132100502Y-116828978D01*
X132097543Y-116857861D01*
X132090500Y-116926600D01*
X132090500Y-118277400D01*
X131307500Y-118277400D01*
X131307500Y-116926600D01*
X131307163Y-116923350D01*
X131297238Y-116827692D01*
X131297237Y-116827688D01*
X131296526Y-116820834D01*
X131275113Y-116756650D01*
X131242868Y-116660002D01*
X131240550Y-116653054D01*
X131147478Y-116502652D01*
X131022303Y-116377695D01*
X130938220Y-116325865D01*
X130877968Y-116288725D01*
X130877966Y-116288724D01*
X130871738Y-116284885D01*
X130711254Y-116231655D01*
X130710389Y-116231368D01*
X130710387Y-116231368D01*
X130703861Y-116229203D01*
X130697025Y-116228503D01*
X130697022Y-116228502D01*
X130653969Y-116224091D01*
X130599400Y-116218500D01*
X129698600Y-116218500D01*
X129695354Y-116218837D01*
X129695350Y-116218837D01*
X129599692Y-116228762D01*
X129599688Y-116228763D01*
X129592834Y-116229474D01*
X129586298Y-116231655D01*
X129586296Y-116231655D01*
X129454194Y-116275728D01*
X129425054Y-116285450D01*
X129274652Y-116378522D01*
X129149695Y-116503697D01*
X129056885Y-116654262D01*
X129001203Y-116822139D01*
X129000502Y-116828977D01*
X129000502Y-116828979D01*
X128997801Y-116855342D01*
X128970960Y-116921070D01*
X128912845Y-116961852D01*
X128872457Y-116968500D01*
X126941531Y-116968500D01*
X126873410Y-116948498D01*
X126826917Y-116894842D01*
X126816187Y-116829658D01*
X126823672Y-116756600D01*
X126823672Y-116756598D01*
X126824000Y-116753400D01*
X126824000Y-115402600D01*
X126813026Y-115296835D01*
X126757050Y-115129055D01*
X126663978Y-114978652D01*
X126538803Y-114853695D01*
X126532572Y-114849854D01*
X126394468Y-114764725D01*
X126394466Y-114764724D01*
X126388238Y-114760885D01*
X126227754Y-114707655D01*
X126226889Y-114707368D01*
X126226887Y-114707368D01*
X126220361Y-114705203D01*
X126213525Y-114704503D01*
X126213522Y-114704502D01*
X126170469Y-114700091D01*
X126115900Y-114694500D01*
X125090100Y-114694500D01*
X125086854Y-114694837D01*
X125086850Y-114694837D01*
X124991193Y-114704762D01*
X124991189Y-114704763D01*
X124984335Y-114705474D01*
X124977799Y-114707655D01*
X124977797Y-114707655D01*
X124845695Y-114751728D01*
X124816555Y-114761450D01*
X124666152Y-114854522D01*
X124541195Y-114979697D01*
X124537355Y-114985927D01*
X124537354Y-114985928D01*
X124525207Y-115005635D01*
X124448385Y-115130262D01*
X124392703Y-115298139D01*
X124382000Y-115402600D01*
X124382000Y-116753400D01*
X124382337Y-116756646D01*
X124382337Y-116756650D01*
X124389842Y-116828978D01*
X124392974Y-116859165D01*
X124395155Y-116865701D01*
X124395155Y-116865703D01*
X124417427Y-116932460D01*
X124448950Y-117026945D01*
X124542022Y-117177348D01*
X124667197Y-117302305D01*
X124673427Y-117306145D01*
X124673428Y-117306146D01*
X124739052Y-117346597D01*
X124817762Y-117395115D01*
X124882057Y-117416441D01*
X124940416Y-117456870D01*
X124967653Y-117522434D01*
X124966698Y-117546143D01*
X124967708Y-117546207D01*
X124967210Y-117554120D01*
X124965725Y-117561906D01*
X124969251Y-117617951D01*
X124969500Y-117625862D01*
X124969500Y-117667633D01*
X124949498Y-117735754D01*
X124895842Y-117782247D01*
X124883377Y-117787156D01*
X124823499Y-117807133D01*
X124823497Y-117807134D01*
X124816555Y-117809450D01*
X124666152Y-117902522D01*
X124541195Y-118027697D01*
X124537355Y-118033927D01*
X124537354Y-118033928D01*
X124469596Y-118143852D01*
X124448385Y-118178262D01*
X124392703Y-118346139D01*
X124382000Y-118450600D01*
X124382000Y-119801400D01*
X124382337Y-119804646D01*
X124382337Y-119804650D01*
X124391667Y-119894565D01*
X124392974Y-119907165D01*
X124448950Y-120074945D01*
X124542022Y-120225348D01*
X124667197Y-120350305D01*
X124673427Y-120354145D01*
X124673428Y-120354146D01*
X124810590Y-120438694D01*
X124817762Y-120443115D01*
X124874461Y-120461921D01*
X124886478Y-120465907D01*
X124944838Y-120506338D01*
X124972075Y-120571902D01*
X124959542Y-120641783D01*
X124911217Y-120693795D01*
X124846811Y-120711500D01*
X124719600Y-120711500D01*
X124716354Y-120711837D01*
X124716350Y-120711837D01*
X124620692Y-120721762D01*
X124620688Y-120721763D01*
X124613834Y-120722474D01*
X124607298Y-120724655D01*
X124607296Y-120724655D01*
X124516270Y-120755024D01*
X124446054Y-120778450D01*
X124295652Y-120871522D01*
X124170695Y-120996697D01*
X124168094Y-121000916D01*
X124110970Y-121041417D01*
X124040047Y-121044649D01*
X123978635Y-121009024D01*
X123972078Y-121001470D01*
X123968478Y-120995652D01*
X123843303Y-120870695D01*
X123722937Y-120796500D01*
X123698968Y-120781725D01*
X123698966Y-120781724D01*
X123692738Y-120777885D01*
X123612995Y-120751436D01*
X123531389Y-120724368D01*
X123531387Y-120724368D01*
X123524861Y-120722203D01*
X123518025Y-120721503D01*
X123518022Y-120721502D01*
X123474969Y-120717091D01*
X123420400Y-120711500D01*
X123384105Y-120711500D01*
X123315984Y-120691498D01*
X123269491Y-120637842D01*
X123259387Y-120567568D01*
X123288881Y-120502988D01*
X123344229Y-120465976D01*
X123364765Y-120459125D01*
X123414445Y-120442550D01*
X123564848Y-120349478D01*
X123689805Y-120224303D01*
X123693646Y-120218072D01*
X123778775Y-120079968D01*
X123778776Y-120079966D01*
X123782615Y-120073738D01*
X123838297Y-119905861D01*
X123839455Y-119894565D01*
X123848672Y-119804598D01*
X123849000Y-119801400D01*
X123849000Y-118450600D01*
X123848663Y-118447350D01*
X123838738Y-118351693D01*
X123838737Y-118351689D01*
X123838026Y-118344835D01*
X123782050Y-118177055D01*
X123688978Y-118026652D01*
X123563803Y-117901695D01*
X123413238Y-117808885D01*
X123362114Y-117791928D01*
X123347833Y-117787191D01*
X123289473Y-117746760D01*
X123262236Y-117681196D01*
X123261500Y-117667598D01*
X123261500Y-117607776D01*
X123263051Y-117588065D01*
X123264980Y-117575886D01*
X123266220Y-117568057D01*
X123264275Y-117547485D01*
X123277777Y-117477786D01*
X123326818Y-117426449D01*
X123349830Y-117416107D01*
X123414445Y-117394550D01*
X123564848Y-117301478D01*
X123689805Y-117176303D01*
X123693646Y-117170072D01*
X123778775Y-117031968D01*
X123778776Y-117031966D01*
X123782615Y-117025738D01*
X123838297Y-116857861D01*
X123849000Y-116753400D01*
X123849000Y-115402600D01*
X123838026Y-115296835D01*
X123782050Y-115129055D01*
X123688978Y-114978652D01*
X123563803Y-114853695D01*
X123557572Y-114849854D01*
X123419468Y-114764725D01*
X123419466Y-114764724D01*
X123413238Y-114760885D01*
X123252754Y-114707655D01*
X123251889Y-114707368D01*
X123251887Y-114707368D01*
X123245361Y-114705203D01*
X123238525Y-114704503D01*
X123238522Y-114704502D01*
X123195469Y-114700091D01*
X123140900Y-114694500D01*
X122115100Y-114694500D01*
X122111854Y-114694837D01*
X122111850Y-114694837D01*
X122016193Y-114704762D01*
X122016189Y-114704763D01*
X122009335Y-114705474D01*
X122002799Y-114707655D01*
X122002797Y-114707655D01*
X121870695Y-114751728D01*
X121841555Y-114761450D01*
X121691152Y-114854522D01*
X121566195Y-114979697D01*
X121562355Y-114985927D01*
X121562354Y-114985928D01*
X121550207Y-115005635D01*
X121473385Y-115130262D01*
X121417703Y-115298139D01*
X121407000Y-115402600D01*
X121407000Y-116597528D01*
X121386998Y-116665649D01*
X121333342Y-116712142D01*
X121263068Y-116722246D01*
X121254803Y-116720774D01*
X121132953Y-116694873D01*
X121132940Y-116694872D01*
X121126487Y-116693500D01*
X120935513Y-116693500D01*
X120929061Y-116694872D01*
X120929056Y-116694872D01*
X120847810Y-116712142D01*
X120748712Y-116733206D01*
X120742682Y-116735891D01*
X120742681Y-116735891D01*
X120580278Y-116808197D01*
X120580276Y-116808198D01*
X120574248Y-116810882D01*
X120419747Y-116923134D01*
X120415326Y-116928044D01*
X120415325Y-116928045D01*
X120321753Y-117031968D01*
X120291960Y-117065056D01*
X120196473Y-117230444D01*
X120137458Y-117412072D01*
X120136768Y-117418633D01*
X120136768Y-117418635D01*
X120120241Y-117575886D01*
X120117496Y-117602000D01*
X120118186Y-117608565D01*
X120133951Y-117758556D01*
X120137458Y-117791928D01*
X120196473Y-117973556D01*
X120291960Y-118138944D01*
X120296378Y-118143851D01*
X120296379Y-118143852D01*
X120415325Y-118275955D01*
X120419747Y-118280866D01*
X120574248Y-118393118D01*
X120580276Y-118395802D01*
X120580278Y-118395803D01*
X120742681Y-118468109D01*
X120748712Y-118470794D01*
X120832609Y-118488627D01*
X120929056Y-118509128D01*
X120929061Y-118509128D01*
X120935513Y-118510500D01*
X121126487Y-118510500D01*
X121132940Y-118509128D01*
X121132953Y-118509127D01*
X121254803Y-118483226D01*
X121325593Y-118488627D01*
X121382226Y-118531444D01*
X121406720Y-118598081D01*
X121407000Y-118606472D01*
X121407000Y-119801400D01*
X121407337Y-119804646D01*
X121407337Y-119804650D01*
X121416667Y-119894565D01*
X121417974Y-119907165D01*
X121473950Y-120074945D01*
X121567022Y-120225348D01*
X121692197Y-120350305D01*
X121698427Y-120354145D01*
X121698428Y-120354146D01*
X121835590Y-120438694D01*
X121842762Y-120443115D01*
X121911478Y-120465907D01*
X122004111Y-120496632D01*
X122004113Y-120496632D01*
X122010639Y-120498797D01*
X122017475Y-120499497D01*
X122017478Y-120499498D01*
X122060531Y-120503909D01*
X122115100Y-120509500D01*
X122426394Y-120509500D01*
X122494515Y-120529502D01*
X122541008Y-120583158D01*
X122551112Y-120653432D01*
X122521618Y-120718012D01*
X122466270Y-120755024D01*
X122396054Y-120778450D01*
X122245652Y-120871522D01*
X122120695Y-120996697D01*
X122116855Y-121002927D01*
X122116854Y-121002928D01*
X122033396Y-121138322D01*
X122027885Y-121147262D01*
X122025581Y-121154209D01*
X121987912Y-121267779D01*
X121972203Y-121315139D01*
X121961500Y-121419600D01*
X121961500Y-122420400D01*
X121961837Y-122423646D01*
X121961837Y-122423650D01*
X121972474Y-122526166D01*
X121969403Y-122526485D01*
X121965173Y-122583801D01*
X121922497Y-122640540D01*
X121855920Y-122665199D01*
X121847218Y-122665500D01*
X121719981Y-122665500D01*
X121651860Y-122645498D01*
X121642333Y-122638223D01*
X121642253Y-122638134D01*
X121585869Y-122597168D01*
X121493094Y-122529763D01*
X121493093Y-122529762D01*
X121487752Y-122525882D01*
X121481724Y-122523198D01*
X121481722Y-122523197D01*
X121319319Y-122450891D01*
X121319318Y-122450891D01*
X121313288Y-122448206D01*
X121197762Y-122423650D01*
X121132944Y-122409872D01*
X121132939Y-122409872D01*
X121126487Y-122408500D01*
X120935513Y-122408500D01*
X120929061Y-122409872D01*
X120929056Y-122409872D01*
X120864238Y-122423650D01*
X120748712Y-122448206D01*
X120742682Y-122450891D01*
X120742681Y-122450891D01*
X120580278Y-122523197D01*
X120580276Y-122523198D01*
X120574248Y-122525882D01*
X120419747Y-122638134D01*
X120415326Y-122643044D01*
X120415325Y-122643045D01*
X120395107Y-122665500D01*
X120291960Y-122780056D01*
X120196473Y-122945444D01*
X120137458Y-123127072D01*
X120136768Y-123133633D01*
X120136768Y-123133635D01*
X120120824Y-123285333D01*
X120117496Y-123317000D01*
X120137458Y-123506928D01*
X120196473Y-123688556D01*
X120199776Y-123694278D01*
X120199777Y-123694279D01*
X120212601Y-123716491D01*
X120291960Y-123853944D01*
X120419747Y-123995866D01*
X120469875Y-124032286D01*
X120555820Y-124094729D01*
X120574248Y-124108118D01*
X120580276Y-124110802D01*
X120580278Y-124110803D01*
X120742681Y-124183109D01*
X120748712Y-124185794D01*
X120842112Y-124205647D01*
X120929056Y-124224128D01*
X120929061Y-124224128D01*
X120935513Y-124225500D01*
X121126487Y-124225500D01*
X121132939Y-124224128D01*
X121132944Y-124224128D01*
X121219888Y-124205647D01*
X121313288Y-124185794D01*
X121319319Y-124183109D01*
X121481722Y-124110803D01*
X121481724Y-124110802D01*
X121487752Y-124108118D01*
X121506181Y-124094729D01*
X121592125Y-124032286D01*
X121642253Y-123995866D01*
X121661772Y-123974188D01*
X121722215Y-123936950D01*
X121755406Y-123932500D01*
X121856249Y-123932500D01*
X121924370Y-123952502D01*
X121970863Y-124006158D01*
X121980967Y-124076432D01*
X121975843Y-124098164D01*
X121972203Y-124109139D01*
X121961500Y-124213600D01*
X121961500Y-125214400D01*
X121961837Y-125217646D01*
X121961837Y-125217650D01*
X121965310Y-125251118D01*
X121972474Y-125320166D01*
X121974655Y-125326702D01*
X121974655Y-125326704D01*
X122018728Y-125458806D01*
X122028450Y-125487946D01*
X122121522Y-125638348D01*
X122246697Y-125763305D01*
X122252927Y-125767145D01*
X122252928Y-125767146D01*
X122390090Y-125851694D01*
X122397262Y-125856115D01*
X122477005Y-125882564D01*
X122558611Y-125909632D01*
X122558613Y-125909632D01*
X122565139Y-125911797D01*
X122571975Y-125912497D01*
X122571978Y-125912498D01*
X122615031Y-125916909D01*
X122669600Y-125922500D01*
X122695874Y-125922500D01*
X122763995Y-125942502D01*
X122810488Y-125996158D01*
X122820592Y-126066432D01*
X122791098Y-126131012D01*
X122735750Y-126168024D01*
X122611893Y-126209346D01*
X122463969Y-126300884D01*
X122458796Y-126306066D01*
X122346242Y-126418816D01*
X122346238Y-126418821D01*
X122341071Y-126423997D01*
X122337231Y-126430227D01*
X122337230Y-126430228D01*
X122254364Y-126564662D01*
X122249791Y-126572080D01*
X122195026Y-126737191D01*
X122184500Y-126839928D01*
X122184500Y-127414072D01*
X122184837Y-127417318D01*
X122184837Y-127417322D01*
X122192365Y-127489872D01*
X122195293Y-127518093D01*
X122197474Y-127524629D01*
X122197474Y-127524631D01*
X122212485Y-127569624D01*
X122215069Y-127640574D01*
X122178885Y-127701657D01*
X122115421Y-127733482D01*
X122092961Y-127735500D01*
X121707095Y-127735500D01*
X121638974Y-127715498D01*
X121633034Y-127711436D01*
X121493094Y-127609763D01*
X121493093Y-127609762D01*
X121487752Y-127605882D01*
X121481724Y-127603198D01*
X121481722Y-127603197D01*
X121319319Y-127530891D01*
X121319318Y-127530891D01*
X121313288Y-127528206D01*
X121219887Y-127508353D01*
X121132944Y-127489872D01*
X121132939Y-127489872D01*
X121126487Y-127488500D01*
X120935513Y-127488500D01*
X120929061Y-127489872D01*
X120929056Y-127489872D01*
X120842113Y-127508353D01*
X120748712Y-127528206D01*
X120742682Y-127530891D01*
X120742681Y-127530891D01*
X120580278Y-127603197D01*
X120580276Y-127603198D01*
X120574248Y-127605882D01*
X120419747Y-127718134D01*
X120415326Y-127723044D01*
X120415325Y-127723045D01*
X120401770Y-127738100D01*
X120291960Y-127860056D01*
X120196473Y-128025444D01*
X120137458Y-128207072D01*
X120117496Y-128397000D01*
X120137458Y-128586928D01*
X120196473Y-128768556D01*
X120291960Y-128933944D01*
X120296378Y-128938851D01*
X120296379Y-128938852D01*
X120409781Y-129064798D01*
X120419747Y-129075866D01*
X120574248Y-129188118D01*
X120580276Y-129190802D01*
X120580278Y-129190803D01*
X120742681Y-129263109D01*
X120748712Y-129265794D01*
X120842112Y-129285647D01*
X120929056Y-129304128D01*
X120929061Y-129304128D01*
X120935513Y-129305500D01*
X121126487Y-129305500D01*
X121132939Y-129304128D01*
X121132944Y-129304128D01*
X121219888Y-129285647D01*
X121313288Y-129265794D01*
X121319319Y-129263109D01*
X121481722Y-129190803D01*
X121481724Y-129190802D01*
X121487752Y-129188118D01*
X121642253Y-129075866D01*
X121670776Y-129044188D01*
X121731219Y-129006950D01*
X121764410Y-129002500D01*
X122155939Y-129002500D01*
X122224060Y-129022502D01*
X122270553Y-129076158D01*
X122280657Y-129146432D01*
X122263199Y-129194616D01*
X122240364Y-129231662D01*
X122235791Y-129239080D01*
X122181026Y-129404191D01*
X122170500Y-129506928D01*
X122170500Y-130081072D01*
X122181293Y-130185093D01*
X122236346Y-130350107D01*
X122327884Y-130498031D01*
X122333066Y-130503204D01*
X122445816Y-130615758D01*
X122445821Y-130615762D01*
X122450997Y-130620929D01*
X122599080Y-130712209D01*
X122712612Y-130749866D01*
X122745622Y-130760815D01*
X122803981Y-130801246D01*
X122831218Y-130866810D01*
X122818684Y-130936692D01*
X122795049Y-130969503D01*
X122768070Y-130996482D01*
X122684252Y-131134882D01*
X122635866Y-131289281D01*
X122629500Y-131358563D01*
X122629501Y-131553872D01*
X122629501Y-131652700D01*
X122609499Y-131720820D01*
X122555844Y-131767313D01*
X122503501Y-131778700D01*
X121678467Y-131778700D01*
X121604406Y-131754636D01*
X121493094Y-131673763D01*
X121493093Y-131673762D01*
X121487752Y-131669882D01*
X121481724Y-131667198D01*
X121481722Y-131667197D01*
X121319319Y-131594891D01*
X121319318Y-131594891D01*
X121313288Y-131592206D01*
X121219887Y-131572353D01*
X121132944Y-131553872D01*
X121132939Y-131553872D01*
X121126487Y-131552500D01*
X120935513Y-131552500D01*
X120929061Y-131553872D01*
X120929056Y-131553872D01*
X120842113Y-131572353D01*
X120748712Y-131592206D01*
X120742682Y-131594891D01*
X120742681Y-131594891D01*
X120580278Y-131667197D01*
X120580276Y-131667198D01*
X120574248Y-131669882D01*
X120568907Y-131673762D01*
X120568906Y-131673763D01*
X120553467Y-131684980D01*
X120419747Y-131782134D01*
X120415326Y-131787044D01*
X120415325Y-131787045D01*
X120401770Y-131802100D01*
X120291960Y-131924056D01*
X120196473Y-132089444D01*
X120137458Y-132271072D01*
X120136768Y-132277633D01*
X120136768Y-132277635D01*
X120122359Y-132414733D01*
X120117496Y-132461000D01*
X109186324Y-132461000D01*
X109149443Y-132418945D01*
X109145910Y-132414733D01*
X108617082Y-131755827D01*
X108613735Y-131751466D01*
X108323545Y-131355697D01*
X108114111Y-131070065D01*
X108110982Y-131065596D01*
X107732422Y-130499040D01*
X107641563Y-130363060D01*
X107638609Y-130358424D01*
X107200278Y-129636077D01*
X107197561Y-129631372D01*
X106981691Y-129237893D01*
X106791143Y-128890569D01*
X106788605Y-128885692D01*
X106414917Y-128127927D01*
X106412594Y-128122945D01*
X106145887Y-127516809D01*
X106072307Y-127349585D01*
X106070207Y-127344516D01*
X105898914Y-126904037D01*
X105763970Y-126557028D01*
X105762095Y-126551877D01*
X105717995Y-126421960D01*
X105524416Y-125851694D01*
X105490509Y-125751808D01*
X105488856Y-125746565D01*
X105366304Y-125326109D01*
X105252428Y-124935415D01*
X105251006Y-124930111D01*
X105182445Y-124649928D01*
X105135970Y-124460000D01*
X110338496Y-124460000D01*
X110358458Y-124649928D01*
X110417473Y-124831556D01*
X110512960Y-124996944D01*
X110640747Y-125138866D01*
X110795248Y-125251118D01*
X110801276Y-125253802D01*
X110801278Y-125253803D01*
X110947402Y-125318861D01*
X110969712Y-125328794D01*
X111063113Y-125348647D01*
X111150056Y-125367128D01*
X111150061Y-125367128D01*
X111156513Y-125368500D01*
X111347487Y-125368500D01*
X111353939Y-125367128D01*
X111353944Y-125367128D01*
X111440887Y-125348647D01*
X111534288Y-125328794D01*
X111556598Y-125318861D01*
X111702722Y-125253803D01*
X111702724Y-125253802D01*
X111708752Y-125251118D01*
X111863253Y-125138866D01*
X111991040Y-124996944D01*
X112086527Y-124831556D01*
X112145542Y-124649928D01*
X112165504Y-124460000D01*
X112155656Y-124366305D01*
X112146232Y-124276635D01*
X112146232Y-124276633D01*
X112145542Y-124270072D01*
X112086527Y-124088444D01*
X112054104Y-124032286D01*
X112036759Y-124002243D01*
X112020021Y-123933247D01*
X112043242Y-123866156D01*
X112099049Y-123822269D01*
X112169724Y-123815520D01*
X112181024Y-123818244D01*
X112210867Y-123826914D01*
X112261992Y-123841768D01*
X112261997Y-123841769D01*
X112268169Y-123843562D01*
X112274574Y-123844066D01*
X112274579Y-123844067D01*
X112303042Y-123846307D01*
X112303050Y-123846307D01*
X112305498Y-123846500D01*
X112738502Y-123846500D01*
X112740950Y-123846307D01*
X112740958Y-123846307D01*
X112769421Y-123844067D01*
X112769426Y-123844066D01*
X112775831Y-123843562D01*
X112875769Y-123814528D01*
X112927988Y-123799357D01*
X112927990Y-123799356D01*
X112935601Y-123797145D01*
X113078807Y-123712453D01*
X113081489Y-123709771D01*
X113145861Y-123684498D01*
X113215484Y-123698400D01*
X113231312Y-123708572D01*
X113235193Y-123712453D01*
X113378399Y-123797145D01*
X113386010Y-123799356D01*
X113386012Y-123799357D01*
X113438231Y-123814528D01*
X113538169Y-123843562D01*
X113544574Y-123844066D01*
X113544579Y-123844067D01*
X113573042Y-123846307D01*
X113573050Y-123846307D01*
X113575498Y-123846500D01*
X114008502Y-123846500D01*
X114010950Y-123846307D01*
X114010958Y-123846307D01*
X114039421Y-123844067D01*
X114039426Y-123844066D01*
X114045831Y-123843562D01*
X114145769Y-123814528D01*
X114197988Y-123799357D01*
X114197990Y-123799356D01*
X114205601Y-123797145D01*
X114348807Y-123712453D01*
X114351747Y-123709513D01*
X114416271Y-123684179D01*
X114485894Y-123698080D01*
X114504640Y-123710129D01*
X114512323Y-123716089D01*
X114641779Y-123792648D01*
X114656210Y-123798893D01*
X114790605Y-123837939D01*
X114804706Y-123837899D01*
X114808000Y-123830630D01*
X114808000Y-123824878D01*
X115316000Y-123824878D01*
X115319973Y-123838409D01*
X115327871Y-123839544D01*
X115467790Y-123798893D01*
X115482221Y-123792648D01*
X115611678Y-123716089D01*
X115624104Y-123706449D01*
X115730449Y-123600104D01*
X115740089Y-123587678D01*
X115816648Y-123458221D01*
X115822893Y-123443790D01*
X115865269Y-123297935D01*
X115867570Y-123285333D01*
X115869807Y-123256916D01*
X115870000Y-123251986D01*
X115870000Y-122635115D01*
X115865525Y-122619876D01*
X115864135Y-122618671D01*
X115856452Y-122617000D01*
X115334115Y-122617000D01*
X115318876Y-122621475D01*
X115317671Y-122622865D01*
X115316000Y-122630548D01*
X115316000Y-123824878D01*
X114808000Y-123824878D01*
X114808000Y-122235000D01*
X114828002Y-122166879D01*
X114881658Y-122120386D01*
X114934000Y-122109000D01*
X115851884Y-122109000D01*
X115867123Y-122104525D01*
X115868328Y-122103135D01*
X115869999Y-122095452D01*
X115869999Y-121474017D01*
X115869805Y-121469080D01*
X115867570Y-121440664D01*
X115865270Y-121428069D01*
X115822893Y-121282210D01*
X115816648Y-121267779D01*
X115740089Y-121138322D01*
X115730449Y-121125896D01*
X115624104Y-121019551D01*
X115611678Y-121009911D01*
X115482223Y-120933353D01*
X115474606Y-120930057D01*
X115420031Y-120884646D01*
X115398670Y-120816939D01*
X115417306Y-120748432D01*
X115473396Y-120699312D01*
X115512722Y-120681803D01*
X115512724Y-120681802D01*
X115518752Y-120679118D01*
X115673253Y-120566866D01*
X115733911Y-120499498D01*
X115796621Y-120429852D01*
X115796622Y-120429851D01*
X115801040Y-120424944D01*
X115896527Y-120259556D01*
X115955542Y-120077928D01*
X115974211Y-119900307D01*
X115974814Y-119894565D01*
X115975504Y-119888000D01*
X115955542Y-119698072D01*
X115896527Y-119516444D01*
X115801040Y-119351056D01*
X115727863Y-119269785D01*
X115697147Y-119205779D01*
X115695500Y-119185476D01*
X115695500Y-118737950D01*
X115715502Y-118669829D01*
X115726059Y-118656729D01*
X115725989Y-118656675D01*
X115730845Y-118650415D01*
X115736453Y-118644807D01*
X115740489Y-118637983D01*
X115740491Y-118637980D01*
X115815882Y-118510500D01*
X115821145Y-118501601D01*
X115826484Y-118483226D01*
X115855932Y-118381861D01*
X115867562Y-118341831D01*
X115870500Y-118304502D01*
X115870500Y-116521498D01*
X115870307Y-116519042D01*
X115868067Y-116490579D01*
X115868066Y-116490574D01*
X115867562Y-116484169D01*
X115821145Y-116324399D01*
X115796414Y-116282581D01*
X115740491Y-116188020D01*
X115740489Y-116188017D01*
X115736453Y-116181193D01*
X115730844Y-116175584D01*
X115725989Y-116169325D01*
X115727496Y-116168156D01*
X115698379Y-116114833D01*
X115695500Y-116088050D01*
X115695500Y-115891524D01*
X115715502Y-115823403D01*
X115727858Y-115807221D01*
X115801040Y-115725944D01*
X115896527Y-115560556D01*
X115955542Y-115378928D01*
X115963450Y-115303693D01*
X115974814Y-115195565D01*
X115975504Y-115189000D01*
X115969934Y-115136003D01*
X115956232Y-115005635D01*
X115956232Y-115005633D01*
X115955542Y-114999072D01*
X115896527Y-114817444D01*
X115862861Y-114759132D01*
X115831320Y-114704502D01*
X115801040Y-114652056D01*
X115673253Y-114510134D01*
X115518752Y-114397882D01*
X115512724Y-114395198D01*
X115512722Y-114395197D01*
X115350319Y-114322891D01*
X115350318Y-114322891D01*
X115344288Y-114320206D01*
X115250887Y-114300353D01*
X115163944Y-114281872D01*
X115163939Y-114281872D01*
X115157487Y-114280500D01*
X115005744Y-114280500D01*
X114937623Y-114260498D01*
X114891130Y-114206842D01*
X114881026Y-114136568D01*
X114910520Y-114071988D01*
X114916571Y-114065482D01*
X114998739Y-113983171D01*
X115007751Y-113971760D01*
X115092816Y-113833757D01*
X115098963Y-113820576D01*
X115150138Y-113666290D01*
X115153005Y-113652914D01*
X115162672Y-113558562D01*
X115163000Y-113552146D01*
X115163000Y-113302115D01*
X115158525Y-113286876D01*
X115157135Y-113285671D01*
X115149452Y-113284000D01*
X113939500Y-113284000D01*
X113871379Y-113263998D01*
X113824886Y-113210342D01*
X113813500Y-113158000D01*
X113813500Y-112757885D01*
X114321500Y-112757885D01*
X114325975Y-112773124D01*
X114327365Y-112774329D01*
X114335048Y-112776000D01*
X115144884Y-112776000D01*
X115160123Y-112771525D01*
X115161328Y-112770135D01*
X115162999Y-112762452D01*
X115162999Y-112507905D01*
X115162662Y-112501386D01*
X115152743Y-112405794D01*
X115149851Y-112392400D01*
X115098412Y-112238216D01*
X115092239Y-112225038D01*
X115006937Y-112087193D01*
X114997901Y-112075792D01*
X114883171Y-111961261D01*
X114871760Y-111952249D01*
X114733757Y-111867184D01*
X114720576Y-111861037D01*
X114566290Y-111809862D01*
X114552914Y-111806995D01*
X114458562Y-111797328D01*
X114452145Y-111797000D01*
X114339615Y-111797000D01*
X114324376Y-111801475D01*
X114323171Y-111802865D01*
X114321500Y-111810548D01*
X114321500Y-112757885D01*
X113813500Y-112757885D01*
X113813500Y-111815116D01*
X113809025Y-111799877D01*
X113807635Y-111798672D01*
X113799952Y-111797001D01*
X113682905Y-111797001D01*
X113676386Y-111797338D01*
X113580794Y-111807257D01*
X113567400Y-111810149D01*
X113413216Y-111861588D01*
X113400038Y-111867761D01*
X113262193Y-111953063D01*
X113250792Y-111962099D01*
X113136262Y-112076828D01*
X113129206Y-112085762D01*
X113071288Y-112126823D01*
X113000365Y-112130053D01*
X112938954Y-112094426D01*
X112932154Y-112086593D01*
X112928478Y-112080652D01*
X112803303Y-111955695D01*
X112797072Y-111951854D01*
X112658968Y-111866725D01*
X112658966Y-111866724D01*
X112652738Y-111862885D01*
X112572995Y-111836436D01*
X112491389Y-111809368D01*
X112491387Y-111809368D01*
X112484861Y-111807203D01*
X112478025Y-111806503D01*
X112478022Y-111806502D01*
X112434969Y-111802091D01*
X112380400Y-111796500D01*
X111604600Y-111796500D01*
X111601354Y-111796837D01*
X111601350Y-111796837D01*
X111505692Y-111806762D01*
X111505688Y-111806763D01*
X111498834Y-111807474D01*
X111492298Y-111809655D01*
X111492296Y-111809655D01*
X111475928Y-111815116D01*
X111331054Y-111863450D01*
X111180652Y-111956522D01*
X111055695Y-112081697D01*
X111051855Y-112087927D01*
X111051854Y-112087928D01*
X111002909Y-112167332D01*
X110962885Y-112232262D01*
X110907203Y-112400139D01*
X110906503Y-112406975D01*
X110906502Y-112406978D01*
X110903991Y-112431484D01*
X110896500Y-112504600D01*
X110896500Y-113182014D01*
X110876498Y-113250135D01*
X110872435Y-113256077D01*
X110867841Y-113262400D01*
X110862414Y-113268179D01*
X110858595Y-113275125D01*
X110858593Y-113275128D01*
X110852652Y-113285934D01*
X110841801Y-113302453D01*
X110829386Y-113318459D01*
X110826241Y-113325728D01*
X110826238Y-113325732D01*
X110811826Y-113359037D01*
X110806609Y-113369687D01*
X110785305Y-113408440D01*
X110783334Y-113416115D01*
X110783334Y-113416116D01*
X110780267Y-113428062D01*
X110773863Y-113446766D01*
X110765819Y-113465355D01*
X110764580Y-113473178D01*
X110764577Y-113473188D01*
X110758901Y-113509024D01*
X110756495Y-113520644D01*
X110745500Y-113563470D01*
X110745500Y-113583724D01*
X110743949Y-113603434D01*
X110740780Y-113623443D01*
X110741526Y-113631335D01*
X110744941Y-113667461D01*
X110745500Y-113679319D01*
X110745500Y-114486476D01*
X110725498Y-114554597D01*
X110713142Y-114570779D01*
X110639960Y-114652056D01*
X110609680Y-114704502D01*
X110578140Y-114759132D01*
X110544473Y-114817444D01*
X110485458Y-114999072D01*
X110484768Y-115005633D01*
X110484768Y-115005635D01*
X110471066Y-115136003D01*
X110465496Y-115189000D01*
X110466186Y-115195565D01*
X110477551Y-115303693D01*
X110485458Y-115378928D01*
X110544473Y-115560556D01*
X110639960Y-115725944D01*
X110713137Y-115807215D01*
X110743853Y-115871221D01*
X110745500Y-115891524D01*
X110745500Y-115964056D01*
X110725498Y-116032177D01*
X110698673Y-116061489D01*
X110695193Y-116063547D01*
X110577547Y-116181193D01*
X110573511Y-116188017D01*
X110573509Y-116188020D01*
X110517586Y-116282581D01*
X110492855Y-116324399D01*
X110446438Y-116484169D01*
X110445934Y-116490574D01*
X110445933Y-116490579D01*
X110443693Y-116519042D01*
X110443500Y-116521498D01*
X110443500Y-118304502D01*
X110446438Y-118341831D01*
X110458068Y-118381861D01*
X110487517Y-118483226D01*
X110492855Y-118501601D01*
X110498118Y-118510500D01*
X110573509Y-118637980D01*
X110573511Y-118637983D01*
X110577547Y-118644807D01*
X110695193Y-118762453D01*
X110702017Y-118766489D01*
X110702020Y-118766491D01*
X110793000Y-118820296D01*
X110838399Y-118847145D01*
X110846010Y-118849356D01*
X110846012Y-118849357D01*
X110898231Y-118864528D01*
X110998169Y-118893562D01*
X111004574Y-118894066D01*
X111004579Y-118894067D01*
X111033042Y-118896307D01*
X111033050Y-118896307D01*
X111035498Y-118896500D01*
X111468502Y-118896500D01*
X111470950Y-118896307D01*
X111470958Y-118896307D01*
X111499421Y-118894067D01*
X111499426Y-118894066D01*
X111505831Y-118893562D01*
X111605769Y-118864528D01*
X111657988Y-118849357D01*
X111657990Y-118849356D01*
X111665601Y-118847145D01*
X111808807Y-118762453D01*
X111811489Y-118759771D01*
X111875861Y-118734498D01*
X111945484Y-118748400D01*
X111961312Y-118758572D01*
X111965193Y-118762453D01*
X112108399Y-118847145D01*
X112116010Y-118849356D01*
X112116012Y-118849357D01*
X112168231Y-118864528D01*
X112268169Y-118893562D01*
X112274574Y-118894066D01*
X112274579Y-118894067D01*
X112303042Y-118896307D01*
X112303050Y-118896307D01*
X112305498Y-118896500D01*
X112738502Y-118896500D01*
X112740950Y-118896307D01*
X112740958Y-118896307D01*
X112769421Y-118894067D01*
X112769426Y-118894066D01*
X112775831Y-118893562D01*
X112875769Y-118864528D01*
X112927988Y-118849357D01*
X112927990Y-118849356D01*
X112935601Y-118847145D01*
X113078807Y-118762453D01*
X113081489Y-118759771D01*
X113145861Y-118734498D01*
X113215484Y-118748400D01*
X113231312Y-118758572D01*
X113235193Y-118762453D01*
X113304782Y-118803608D01*
X113371575Y-118843110D01*
X113371579Y-118843112D01*
X113378399Y-118847145D01*
X113380674Y-118847806D01*
X113433347Y-118891638D01*
X113454704Y-118959346D01*
X113436065Y-119027853D01*
X113379978Y-119076967D01*
X113341278Y-119094197D01*
X113341276Y-119094198D01*
X113335248Y-119096882D01*
X113180747Y-119209134D01*
X113052960Y-119351056D01*
X112957473Y-119516444D01*
X112898458Y-119698072D01*
X112878496Y-119888000D01*
X112879186Y-119894565D01*
X112879790Y-119900307D01*
X112898458Y-120077928D01*
X112957473Y-120259556D01*
X112960776Y-120265278D01*
X112960777Y-120265279D01*
X113052960Y-120424944D01*
X113050696Y-120426251D01*
X113070632Y-120482112D01*
X113054557Y-120551265D01*
X113033933Y-120578411D01*
X112769749Y-120842595D01*
X112707437Y-120876621D01*
X112680654Y-120879500D01*
X112305498Y-120879500D01*
X112303050Y-120879693D01*
X112303042Y-120879693D01*
X112274579Y-120881933D01*
X112274574Y-120881934D01*
X112268169Y-120882438D01*
X112168231Y-120911472D01*
X112116012Y-120926643D01*
X112116010Y-120926644D01*
X112108399Y-120928855D01*
X111965193Y-121013547D01*
X111962511Y-121016229D01*
X111898139Y-121041502D01*
X111828516Y-121027600D01*
X111812688Y-121017428D01*
X111808807Y-121013547D01*
X111665601Y-120928855D01*
X111657990Y-120926644D01*
X111657988Y-120926643D01*
X111605769Y-120911472D01*
X111505831Y-120882438D01*
X111499426Y-120881934D01*
X111499421Y-120881933D01*
X111470958Y-120879693D01*
X111470950Y-120879693D01*
X111468502Y-120879500D01*
X111035498Y-120879500D01*
X111033050Y-120879693D01*
X111033042Y-120879693D01*
X111004579Y-120881933D01*
X111004574Y-120881934D01*
X110998169Y-120882438D01*
X110898231Y-120911472D01*
X110846012Y-120926643D01*
X110846010Y-120926644D01*
X110838399Y-120928855D01*
X110831572Y-120932892D01*
X110831573Y-120932892D01*
X110702020Y-121009509D01*
X110702017Y-121009511D01*
X110695193Y-121013547D01*
X110577547Y-121131193D01*
X110573511Y-121138017D01*
X110573509Y-121138020D01*
X110509893Y-121245589D01*
X110492855Y-121274399D01*
X110490644Y-121282010D01*
X110490643Y-121282012D01*
X110481398Y-121313834D01*
X110446438Y-121434169D01*
X110445934Y-121440574D01*
X110445933Y-121440579D01*
X110443693Y-121469042D01*
X110443500Y-121471498D01*
X110443500Y-123254502D01*
X110443693Y-123256950D01*
X110443693Y-123256958D01*
X110445927Y-123285333D01*
X110446438Y-123291831D01*
X110465918Y-123358883D01*
X110490586Y-123443790D01*
X110492855Y-123451601D01*
X110496892Y-123458427D01*
X110573509Y-123587980D01*
X110573511Y-123587983D01*
X110577547Y-123594807D01*
X110583155Y-123600415D01*
X110588011Y-123606675D01*
X110586504Y-123607844D01*
X110615621Y-123661167D01*
X110618500Y-123687950D01*
X110618500Y-123757476D01*
X110598498Y-123825597D01*
X110586142Y-123841779D01*
X110512960Y-123923056D01*
X110417473Y-124088444D01*
X110358458Y-124270072D01*
X110357768Y-124276633D01*
X110357768Y-124276635D01*
X110348344Y-124366305D01*
X110338496Y-124460000D01*
X105135970Y-124460000D01*
X105050176Y-124109388D01*
X105048989Y-124104035D01*
X105047822Y-124098165D01*
X104948752Y-123600104D01*
X104884159Y-123275371D01*
X104883204Y-123269958D01*
X104766341Y-122510694D01*
X104754668Y-122434852D01*
X104753951Y-122429403D01*
X104748999Y-122384185D01*
X104661970Y-121589523D01*
X104661491Y-121584051D01*
X104654114Y-121471498D01*
X104606232Y-120740950D01*
X104605992Y-120735463D01*
X104605477Y-120711837D01*
X104587560Y-119890749D01*
X104587560Y-119885251D01*
X104599323Y-119346153D01*
X104605992Y-119040531D01*
X104606232Y-119035045D01*
X104609502Y-118985163D01*
X104661491Y-118191945D01*
X104661970Y-118186473D01*
X104662109Y-118185209D01*
X104753951Y-117346595D01*
X104754668Y-117341146D01*
X104883204Y-116506042D01*
X104884159Y-116500629D01*
X104990889Y-115964056D01*
X105048992Y-115671950D01*
X105050179Y-115666597D01*
X105076128Y-115560556D01*
X105251007Y-114845885D01*
X105252429Y-114840580D01*
X105488856Y-114029435D01*
X105490509Y-114024192D01*
X105609595Y-113673375D01*
X105762100Y-113224108D01*
X105763975Y-113218957D01*
X105767326Y-113210342D01*
X106070211Y-112431474D01*
X106072311Y-112426405D01*
X106083869Y-112400139D01*
X106226585Y-112075792D01*
X106412594Y-111653055D01*
X106414917Y-111648073D01*
X106788605Y-110890308D01*
X106791143Y-110885431D01*
X107066884Y-110382821D01*
X107077758Y-110363000D01*
X120117496Y-110363000D01*
X120137458Y-110552928D01*
X120196473Y-110734556D01*
X120291960Y-110899944D01*
X120296378Y-110904851D01*
X120296379Y-110904852D01*
X120358367Y-110973697D01*
X120419747Y-111041866D01*
X120518843Y-111113864D01*
X120542717Y-111131209D01*
X120574248Y-111154118D01*
X120580276Y-111156802D01*
X120580278Y-111156803D01*
X120742681Y-111229109D01*
X120748712Y-111231794D01*
X120832012Y-111249500D01*
X120929056Y-111270128D01*
X120929061Y-111270128D01*
X120935513Y-111271500D01*
X121126487Y-111271500D01*
X121132940Y-111270128D01*
X121132953Y-111270127D01*
X121257179Y-111243721D01*
X121327969Y-111249122D01*
X121384602Y-111291939D01*
X121409096Y-111358576D01*
X121408720Y-111379807D01*
X121407333Y-111393350D01*
X121407000Y-111396600D01*
X121407000Y-113647400D01*
X121417974Y-113753165D01*
X121420155Y-113759701D01*
X121420155Y-113759703D01*
X121444862Y-113833757D01*
X121473950Y-113920945D01*
X121567022Y-114071348D01*
X121572204Y-114076521D01*
X121607620Y-114111875D01*
X121692197Y-114196305D01*
X121698427Y-114200145D01*
X121698428Y-114200146D01*
X121835590Y-114284694D01*
X121842762Y-114289115D01*
X121922505Y-114315564D01*
X122004111Y-114342632D01*
X122004113Y-114342632D01*
X122010639Y-114344797D01*
X122017475Y-114345497D01*
X122017478Y-114345498D01*
X122060531Y-114349909D01*
X122115100Y-114355500D01*
X123140900Y-114355500D01*
X123144146Y-114355163D01*
X123144150Y-114355163D01*
X123239807Y-114345238D01*
X123239811Y-114345237D01*
X123246665Y-114344526D01*
X123253201Y-114342345D01*
X123253203Y-114342345D01*
X123402914Y-114292397D01*
X123414445Y-114288550D01*
X123564848Y-114195478D01*
X123689805Y-114070303D01*
X123716625Y-114026793D01*
X123778775Y-113925968D01*
X123778776Y-113925966D01*
X123782615Y-113919738D01*
X123838297Y-113751861D01*
X123849000Y-113647400D01*
X124382000Y-113647400D01*
X124392974Y-113753165D01*
X124395155Y-113759701D01*
X124395155Y-113759703D01*
X124419862Y-113833757D01*
X124448950Y-113920945D01*
X124542022Y-114071348D01*
X124547204Y-114076521D01*
X124582620Y-114111875D01*
X124667197Y-114196305D01*
X124673427Y-114200145D01*
X124673428Y-114200146D01*
X124810590Y-114284694D01*
X124817762Y-114289115D01*
X124897505Y-114315564D01*
X124979111Y-114342632D01*
X124979113Y-114342632D01*
X124985639Y-114344797D01*
X124992475Y-114345497D01*
X124992478Y-114345498D01*
X125035531Y-114349909D01*
X125090100Y-114355500D01*
X126115900Y-114355500D01*
X126119146Y-114355163D01*
X126119150Y-114355163D01*
X126214807Y-114345238D01*
X126214811Y-114345237D01*
X126221665Y-114344526D01*
X126228201Y-114342345D01*
X126228203Y-114342345D01*
X126377914Y-114292397D01*
X126389445Y-114288550D01*
X126539848Y-114195478D01*
X126664805Y-114070303D01*
X126691625Y-114026793D01*
X126753775Y-113925968D01*
X126753776Y-113925966D01*
X126757615Y-113919738D01*
X126813297Y-113751861D01*
X126824000Y-113647400D01*
X126824000Y-111396600D01*
X126813026Y-111290835D01*
X126810844Y-111284293D01*
X126809389Y-111277558D01*
X126812082Y-111276976D01*
X126809963Y-111218394D01*
X126846163Y-111157320D01*
X126909635Y-111125512D01*
X126932063Y-111123500D01*
X129245500Y-111123500D01*
X129313621Y-111143502D01*
X129360114Y-111197158D01*
X129371500Y-111249500D01*
X129371500Y-111615400D01*
X129371837Y-111618646D01*
X129371837Y-111618650D01*
X129375146Y-111650536D01*
X129382474Y-111721166D01*
X129438450Y-111888946D01*
X129531522Y-112039348D01*
X129656697Y-112164305D01*
X129662927Y-112168145D01*
X129662928Y-112168146D01*
X129800090Y-112252694D01*
X129807262Y-112257115D01*
X129887005Y-112283564D01*
X129968611Y-112310632D01*
X129968613Y-112310632D01*
X129975139Y-112312797D01*
X129981975Y-112313497D01*
X129981978Y-112313498D01*
X130025031Y-112317909D01*
X130079600Y-112323500D01*
X130980400Y-112323500D01*
X130983646Y-112323163D01*
X130983650Y-112323163D01*
X131079308Y-112313238D01*
X131079312Y-112313237D01*
X131086166Y-112312526D01*
X131092702Y-112310345D01*
X131092704Y-112310345D01*
X131224806Y-112266272D01*
X131253946Y-112256550D01*
X131404348Y-112163478D01*
X131529305Y-112038303D01*
X131581848Y-111953063D01*
X131618275Y-111893968D01*
X131618276Y-111893966D01*
X131622115Y-111887738D01*
X131652099Y-111797338D01*
X131675632Y-111726389D01*
X131675632Y-111726387D01*
X131677797Y-111719861D01*
X131688500Y-111615400D01*
X131688500Y-111491178D01*
X131708502Y-111423057D01*
X131762158Y-111376564D01*
X131832432Y-111366460D01*
X131840697Y-111367931D01*
X131978056Y-111397128D01*
X131978061Y-111397128D01*
X131984513Y-111398500D01*
X132175487Y-111398500D01*
X132181939Y-111397128D01*
X132181944Y-111397128D01*
X132319303Y-111367931D01*
X132390094Y-111373333D01*
X132446726Y-111416150D01*
X132471220Y-111482788D01*
X132471500Y-111491178D01*
X132471500Y-111615400D01*
X132471837Y-111618646D01*
X132471837Y-111618650D01*
X132475146Y-111650536D01*
X132482474Y-111721166D01*
X132538450Y-111888946D01*
X132631522Y-112039348D01*
X132756697Y-112164305D01*
X132762927Y-112168145D01*
X132762928Y-112168146D01*
X132900090Y-112252694D01*
X132907262Y-112257115D01*
X132987005Y-112283564D01*
X133068611Y-112310632D01*
X133068613Y-112310632D01*
X133075139Y-112312797D01*
X133081975Y-112313497D01*
X133081978Y-112313498D01*
X133125031Y-112317909D01*
X133179600Y-112323500D01*
X134080400Y-112323500D01*
X134083646Y-112323163D01*
X134083650Y-112323163D01*
X134179308Y-112313238D01*
X134179312Y-112313237D01*
X134186166Y-112312526D01*
X134192702Y-112310345D01*
X134192704Y-112310345D01*
X134324806Y-112266272D01*
X134353946Y-112256550D01*
X134504348Y-112163478D01*
X134629305Y-112038303D01*
X134681848Y-111953063D01*
X134718275Y-111893968D01*
X134718276Y-111893966D01*
X134722115Y-111887738D01*
X134752099Y-111797338D01*
X134775632Y-111726389D01*
X134775632Y-111726387D01*
X134777797Y-111719861D01*
X134788500Y-111615400D01*
X134788500Y-109364600D01*
X134777526Y-109258834D01*
X134721550Y-109091054D01*
X134628478Y-108940652D01*
X134503303Y-108815695D01*
X134497072Y-108811854D01*
X134358968Y-108726725D01*
X134358966Y-108726724D01*
X134352738Y-108722885D01*
X134192254Y-108669655D01*
X134191389Y-108669368D01*
X134191387Y-108669368D01*
X134184861Y-108667203D01*
X134178025Y-108666503D01*
X134178022Y-108666502D01*
X134134969Y-108662091D01*
X134080400Y-108656500D01*
X133179600Y-108656500D01*
X133176354Y-108656837D01*
X133176350Y-108656837D01*
X133080692Y-108666762D01*
X133080688Y-108666763D01*
X133073834Y-108667474D01*
X133067298Y-108669655D01*
X133067296Y-108669655D01*
X132935194Y-108713728D01*
X132906054Y-108723450D01*
X132755652Y-108816522D01*
X132630695Y-108941697D01*
X132537885Y-109092262D01*
X132482203Y-109260139D01*
X132471500Y-109364600D01*
X132471500Y-109488822D01*
X132451498Y-109556943D01*
X132397842Y-109603436D01*
X132327568Y-109613540D01*
X132319303Y-109612069D01*
X132181944Y-109582872D01*
X132181939Y-109582872D01*
X132175487Y-109581500D01*
X131984513Y-109581500D01*
X131978061Y-109582872D01*
X131978056Y-109582872D01*
X131840697Y-109612069D01*
X131769906Y-109606667D01*
X131713274Y-109563850D01*
X131688780Y-109497212D01*
X131688500Y-109488822D01*
X131688500Y-109364600D01*
X131677526Y-109258834D01*
X131621550Y-109091054D01*
X131528478Y-108940652D01*
X131403303Y-108815695D01*
X131397072Y-108811854D01*
X131258968Y-108726725D01*
X131258966Y-108726724D01*
X131252738Y-108722885D01*
X131092254Y-108669655D01*
X131091389Y-108669368D01*
X131091387Y-108669368D01*
X131084861Y-108667203D01*
X131078025Y-108666503D01*
X131078022Y-108666502D01*
X131034969Y-108662091D01*
X130980400Y-108656500D01*
X130079600Y-108656500D01*
X130076354Y-108656837D01*
X130076350Y-108656837D01*
X129980692Y-108666762D01*
X129980688Y-108666763D01*
X129973834Y-108667474D01*
X129967298Y-108669655D01*
X129967296Y-108669655D01*
X129835194Y-108713728D01*
X129806054Y-108723450D01*
X129655652Y-108816522D01*
X129530695Y-108941697D01*
X129437885Y-109092262D01*
X129382203Y-109260139D01*
X129371500Y-109364600D01*
X129371500Y-109730500D01*
X129351498Y-109798621D01*
X129297842Y-109845114D01*
X129245500Y-109856500D01*
X126931904Y-109856500D01*
X126863783Y-109836498D01*
X126817290Y-109782842D01*
X126807186Y-109712568D01*
X126809878Y-109701154D01*
X126809690Y-109701114D01*
X126811132Y-109694388D01*
X126813297Y-109687861D01*
X126815145Y-109669830D01*
X126820912Y-109613540D01*
X126824000Y-109583400D01*
X126824000Y-107332600D01*
X126813026Y-107226835D01*
X126757050Y-107059055D01*
X126663978Y-106908652D01*
X126538803Y-106783695D01*
X126435038Y-106719733D01*
X126394468Y-106694725D01*
X126394466Y-106694724D01*
X126388238Y-106690885D01*
X126227754Y-106637655D01*
X126226889Y-106637368D01*
X126226887Y-106637368D01*
X126220361Y-106635203D01*
X126213525Y-106634503D01*
X126213522Y-106634502D01*
X126170469Y-106630091D01*
X126115900Y-106624500D01*
X125090100Y-106624500D01*
X125086854Y-106624837D01*
X125086850Y-106624837D01*
X124991193Y-106634762D01*
X124991189Y-106634763D01*
X124984335Y-106635474D01*
X124977799Y-106637655D01*
X124977797Y-106637655D01*
X124845695Y-106681728D01*
X124816555Y-106691450D01*
X124666152Y-106784522D01*
X124541195Y-106909697D01*
X124448385Y-107060262D01*
X124392703Y-107228139D01*
X124382000Y-107332600D01*
X124382000Y-109583400D01*
X124382337Y-109586646D01*
X124382337Y-109586650D01*
X124390968Y-109669830D01*
X124392974Y-109689165D01*
X124395155Y-109695701D01*
X124395155Y-109695703D01*
X124437007Y-109821148D01*
X124448950Y-109856945D01*
X124542022Y-110007348D01*
X124667197Y-110132305D01*
X124673427Y-110136145D01*
X124673428Y-110136146D01*
X124687218Y-110144646D01*
X124817762Y-110225115D01*
X124973667Y-110276826D01*
X125032027Y-110317256D01*
X125059264Y-110382821D01*
X125060000Y-110396419D01*
X125060000Y-110583439D01*
X125039998Y-110651560D01*
X124986342Y-110698053D01*
X124973877Y-110702962D01*
X124823508Y-110753130D01*
X124823506Y-110753131D01*
X124816555Y-110755450D01*
X124666152Y-110848522D01*
X124541195Y-110973697D01*
X124448385Y-111124262D01*
X124439770Y-111150237D01*
X124399549Y-111271500D01*
X124392703Y-111292139D01*
X124392003Y-111298975D01*
X124392002Y-111298978D01*
X124387591Y-111342031D01*
X124382000Y-111396600D01*
X124382000Y-113647400D01*
X123849000Y-113647400D01*
X123849000Y-111396600D01*
X123846586Y-111373333D01*
X123838738Y-111297693D01*
X123838737Y-111297689D01*
X123838026Y-111290835D01*
X123833597Y-111277558D01*
X123784368Y-111130003D01*
X123782050Y-111123055D01*
X123688978Y-110972652D01*
X123563803Y-110847695D01*
X123413238Y-110754885D01*
X123414772Y-110752396D01*
X123371481Y-110714296D01*
X123352000Y-110646994D01*
X123352000Y-110525293D01*
X123354232Y-110501684D01*
X123354290Y-110501381D01*
X123354290Y-110501377D01*
X123355775Y-110493594D01*
X123352249Y-110437549D01*
X123352000Y-110429638D01*
X123352000Y-110332981D01*
X123372002Y-110264860D01*
X123415720Y-110226610D01*
X123414445Y-110224550D01*
X123558620Y-110135332D01*
X123564848Y-110131478D01*
X123689805Y-110006303D01*
X123782615Y-109855738D01*
X123838297Y-109687861D01*
X123840145Y-109669830D01*
X123845912Y-109613540D01*
X123849000Y-109583400D01*
X123849000Y-107332600D01*
X123838026Y-107226835D01*
X123782050Y-107059055D01*
X123688978Y-106908652D01*
X123563803Y-106783695D01*
X123460038Y-106719733D01*
X123419468Y-106694725D01*
X123419466Y-106694724D01*
X123413238Y-106690885D01*
X123252754Y-106637655D01*
X123251889Y-106637368D01*
X123251887Y-106637368D01*
X123245361Y-106635203D01*
X123238525Y-106634503D01*
X123238522Y-106634502D01*
X123195469Y-106630091D01*
X123140900Y-106624500D01*
X122115100Y-106624500D01*
X122111854Y-106624837D01*
X122111850Y-106624837D01*
X122016193Y-106634762D01*
X122016189Y-106634763D01*
X122009335Y-106635474D01*
X122002799Y-106637655D01*
X122002797Y-106637655D01*
X121870695Y-106681728D01*
X121841555Y-106691450D01*
X121691152Y-106784522D01*
X121566195Y-106909697D01*
X121473385Y-107060262D01*
X121417703Y-107228139D01*
X121407000Y-107332600D01*
X121407000Y-109358528D01*
X121386998Y-109426649D01*
X121333342Y-109473142D01*
X121263068Y-109483246D01*
X121254803Y-109481774D01*
X121132953Y-109455873D01*
X121132940Y-109455872D01*
X121126487Y-109454500D01*
X120935513Y-109454500D01*
X120929061Y-109455872D01*
X120929056Y-109455872D01*
X120847810Y-109473142D01*
X120748712Y-109494206D01*
X120742682Y-109496891D01*
X120742681Y-109496891D01*
X120580278Y-109569197D01*
X120580276Y-109569198D01*
X120574248Y-109571882D01*
X120568907Y-109575762D01*
X120568906Y-109575763D01*
X120530818Y-109603436D01*
X120419747Y-109684134D01*
X120415326Y-109689044D01*
X120415325Y-109689045D01*
X120316663Y-109798621D01*
X120291960Y-109826056D01*
X120196473Y-109991444D01*
X120137458Y-110173072D01*
X120136768Y-110179633D01*
X120136768Y-110179635D01*
X120131988Y-110225115D01*
X120117496Y-110363000D01*
X107077758Y-110363000D01*
X107197561Y-110144628D01*
X107200278Y-110139923D01*
X107638617Y-109417564D01*
X107641563Y-109412940D01*
X107856640Y-109091054D01*
X108110982Y-108710404D01*
X108114111Y-108705935D01*
X108613735Y-108024534D01*
X108617082Y-108020173D01*
X109145910Y-107361267D01*
X109149443Y-107357055D01*
X109541765Y-106909697D01*
X109706551Y-106721795D01*
X109710261Y-106717746D01*
X109738181Y-106688581D01*
X110294527Y-106107414D01*
X110298414Y-106103527D01*
X110693824Y-105725004D01*
X110908749Y-105519258D01*
X110912799Y-105515547D01*
X111548055Y-104958443D01*
X111552267Y-104954910D01*
X112211173Y-104426082D01*
X112215534Y-104422735D01*
X112724243Y-104049734D01*
X112896935Y-103923111D01*
X112901404Y-103919982D01*
X113133796Y-103764703D01*
X121995143Y-103764703D01*
X122032668Y-104049734D01*
X122108529Y-104327036D01*
X122110213Y-104330984D01*
X122150039Y-104424353D01*
X122221323Y-104591476D01*
X122368961Y-104838161D01*
X122548713Y-105062528D01*
X122757251Y-105260423D01*
X122990717Y-105428186D01*
X122994512Y-105430195D01*
X122994513Y-105430196D01*
X123016269Y-105441715D01*
X123244792Y-105562712D01*
X123514773Y-105661511D01*
X123795664Y-105722755D01*
X123824241Y-105725004D01*
X124018682Y-105740307D01*
X124018691Y-105740307D01*
X124021139Y-105740500D01*
X124176671Y-105740500D01*
X124178807Y-105740354D01*
X124178818Y-105740354D01*
X124386948Y-105726165D01*
X124386954Y-105726164D01*
X124391225Y-105725873D01*
X124395420Y-105725004D01*
X124395422Y-105725004D01*
X124531983Y-105696724D01*
X124672742Y-105667574D01*
X124943743Y-105571607D01*
X125199212Y-105439750D01*
X125202713Y-105437289D01*
X125202717Y-105437287D01*
X125316817Y-105357096D01*
X125434423Y-105274441D01*
X125645022Y-105078740D01*
X125827113Y-104856268D01*
X125977327Y-104611142D01*
X126092883Y-104347898D01*
X126171644Y-104071406D01*
X126212151Y-103786784D01*
X126212245Y-103768951D01*
X126213635Y-103503583D01*
X126213635Y-103503576D01*
X126213657Y-103499297D01*
X126176132Y-103214266D01*
X126100271Y-102936964D01*
X125987477Y-102672524D01*
X125839839Y-102425839D01*
X125660087Y-102201472D01*
X125451549Y-102003577D01*
X125218083Y-101835814D01*
X125196243Y-101824250D01*
X125173054Y-101811972D01*
X124964008Y-101701288D01*
X124694027Y-101602489D01*
X124413136Y-101541245D01*
X124382085Y-101538801D01*
X124190118Y-101523693D01*
X124190109Y-101523693D01*
X124187661Y-101523500D01*
X124032129Y-101523500D01*
X124029993Y-101523646D01*
X124029982Y-101523646D01*
X123821852Y-101537835D01*
X123821846Y-101537836D01*
X123817575Y-101538127D01*
X123813380Y-101538996D01*
X123813378Y-101538996D01*
X123676816Y-101567277D01*
X123536058Y-101596426D01*
X123265057Y-101692393D01*
X123009588Y-101824250D01*
X123006087Y-101826711D01*
X123006083Y-101826713D01*
X122995994Y-101833804D01*
X122774377Y-101989559D01*
X122563778Y-102185260D01*
X122381687Y-102407732D01*
X122231473Y-102652858D01*
X122115917Y-102916102D01*
X122037156Y-103192594D01*
X122034072Y-103214266D01*
X122000660Y-103449036D01*
X121996649Y-103477216D01*
X121996627Y-103481505D01*
X121996626Y-103481512D01*
X121995165Y-103760417D01*
X121995143Y-103764703D01*
X113133796Y-103764703D01*
X113603940Y-103450563D01*
X113608564Y-103447617D01*
X114330923Y-103009278D01*
X114335628Y-103006561D01*
X114937294Y-102676476D01*
X115076431Y-102600143D01*
X115081308Y-102597605D01*
X115839073Y-102223917D01*
X115844055Y-102221594D01*
X116345224Y-102001074D01*
X116617415Y-101881307D01*
X116622474Y-101879211D01*
X117409972Y-101572970D01*
X117415108Y-101571100D01*
X118215192Y-101299509D01*
X118220435Y-101297856D01*
X119031580Y-101061429D01*
X119036889Y-101060006D01*
X119857612Y-100859176D01*
X119862950Y-100857992D01*
X120270714Y-100776883D01*
X120691629Y-100693159D01*
X120697042Y-100692204D01*
X121532146Y-100563668D01*
X121537597Y-100562951D01*
X122377477Y-100470970D01*
X122382945Y-100470491D01*
X123226050Y-100415232D01*
X123231531Y-100414992D01*
X123983940Y-100398574D01*
X124076251Y-100396560D01*
X124081749Y-100396560D01*
X124174060Y-100398574D01*
G37*
G04 #@! TD.AperFunction*
M02*
